<svg width="26" height="26" viewBox="0 0 26 26" fill="none" xmlns="http://www.w3.org/2000/svg">
<path d="M25.775 9.09375V11.3875H0V9.09375H3.10625H4.84375H6.64375H9.50625H12.925H18.7063C18.7375 9.1 18.7688 9.1 18.8 9.09375H25.775Z" fill="#0F4B46"/>
<path d="M23.8059 0.24375C23.7184 0.6875 23.5184 1.11875 23.2184 1.5C23.1559 1.575 23.1246 1.66875 23.1371 1.76875C23.1496 1.85 23.1871 1.925 23.2434 1.98125L23.2496 1.9875C23.3121 2.04375 23.3871 2.08125 23.4746 2.0875C23.7059 2.1125 23.9121 2.15625 24.0871 2.21875C23.7246 2.64375 23.2621 2.95 22.7434 3.10625L20.9746 1.3125C21.1559 0.80625 21.4684 0.34375 21.8746 0C21.9371 0.175 21.9809 0.38125 22.0059 0.6125C22.0121 0.7 22.0434 0.775 22.1059 0.8375C22.2309 0.95625 22.4184 0.975 22.5621 0.88125C22.5684 0.875 22.5809 0.86875 22.5871 0.8625C22.9496 0.55625 23.3746 0.3375 23.8059 0.24375Z" fill="#0F4B46"/>
<path d="M22.5373 3.78077C22.8248 4.08077 22.9748 4.48077 22.9436 4.89327C22.9186 5.29327 22.7248 5.64952 22.4123 5.88702C22.3998 5.89327 22.3936 5.89953 22.3811 5.90578C22.3748 5.91202 22.3686 5.91827 22.3561 5.92452L21.0373 6.83702L20.2811 6.08702C20.1623 5.96827 19.9686 5.96827 19.8498 6.08702C19.7311 6.20577 19.7311 6.39952 19.8498 6.51827L20.5311 7.19327L18.6623 8.48702H13.5186L15.4623 5.68703L16.0373 6.26827C16.0998 6.32452 16.1748 6.35577 16.2561 6.35577C16.3373 6.35577 16.4123 6.32452 16.4748 6.26827C16.5936 6.14952 16.5936 5.95577 16.4748 5.83702L15.8123 5.17452L17.4498 2.81827L18.0998 3.47452C18.1623 3.53077 18.2373 3.56202 18.3186 3.56202C18.3998 3.56202 18.4748 3.53077 18.5311 3.47452C18.6498 3.35577 18.6498 3.16202 18.5311 3.04327L17.7998 2.31202L18.1811 1.76202C18.2186 1.70577 18.2561 1.66202 18.2936 1.61827C18.5436 1.32452 18.8998 1.15577 19.2873 1.14327C19.6811 1.13077 20.0686 1.28702 20.3498 1.56827L20.4061 1.62452L22.4123 3.64952C22.4248 3.66202 22.4373 3.68077 22.4498 3.68702L22.5373 3.78077Z" fill="#0F4B46"/>
<path d="M17.6439 23.9375V25.375C17.6439 25.4375 17.5877 25.4937 17.5252 25.4937H8.25644C8.18769 25.4937 8.1377 25.4375 8.1377 25.375V23.9438C8.8877 24.1063 9.66895 24.1875 10.4689 24.1875H15.3064C16.1064 24.1813 16.8877 24.1 17.6439 23.9375Z" fill="#0F4B46"/>
<path d="M10.9375 0.818554C11.15 1.03105 11.2688 1.3123 11.2688 1.6123C11.2688 1.91855 11.15 2.20605 10.9375 2.41855C10.9062 2.4498 10.875 2.48105 10.8375 2.50605L9.25 0.918555C9.28125 0.887305 9.3125 0.849804 9.3375 0.818554C9.55 0.606054 9.8375 0.487305 10.1375 0.487305C10.4375 0.487305 10.725 0.606054 10.9375 0.818554Z" fill="#0F4B46"/>
<path d="M7.375 8.48789L11.0563 4.80664C10.8937 6.18164 10.3063 7.46289 9.3625 8.48789H7.375Z" fill="#0F4B46"/>
<path d="M10.6129 4.38086L6.51289 8.48711H5.27539C5.32539 8.36836 5.38164 8.24336 5.44414 8.11211C5.71914 7.51836 6.08789 6.97461 6.53789 6.48711C7.60664 5.31211 9.05664 4.56836 10.6129 4.38086Z" fill="#0F4B46"/>
<path d="M5.63711 2.61895C6.26188 2.61895 6.76836 2.11247 6.76836 1.4877C6.76836 0.862923 6.26188 0.356445 5.63711 0.356445C5.01234 0.356445 4.50586 0.862923 4.50586 1.4877C4.50586 2.11247 5.01234 2.61895 5.63711 2.61895Z" fill="#0F4B46"/>
<path d="M5.9 6.29414C5.58125 6.66289 5.3125 7.06289 5.08125 7.48164L1.96875 4.36914C3.45 4.54414 4.84375 5.22539 5.9 6.29414Z" fill="#0F4B46"/>
<path d="M1.5625 4.8252L4.8 8.0627C4.7375 8.20645 4.675 8.35019 4.625 8.48769H3.25625C2.3125 7.46894 1.725 6.19395 1.5625 4.8252Z" fill="#0F4B46"/>
<path d="M25.775 12V13.1C25.775 17.9938 22.4 22.1125 17.8563 23.2563C17.0375 23.4625 16.1875 23.5688 15.3063 23.5688H10.4688C9.58125 23.5688 8.71875 23.4563 7.89375 23.25C3.3625 22.1 0 17.9875 0 13.1V12H25.775Z" fill="#0F4B46"/>
<path d="M14.9559 3.09344C14.9621 3.11219 14.9621 3.13094 14.9621 3.15594C14.9621 3.17469 14.9621 3.19344 14.9559 3.21844C14.9496 3.23719 14.9434 3.25594 14.9371 3.27469C14.9309 3.29344 14.9184 3.31219 14.9059 3.33094C14.8934 3.34969 14.8809 3.36219 14.8684 3.37469C14.8121 3.44344 14.7371 3.47469 14.6559 3.47469C14.6371 3.47469 14.6184 3.47469 14.5934 3.46844C14.5746 3.46219 14.5559 3.45594 14.5371 3.44969C14.5184 3.44344 14.4996 3.43094 14.4809 3.41844C14.4621 3.40594 14.4496 3.39344 14.4371 3.38094C14.3809 3.32469 14.3496 3.24344 14.3496 3.16219C14.3496 3.08094 14.3809 2.99969 14.4371 2.94344C14.4496 2.93094 14.4684 2.91844 14.4809 2.90594C14.4996 2.89344 14.5184 2.88719 14.5371 2.87469C14.5559 2.86844 14.5746 2.86219 14.5934 2.85594C14.6934 2.83719 14.7996 2.86844 14.8684 2.93719C14.8809 2.94969 14.8934 2.96844 14.9059 2.98094C14.9184 2.99969 14.9246 3.01219 14.9371 3.03719C14.9434 3.04969 14.9496 3.06844 14.9559 3.09344Z" fill="#0F4B46"/>
<path d="M13.6809 2.15664C13.6871 2.17539 13.6871 2.19414 13.6871 2.21914C13.6871 2.30039 13.6559 2.38164 13.5996 2.43789C13.5871 2.45039 13.5684 2.46289 13.5559 2.47539C13.5371 2.48789 13.5184 2.49414 13.4996 2.50664C13.4809 2.51289 13.4621 2.51914 13.4434 2.52539C13.4121 2.52539 13.3934 2.53164 13.3746 2.53164C13.3559 2.53164 13.3371 2.53164 13.3121 2.52539C13.2934 2.51914 13.2746 2.51289 13.2559 2.50664C13.2371 2.50039 13.2184 2.48789 13.1996 2.47539C13.1809 2.46289 13.1684 2.45039 13.1559 2.43789C13.0996 2.38164 13.0684 2.30039 13.0684 2.21914C13.0684 2.20039 13.0684 2.18164 13.0746 2.15664C13.0809 2.13789 13.0871 2.11914 13.0934 2.10039C13.0996 2.08164 13.1121 2.06289 13.1246 2.04414C13.1371 2.02539 13.1496 2.01289 13.1621 2.00039C13.1746 1.98789 13.1934 1.97539 13.2059 1.96289C13.2246 1.95039 13.2434 1.94414 13.2621 1.93164C13.2809 1.92539 13.2996 1.91914 13.3184 1.91289C13.3559 1.90664 13.3996 1.90664 13.4371 1.91289C13.4559 1.91914 13.4746 1.92539 13.4934 1.93164C13.5121 1.93789 13.5309 1.95039 13.5496 1.96289C13.5684 1.97539 13.5809 1.98789 13.5934 2.00039C13.6059 2.01289 13.6184 2.03164 13.6309 2.04414C13.6434 2.06289 13.6496 2.08164 13.6621 2.10039C13.6684 2.11289 13.6746 2.13164 13.6809 2.15664Z" fill="#0F4B46"/>
<path d="M13.5061 3.81875C13.5123 3.8375 13.5123 3.85625 13.5123 3.88125C13.5123 3.9 13.5123 3.91875 13.5061 3.94375C13.4998 3.9625 13.4936 3.98125 13.4873 4C13.4811 4.01875 13.4686 4.0375 13.4561 4.05625C13.4436 4.075 13.4311 4.0875 13.4186 4.1C13.4061 4.1125 13.3873 4.125 13.3748 4.1375C13.3561 4.15 13.3373 4.15625 13.3186 4.16875C13.2998 4.175 13.2811 4.18125 13.2623 4.1875C13.2498 4.19375 13.2248 4.19375 13.2061 4.19375C13.1873 4.19375 13.1686 4.19375 13.1436 4.1875C13.1248 4.18125 13.1061 4.175 13.0873 4.16875C13.0686 4.1625 13.0498 4.15 13.0311 4.1375C13.0123 4.125 12.9998 4.1125 12.9873 4.1C12.9748 4.0875 12.9623 4.06875 12.9498 4.05625C12.9373 4.0375 12.9311 4.01875 12.9186 4C12.9123 3.98125 12.9061 3.9625 12.8998 3.94375C12.8936 3.925 12.8936 3.90625 12.8936 3.88125C12.8936 3.8625 12.8936 3.84375 12.8998 3.81875C12.9061 3.8 12.9123 3.78125 12.9186 3.7625C12.9248 3.74375 12.9373 3.725 12.9498 3.70625C12.9623 3.6875 12.9748 3.675 12.9873 3.6625C12.9998 3.65 13.0186 3.6375 13.0311 3.625C13.0498 3.6125 13.0686 3.60625 13.0873 3.59375C13.1061 3.5875 13.1248 3.58125 13.1436 3.575C13.1811 3.56875 13.2248 3.56875 13.2623 3.575C13.2811 3.58125 13.2998 3.5875 13.3186 3.59375C13.3373 3.6 13.3561 3.6125 13.3748 3.625C13.3936 3.6375 13.4061 3.65 13.4186 3.6625C13.4311 3.675 13.4436 3.69375 13.4561 3.70625C13.4686 3.725 13.4748 3.74375 13.4873 3.7625C13.4936 3.78125 13.4998 3.79375 13.5061 3.81875Z" fill="#0F4B46"/>
</svg>
