<svg width="26" height="24" viewBox="0 0 26 24" fill="none" xmlns="http://www.w3.org/2000/svg">
<path d="M22.4022 0H3.19776C2.34966 0 1.5363 0.336906 0.936602 0.936602C0.336906 1.5363 0 2.34966 0 3.19776V17.1702C0 18.0183 0.336906 18.8317 0.936602 19.4314C1.5363 20.0311 2.34966 20.368 3.19776 20.368C4.03407 20.3682 4.83708 20.6958 5.43488 21.2806L7.87744 23.6717L10.0026 21.3875C10.3018 21.0659 10.6642 20.8094 11.067 20.634C11.4697 20.4586 11.9044 20.368 12.3437 20.368H22.4022C23.2503 20.368 24.0637 20.0311 24.6634 19.4314C25.2631 18.8317 25.6 18.0183 25.6 17.1702V3.19776C25.6 2.34966 25.2631 1.5363 24.6634 0.936602C24.0637 0.336906 23.2503 0 22.4022 0ZM12.1158 14.6422H1.9568C1.87193 14.6422 1.79054 14.6085 1.73053 14.5485C1.67051 14.4885 1.6368 14.4071 1.6368 14.3222C1.6368 14.2374 1.67051 14.156 1.73053 14.096C1.79054 14.036 1.87193 14.0022 1.9568 14.0022H12.1158C12.2007 14.0022 12.2821 14.036 12.3421 14.096C12.4021 14.156 12.4358 14.2374 12.4358 14.3222C12.4358 14.4071 12.4021 14.4885 12.3421 14.5485C12.2821 14.6085 12.2007 14.6422 12.1158 14.6422ZM12.1158 11.0966H1.9568C1.87193 11.0966 1.79054 11.0629 1.73053 11.0029C1.67051 10.9429 1.6368 10.8615 1.6368 10.7766C1.6368 10.6918 1.67051 10.6104 1.73053 10.5504C1.79054 10.4904 1.87193 10.4566 1.9568 10.4566H12.1158C12.2007 10.4566 12.2821 10.4904 12.3421 10.5504C12.4021 10.6104 12.4358 10.6918 12.4358 10.7766C12.4358 10.8615 12.4021 10.9429 12.3421 11.0029C12.2821 11.0629 12.2007 11.0966 12.1158 11.0966ZM12.1158 7.55104H1.9568C1.87193 7.55104 1.79054 7.51733 1.73053 7.45731C1.67051 7.3973 1.6368 7.31591 1.6368 7.23104C1.6368 7.14617 1.67051 7.06478 1.73053 7.00477C1.79054 6.94475 1.87193 6.91104 1.9568 6.91104H12.1158C12.2007 6.91104 12.2821 6.94475 12.3421 7.00477C12.4021 7.06478 12.4358 7.14617 12.4358 7.23104C12.4358 7.31591 12.4021 7.3973 12.3421 7.45731C12.2821 7.51733 12.2007 7.55104 12.1158 7.55104ZM21.3834 11.2122L21.9171 14.3222L19.1238 12.8538L16.3306 14.3222L16.864 11.2122L14.6042 9.00928L17.728 8.55552L19.1248 5.72576L20.5213 8.55552L23.6442 9.00928L21.3834 11.2122Z" fill="#0F4B46"/>
</svg>
