<svg id="Layer_1" data-name="Layer 1" xmlns="http://www.w3.org/2000/svg" viewBox="0 0 300 300"><defs><style>.cls-1{fill:#c5a24b;}</style></defs><path class="cls-1" d="M120.18,143.58a6.05,6.05,0,0,0,6,6.06h85.53a6.06,6.06,0,0,0,0-12.11H126.23A6.05,6.05,0,0,0,120.18,143.58Z"/><path class="cls-1" d="M120.18,110.56a6.05,6.05,0,0,0,6,6.06h85.53a6.06,6.06,0,0,0,0-12.11H126.23A6.05,6.05,0,0,0,120.18,110.56Z"/><path class="cls-1" d="M258.64,168.52H247.82v-99a5.94,5.94,0,0,0-.53-2.42,5.14,5.14,0,0,0-.32-.49,6.18,6.18,0,0,0-1.1-1.49s-.06-.09-.1-.13L186.86,12.93a6,6,0,0,0-4-1.52H70A28.59,28.59,0,0,0,41.49,40V247.5A28.58,28.58,0,0,0,70,276.05h86.83a13.62,13.62,0,0,0,13.54,12.54h88.23a13.67,13.67,0,0,0,13.65-13.65V182.17A13.67,13.67,0,0,0,258.64,168.52Zm-56.75,12.11h23v18.88h-23Zm-13.29-150,37.19,32.89H197.14A8.55,8.55,0,0,1,188.6,55ZM53.6,247.5V40A16.47,16.47,0,0,1,70,23.51H176.49V55a20.68,20.68,0,0,0,20.65,20.65h38.57v92.89h-65.3a13.67,13.67,0,0,0-13.65,13.65V264H70A16.47,16.47,0,0,1,53.6,247.5Zm206.58,27.44a1.55,1.55,0,0,1-1.54,1.55H170.41a1.56,1.56,0,0,1-1.55-1.55V182.17a1.55,1.55,0,0,1,1.55-1.54h19.38v20.8A10.18,10.18,0,0,0,200,211.61h26.81A10.19,10.19,0,0,0,237,201.43v-20.8h21.68a1.54,1.54,0,0,1,1.54,1.54Z"/><path class="cls-1" d="M108.11,126,91.62,142.22,84,134.16a6.05,6.05,0,0,0-8.78,8.34L87.09,155a6,6,0,0,0,4.29,1.89h.1a6.08,6.08,0,0,0,4.25-1.74l20.88-20.62a6,6,0,1,0-8.5-8.61Z"/><path class="cls-1" d="M108.11,167.09,91.62,183.36,84,175.3a6.05,6.05,0,0,0-8.78,8.34l11.89,12.53a6,6,0,0,0,4.29,1.89h.1a6.08,6.08,0,0,0,4.25-1.74l20.88-20.62a6,6,0,1,0-8.5-8.61Z"/><path class="cls-1" d="M108.11,208.65,91.62,224.92l-7.64-8a6,6,0,0,0-8.78,8.32l11.89,12.54a6,6,0,0,0,4.29,1.9h.1a6,6,0,0,0,4.25-1.75l20.88-20.62a6,6,0,1,0-8.5-8.61Z"/><path class="cls-1" d="M126.23,179.9a6.06,6.06,0,0,0,0,12.11h17.54a6.06,6.06,0,0,0,0-12.11Z"/><path class="cls-1" d="M144.39,222.27H126.23a6.06,6.06,0,0,0,0,12.11h18.16a6.06,6.06,0,0,0,0-12.11Z"/><path class="cls-1" d="M238.81,222a5.35,5.35,0,0,0-7.55,0l-14.71,14.71L201.84,222a5.34,5.34,0,0,0-7.55,7.55L209,244.21l-14.71,14.71a5.34,5.34,0,1,0,7.55,7.55l14.71-14.71,14.71,14.71a5.32,5.32,0,0,0,7.55,0,5.35,5.35,0,0,0,0-7.55L224.1,244.21l14.71-14.71A5.35,5.35,0,0,0,238.81,222Z"/><path class="cls-1" d="M97.3,67.2c-9.74-2.75-11.9-4.53-11.9-8.52,0-2.81,1.67-6.25,7.52-6.25,7,0,8.14,4.09,8.8,6.62h12.92C114,52,109.93,45,98.62,43.26V37.41H87.79v6C79.16,45,72.38,50.72,72.38,59.94c0,8.57,4.5,14.24,19.88,18.67,8.45,2.41,10.81,4.6,10.81,9.07,0,3.64-2.15,6.87-8.89,6.87-5.44,0-9.06-3-10.11-7.66H71.16c.7,8.8,6.76,15.2,17.27,16.81V111H99.34v-7.36c10-1.5,16.68-7.21,16.68-17.48C116,76.48,110.91,71,97.3,67.2Z"/></svg>