<svg id="Layer_1" data-name="Layer 1" xmlns="http://www.w3.org/2000/svg" viewBox="0 0 300 300"><defs><style>.cls-1{fill:#c5a24b;}</style></defs><path class="cls-1" d="M255.5,181.4V47.62a18.94,18.94,0,0,0-18.92-18.91H53.11A18.93,18.93,0,0,0,34.2,47.62V232.44a18.94,18.94,0,0,0,18.91,18.92H153.4a64.09,64.09,0,1,0,102.1-70ZM176.8,41.91v85L148.29,116a6.55,6.55,0,0,0-4.72,0l-28.52,10.92v-85ZM47.4,232.44V47.62a5.71,5.71,0,0,1,5.71-5.71h48.74v94.6a6.59,6.59,0,0,0,9,6.17l35.12-13.45,35.12,13.45a6.41,6.41,0,0,0,2.36.44,6.68,6.68,0,0,0,3.74-1.16,6.61,6.61,0,0,0,2.86-5.45V41.91h46.57a5.71,5.71,0,0,1,5.71,5.71v125a63.48,63.48,0,0,0-28.44-6.68A64.17,64.17,0,0,0,149.75,230a64.93,64.93,0,0,0,.52,8.14H53.11A5.71,5.71,0,0,1,47.4,232.44ZM213.85,280.9a50.9,50.9,0,1,1,31-91.27s0,0,0,0a50.89,50.89,0,0,1-31,91.25Z"/><path class="cls-1" d="M237.35,248l-14.27-14.27,15.21-15.07a6.6,6.6,0,0,0,.05-9.34c-2.52-2.91-6.74-2.61-9.34-.05l-15.21,15.07L200,210.62a6.6,6.6,0,0,0-9.33,9.34L205,234.23,189.75,249.3a6.6,6.6,0,0,0-.05,9.34c2.52,2.91,6.74,2.61,9.34.05l15.21-15.08L228,257.38a6.6,6.6,0,0,0,9.34-9.34Z"/><path class="cls-1" d="M75.46,207.3H69.37a6.61,6.61,0,0,0,0,13.21h6.09a6.61,6.61,0,0,0,0-13.21Z"/><path class="cls-1" d="M101.82,207.3H95.73a6.61,6.61,0,0,0,0,13.21h6.09a6.61,6.61,0,0,0,0-13.21Z"/></svg>