<svg width="80" height="80" viewBox="0 0 80 80" fill="none" xmlns="http://www.w3.org/2000/svg">
<path d="M19.6386 41.9122C20.6301 42.1122 21.6311 41.9794 22.6274 41.9932C24.5108 42.0191 26.3942 41.9932 28.4295 41.9932C26.7311 40.3945 26.5998 38.2629 26.3499 36.2623C25.7047 31.0884 25.73 25.899 26.9398 20.7924C27.2867 19.2639 27.8794 17.8147 28.6904 16.5119C29.0762 15.9031 29.4985 15.7031 30.1421 15.8462C31.1305 16.0635 32.1378 16.0187 33.1357 15.948C35.571 15.7755 36.5894 14.2009 36.0043 11.6088C35.8258 10.8609 35.5601 10.141 35.2136 9.46681C34.1794 7.38864 34.6569 5.73473 36.5609 4.5982C37.7849 3.86869 39.0911 3.60999 40.4638 3.51169C40.7295 3.49272 40.7184 3.61689 40.7263 3.76521C40.7453 4.1222 40.6962 4.54646 40.3562 4.62752C39.5956 4.8224 39.7869 5.24494 39.9751 5.80371C40.6391 7.75115 40.7742 9.86607 40.3642 11.8951C40.1151 13.2272 39.4878 14.44 38.5713 15.3615C37.6548 16.2831 36.4955 16.8666 35.2579 17.0293C34.9416 17.0741 34.6332 17.1293 34.2205 17.2018C34.8736 17.6191 34.9938 18.1451 34.5478 18.7194C34.328 19.004 34.4688 19.1678 34.6 19.3782C35.335 20.566 35.9565 21.8328 36.455 23.1586C36.8203 24.1296 37.6537 24.5728 38.5108 24.9056C39.7632 25.3903 41.0884 25.4455 42.3931 25.6041C43.3871 25.6998 44.368 25.918 45.317 26.2543C45.4926 26.3216 45.6729 26.4268 45.85 26.3388C46.7023 25.899 47.4962 26.206 48.3612 26.3837C49.6975 26.6613 51.0859 26.4457 52.4522 26.3837C52.6483 26.3837 52.7227 26.244 52.759 26.0611C52.7764 25.9766 52.8096 25.8887 52.8191 25.8111C52.8934 25.1574 53.2145 24.3296 52.9646 23.895C52.7147 23.4604 51.9399 24.0123 51.3832 24.0054C50.9626 24.0054 50.485 24.0865 50.2288 23.6605C49.9726 23.2345 50.1798 22.7602 50.4186 22.3739C51.2543 21.0063 52.3977 19.8953 53.7395 19.1471C54.0051 18.9971 54.3198 18.7694 54.6219 19.0299C54.9239 19.2903 54.7231 19.6162 54.6883 19.9146C54.4416 22.0997 54.0099 24.2572 53.885 26.4682C53.8644 26.8234 53.6446 26.7751 53.4912 26.8252C52.4111 27.1804 51.3263 27.515 50.2399 27.8599C50.039 27.922 49.786 27.8996 49.903 28.2618C49.9995 28.5567 50.1703 28.5084 50.4043 28.4446C52.294 27.9495 54.141 27.2778 55.9249 26.4371C57.8969 25.492 58.9897 26.1129 59.5384 28.3997C59.8802 29.794 59.8577 31.2647 59.4736 32.6458C59.4277 32.8182 59.3961 33.1269 59.1573 33.0407C58.8711 32.9372 59.1209 32.7199 59.1573 32.5526C59.4161 31.1975 59.3618 29.7935 58.9992 28.467C58.8873 27.9928 58.6731 27.5547 58.3745 27.189C57.9523 26.7062 57.5079 26.6975 57.0699 27.1684C56.7978 27.4827 56.5997 27.8645 56.4927 28.2807C56.0064 29.9322 56.0064 31.7083 56.4927 33.3598C56.6581 33.997 57.0353 34.5442 57.5506 34.8947C55.9993 35.1603 54.7705 34.3928 53.4722 34.0082C53.1417 33.9099 53.3726 33.6633 53.4722 33.4667C53.7711 32.8786 53.9846 32.2767 53.6383 31.5006C52.4617 33.4253 50.7459 33.8702 48.8277 33.8116C48.5664 33.8146 48.3075 33.8665 48.0623 33.9651C46.8984 34.3842 45.8484 33.8271 44.7841 33.4943C44.5596 33.4236 44.2686 33.1631 44.218 32.9355C43.9887 31.9093 43.3814 32.0525 42.6825 32.1956C41.4442 32.4492 40.1981 32.6751 38.9456 32.8286C38.3637 32.8993 38.3684 33.1407 38.4807 33.6443C38.7401 34.8119 38.9456 35.995 39.1749 37.1712C38.7796 37.5471 38.4032 37.9507 37.9842 38.2922C37.4022 38.7682 37.7375 39.339 37.9272 39.7581C38.1376 40.2255 38.4412 39.6805 38.7069 39.6132C38.9517 39.5357 39.1924 39.4436 39.428 39.3373C42.3535 39.2442 45.2696 39.3166 48.1525 39.9547C48.2805 39.984 48.4071 40.0237 48.5336 40.0616C50.7238 40.7084 51.2377 41.412 51.2899 43.8713C51.3674 47.4793 50.7886 51.0147 50.2636 54.5519C50.1055 55.6143 50.0454 56.6974 49.6311 57.7132C49.4524 58.1547 49.5124 58.5289 50.1576 58.6307C51.1179 58.79 52.061 59.0546 52.9725 59.4206C53.6319 59.681 53.9356 59.3809 54.1158 58.8273C54.4764 57.7235 54.7864 56.5991 55.0995 55.4781C55.6276 53.581 56.1432 51.696 56.6603 49.804C56.6967 49.6712 56.6951 49.516 56.9133 49.4815C57.296 52.3875 57.753 55.2832 58.0361 58.1978C58.2496 60.3915 57.345 61.4177 55.324 61.6936C54.3288 61.8096 53.328 61.8586 52.3273 61.8402H37.388C36.7966 61.8402 36.1956 60.8244 36.4629 60.2415C36.5926 59.9586 36.8835 60.0966 37.0954 60.0966C39.9925 60.0966 42.8912 60.0587 45.793 60.1121C46.53 60.1242 46.7419 59.8707 46.6233 59.1394C46.2659 56.9785 45.899 54.8175 45.5558 52.6531C45.219 50.5387 44.7398 48.4399 44.8094 46.272C44.8221 45.9047 44.6892 45.8409 44.3904 45.8754C41.3241 46.2203 38.253 46.4566 35.1677 46.3289C34.9495 46.3289 34.7755 46.3289 34.6633 46.6118C34.5416 46.8971 34.3764 47.1577 34.1746 47.3827C33.963 47.5826 33.7354 47.7615 33.4946 47.9173C37.1792 49.4264 39.5561 52.3755 41.3067 56.023C41.675 56.8143 41.9813 57.6382 42.2223 58.4858C42.3251 58.8307 42.246 58.9497 41.9139 58.948C40.0969 58.948 38.2767 58.9377 36.4613 58.948C36.0011 58.948 36.009 58.5582 35.8967 58.2582C34.4355 54.3691 31.9022 51.8115 28.0626 51.0665C24.8698 50.4473 21.9047 51.3303 19.1689 53.1671C16.286 55.1021 14.1701 57.7977 12.7358 61.121C12.4875 61.6971 12.2029 61.8661 11.6668 61.8333C11.0849 61.7971 11.1924 61.2831 11.1323 60.952C10.5662 57.8477 11.4011 55.1211 12.9999 52.5962C13.5376 52.3634 14.265 52.3513 14.2492 51.4355C14.2176 49.8368 14.3915 48.2295 14.1527 46.6411C14.0784 46.1444 14.3726 46.3151 14.5465 46.2358C15.255 46.2358 15.9697 46.2358 16.6703 46.2358C16.9866 46.2358 17.1558 46.1823 17.0736 45.7495C16.9299 45.0935 16.9487 44.4077 17.1279 43.7623C17.3071 43.1168 17.6404 42.5349 18.0935 42.076C18.5917 41.8639 19.1246 42.0019 19.6386 41.9122ZM47.0471 33.5857C48.5921 33.5598 49.4191 32.8958 49.6437 31.5868C49.903 30.0864 48.7945 28.2669 47.2716 28.0703C45.6191 27.8599 43.9349 27.872 42.2681 27.9134C40.1886 27.9634 38.1138 28.141 36.0375 28.2583C35.2168 28.3083 34.5035 28.0514 34.094 27.2356C33.9358 26.9097 33.8062 27.0045 33.6196 27.0976C32.5126 27.634 31.4214 28.1876 30.3081 28.6964C29.9539 28.8585 29.8669 29.0137 30.0551 29.3862C30.4046 30.0916 30.7446 30.8039 31.0466 31.5351C31.5211 32.6906 32.3117 33.0493 33.4598 32.9389C37.4402 32.5509 41.4221 32.1991 45.2886 31.0005C45.8231 30.828 46.2216 31.0643 46.4983 31.5506C46.7561 32.0025 46.8367 32.4129 46.3402 32.8131C45.9259 33.1494 46.0793 33.446 46.5489 33.5443C46.7135 33.5745 46.8802 33.5883 47.0471 33.5857ZM28.333 22.0307C28.3535 23.945 28.8074 25.7611 29.3688 27.5581C29.5016 27.9841 29.6693 28.0755 30.0599 27.8824C31.1826 27.3253 32.3197 26.7993 33.4598 26.2819C33.8014 26.1267 33.9564 25.9128 33.8916 25.5006C33.7508 24.6349 33.6797 23.7553 33.4978 22.893C33.1942 21.465 32.8115 20.0595 31.8611 18.9471C30.7541 17.6536 29.3957 17.9123 28.7331 19.5248C28.4042 20.3199 28.3251 21.1684 28.333 22.0393V22.0307ZM37.4259 39.7219C37.4038 39.6495 37.3896 39.2959 37.2219 39.1372C36.9753 38.9062 36.7681 39.2787 36.5562 39.3994C36.1877 39.6098 35.8509 39.8875 35.4872 40.1082C35.2152 40.2807 35.2373 40.4859 35.3037 40.7567C35.3939 41.1223 35.6105 40.9843 35.7955 40.9188C36.2415 40.7601 36.6859 40.5911 37.1239 40.4014C37.3152 40.3359 37.524 40.2376 37.4259 39.7305V39.7219ZM32.3766 41.7328C33.1119 41.8656 33.7872 41.5603 34.4751 41.3551C34.6854 41.2913 34.989 41.2741 34.8673 40.8774C34.7344 40.4462 34.4925 40.7049 34.3043 40.7963C33.6575 41.1068 33.0186 41.4275 32.3766 41.7414V41.7328Z" fill="#0F4B46"/>
<path d="M12.4162 16.8567H22.7632C24.3778 16.8567 24.8443 17.3638 24.8443 19.1091C24.8443 24.1623 24.8443 29.2154 24.8443 34.2686C24.8443 36.0587 24.4205 36.5244 22.8027 36.5364C21.7495 36.5364 20.6948 36.4881 19.64 36.5502C18.9473 36.5916 18.7639 36.295 18.824 35.612C18.86 35.2099 18.8504 34.8044 18.7955 34.4048C18.699 33.7149 18.3211 33.32 17.6553 33.37C17.0228 33.42 16.7381 33.8564 16.6749 34.5031C16.6638 34.6169 16.6654 34.7325 16.6638 34.848C16.6353 36.5244 16.6353 36.5244 15.1283 36.5244C13.4694 36.5244 11.8074 36.4933 10.1533 36.545C9.47802 36.5675 9.26453 36.3226 9.32936 35.6172C9.35589 35.1873 9.33572 34.7554 9.26927 34.3306C9.18229 33.6529 8.76323 33.3183 8.1623 33.3528C7.56138 33.3873 7.21347 33.8132 7.18659 34.4807C7.15378 34.9397 7.14955 35.4007 7.17394 35.8604C7.21347 36.4088 6.99682 36.5382 6.54138 36.533C4.90782 36.5106 3.27583 36.533 1.6391 36.5226C0.568505 36.514 0.0134417 35.9414 0.010279 34.7773C-0.00342633 29.3804 -0.00342633 23.9829 0.010279 18.5848C0.010279 17.4017 0.614365 16.8602 1.82729 16.8516C5.35904 16.8493 8.88869 16.851 12.4162 16.8567Z" fill="#C6A24C"/>
<path d="M25.0835 67.9865C25.6939 68.3228 26.0798 68.6953 26.0656 69.6094C26.0561 70.2768 26.9148 70.1733 27.3987 70.3113C27.745 70.4113 27.6723 69.9388 27.715 69.6921C27.8842 68.8298 27.7798 68.159 26.8373 67.8744C26.2459 67.7019 25.743 67.2604 25.161 66.6551H30.8176C31.8186 66.6551 32.9161 66.3757 33.7922 66.7396C34.6683 67.1035 34.9134 68.4504 35.7642 69.1351C34.4991 69.0351 33.2593 69.1109 32.0274 69.0023C31.689 68.9713 31.5039 68.9885 31.4628 69.449C31.0643 73.9071 28.8694 76.889 25.0993 78.6412C36.8016 78.5791 48.5038 78.6257 60.206 78.6705C59.4612 78.1825 58.68 77.8082 58 77.2374C56.0517 75.6024 54.8831 73.4743 54.521 70.8166C54.4909 70.5907 54.3944 70.3596 54.6222 70.1957C55.8193 69.3334 56.4091 67.7813 57.698 67.0173C57.8118 66.95 57.9241 66.8758 58.0364 66.8034L58.0206 66.7827C58.0727 67.3949 57.6916 67.9089 57.6837 68.5073C57.6837 68.6798 57.5699 68.935 57.6347 68.9989C58.1407 69.4904 58.7844 69.1541 59.3568 69.2903C59.7411 69.3817 59.7522 69.073 59.8012 68.7729C59.9275 67.9164 60.3391 67.1408 60.9572 66.5947C61.1248 67.2622 61.3162 67.802 60.9572 68.4297C60.8212 68.6712 60.4448 69.2075 60.9809 69.399C61.3731 69.5404 61.9471 69.7905 62.1654 68.9471C62.2839 68.576 62.3101 68.1773 62.2413 67.7916C62.0325 66.7862 61.8902 65.7635 61.6641 64.7615C61.4854 63.9681 62.1068 64.0285 62.4437 63.8681C62.9782 63.6111 62.7916 64.213 62.839 64.4165C63.0573 65.3909 63.2201 66.3792 63.4178 67.3587C63.4842 67.6899 63.4257 68.3142 63.8748 68.1469C64.0917 68.0557 64.2668 67.8748 64.3619 67.6435C64.4569 67.4122 64.4644 67.1493 64.3825 66.9121C64.2682 66.5738 64.2067 66.217 64.2006 65.8566C64.5675 65.6945 64.8917 66.2533 65.1083 65.9566C65.4661 65.4258 65.7704 64.8546 66.016 64.2527C66.133 63.9923 65.8405 63.9664 65.6997 63.8853C65.1589 63.5818 64.5722 63.43 63.8021 63.2955C65.0498 62.7574 66.2121 62.6195 67.3491 62.3453C68.8736 61.9779 69.7908 62.6902 70.6099 64.0061C71.3495 65.1891 71.8396 66.5362 72.045 67.9504C72.2504 69.3646 72.166 70.8109 71.7978 72.1853C71.4296 73.5597 70.7869 74.8281 69.9157 75.8993C69.0445 76.9706 67.9665 77.818 66.7593 78.3808C66.5697 78.4614 66.3922 78.5724 66.2327 78.7102C70.8282 78.9465 75.4237 78.8482 80.0002 79.4001C54.1604 80.1899 28.3211 80.1997 2.48242 79.4294C4.29785 78.9327 6.14806 79.0845 7.98088 78.9793C9.8137 78.8741 11.6671 78.8827 13.5157 78.8654C15.3644 78.8482 17.243 78.8654 19.1834 78.8654C19.0047 78.3843 18.709 78.4015 18.486 78.3015C16.5471 77.4277 14.9289 75.8768 13.8852 73.8921C12.8414 71.9073 12.4312 69.601 12.7187 67.3346C12.7835 66.8172 12.9417 66.6051 13.4604 66.6309C14.5057 66.681 15.5557 66.6447 16.5931 66.6447C16.6114 66.7191 16.622 66.7955 16.6247 66.8724C16.5583 67.2691 16.212 67.8227 16.5536 68.0279C17.1134 68.3728 17.8187 68.4108 18.4702 68.3935C18.6868 68.3935 18.66 68.0227 18.7264 67.814C19.1217 66.5826 19.2008 66.5292 20.4865 66.7258C20.1702 67.1673 19.8223 67.5709 19.6958 68.1055C19.6467 68.3073 19.3953 68.6763 19.8096 68.7005C20.1259 68.7195 20.5576 69.1696 20.7758 68.6039C21.0716 67.833 21.546 67.3967 22.3114 67.3432C22.3772 67.3461 22.4424 67.3277 22.4987 67.2903C22.555 67.2528 22.5999 67.198 22.6276 67.1328C22.8459 66.5085 23.2981 66.6154 23.8927 66.7068C23.0072 67.5346 23.7141 68.278 23.9354 69.0126C24.0588 69.4214 24.6012 69.3576 24.976 69.4973C25.1563 69.0161 25.0187 68.5711 24.9539 68.1176L25.0835 67.9865ZM57.66 73.9934L57.902 74.2624C57.9393 74.3662 57.9882 74.4647 58.0474 74.5556C60.0653 76.8976 62.5164 77.7634 65.3424 76.8148C68.1683 75.8663 69.7971 73.6709 70.232 70.4941C70.4597 68.8367 70.1245 67.257 69.3148 65.6841C69.182 66.0411 69.348 66.1808 69.3986 66.3498C70.4376 69.7525 69.5457 73.3639 66.6138 75.3644C64.2575 76.9718 60.7627 77.0891 58.0158 74.1572L57.7723 73.8916C57.7264 73.7192 57.6252 73.6967 57.4892 73.7709L57.66 73.9934ZM28.3412 71.234C26.2617 75.5645 23.053 76.2681 20.7505 75.7301C16.805 74.8074 15.1003 71.8497 15.0576 67.4726C13.9506 71.1081 16.5267 75.4783 20.2065 76.4234C24.4873 77.5219 27.9379 73.9951 28.3412 71.2322V71.234ZM68.9906 69.5093C68.9971 68.531 68.7838 67.5658 68.3691 66.6982C67.7587 65.3996 67.7635 65.3978 66.7466 66.3533C66.6725 66.4343 66.5921 66.5082 66.5062 66.574C66.0951 66.8431 66.1077 67.119 66.3718 67.5433C66.7842 68.187 66.9473 68.982 66.8257 69.756C66.7197 70.3923 66.9032 70.601 67.4203 70.7752C68.9321 71.2857 68.9859 71.2598 68.9906 69.5042V69.5093ZM62.2602 73.4967C62.3504 73.25 62.1669 73.1931 62.0309 73.1328C61.1397 72.75 60.4238 71.9978 60.04 71.0408C59.9182 70.7424 59.7364 70.7752 59.5292 70.8683C59.0089 71.1029 58.3922 71.0408 57.9478 71.4685C57.9162 71.5013 57.9937 71.6789 58.0316 71.7841C58.3239 72.5997 58.7732 73.3374 59.349 73.9476C59.9249 74.5577 60.614 75.0262 61.3699 75.3213C61.5439 75.3938 61.7415 75.5128 61.8222 75.2265C61.9851 74.6522 62.1163 74.0692 62.2602 73.4915V73.4967ZM18.2314 70.0716C17.9151 70.1354 17.4755 70.244 17.0343 70.3061C16.5931 70.3682 16.5694 70.6286 16.718 71.027C17.2658 72.5021 18.288 73.7088 19.593 74.4211C20.2145 74.766 20.5086 74.766 20.6999 73.8882C20.8581 73.1742 20.8375 72.7896 20.186 72.4171C19.5012 72.0273 19.0711 71.3116 18.7896 70.5079C18.7121 70.2958 18.7185 69.9405 18.2314 70.0664V70.0716ZM64.1136 75.6231C64.811 75.6231 66.1236 74.9868 66.9063 74.2917C68.0133 73.3035 68.0133 73.3035 66.9063 72.3843C66.7769 72.2872 66.6533 72.1812 66.5363 72.067C66.2928 71.8065 66.1299 71.8755 65.9037 72.1342C65.4294 72.7147 64.7921 73.1077 64.0915 73.2518C63.7325 73.319 63.5475 73.4984 63.606 73.9416C63.6458 74.3425 63.6648 74.7456 63.6629 75.1489C63.6708 75.4817 63.7626 75.7094 64.1136 75.6231ZM22.8396 74.9436C24.2854 74.7265 25.602 73.9198 26.5242 72.6861C26.7867 72.3412 26.8262 72.0256 26.4293 71.9066C26.0324 71.7876 25.8584 70.7528 25.2733 71.5616C24.7732 72.2739 24.069 72.7832 23.2728 73.0086C22.207 73.3208 22.2276 73.3104 22.3335 74.509C22.373 74.9316 22.5233 74.9988 22.8396 74.9436ZM22.207 71.3978C22.0947 72.0152 22.3525 72.1359 22.8648 72.0204C23.4127 71.9095 23.9123 71.6068 24.2881 71.1581C24.4794 70.9287 24.9428 70.6804 24.4842 70.2768C24.1679 70.0043 23.8516 69.4783 23.4531 70.2216C23.3678 70.3686 23.2516 70.4913 23.1141 70.5795C22.9765 70.6677 22.8217 70.7188 22.6624 70.7286C22.207 70.7666 22.1184 70.9908 22.207 71.3978ZM62.9371 70.9822C62.6208 70.6855 62.4152 70.1612 61.9661 70.1975C61.6498 70.2233 61.1216 70.1543 61.0173 70.6614C60.9414 71.0287 62.1242 72.2136 62.45 72.098C62.8722 71.9445 62.6904 71.3754 62.9323 70.9822H62.9371ZM21.1475 71.7927C21.5238 71.0701 21.4416 70.5096 20.9498 69.8715C20.545 69.3541 20.186 69.5835 19.8586 69.7473C19.3747 69.9905 19.8254 70.3234 19.9282 70.5614C20.1811 71.1202 20.6133 71.5584 21.1427 71.7927H21.1475ZM63.4653 71.4582C63.5823 71.6824 63.2597 72.2308 63.8796 72.1946C64.335 72.167 65.3961 71.403 65.2854 71.1495C65.1273 70.7666 64.7572 70.532 64.4141 70.3613C64.1816 70.2458 63.4573 71.0908 63.4605 71.4582H63.4653ZM65.8531 69.4679C65.793 68.8609 65.8089 68.14 65.2048 67.9158C65.0039 67.8399 64.4552 68.3125 64.4141 68.804C64.3651 69.4645 64.9407 70.0698 65.5432 70.0802C66.0113 70.0905 65.7646 69.6835 65.8531 69.4679Z" fill="#0F4B46"/>
<path d="M52.5212 35.9014C53.9966 36.1014 55.1257 36.7809 56.1378 37.7174C57.6101 39.0764 58.6554 40.7959 59.5109 42.6515C61.5525 47.0735 62.593 51.8248 63.3805 56.6607C63.4406 57.0263 63.2967 57.1867 63.0643 57.3505C60.3206 59.4304 58.3201 62.1915 56.8067 65.4131C56.2992 66.4528 55.6825 67.4245 54.9692 68.3088C54.101 69.4177 53.0256 69.992 51.6593 69.9817C48.1566 69.9541 44.6554 69.9817 41.1526 69.9679C38.8992 69.9679 37.0126 69.0469 35.5166 67.1929C35.2288 66.8359 35.1829 66.6756 35.6747 66.4376C36.7437 65.9202 37.1391 64.8854 37.0394 63.6782C36.9809 62.9659 37.2118 62.9021 37.7606 62.9038C43.2116 62.9142 48.6626 62.8952 54.1136 62.8848C54.9557 62.8882 55.7934 62.7522 56.598 62.4813C58.1177 61.9639 58.9258 60.8084 59.0381 59.0717C59.1503 57.335 58.7123 55.7156 58.5257 54.041C58.2474 51.5385 58.0323 49.024 57.5168 46.5578C56.7719 42.993 55.0862 39.9335 53.2059 36.9775C53.0051 36.6671 52.8011 36.3446 52.5212 35.9014Z" fill="#0F4B46"/>
<path d="M24.6424 61.8127C21.1634 61.8127 17.6954 61.8127 14.2211 61.8127C13.7562 61.8127 13.5031 61.7938 13.802 61.1833C15.9653 56.7579 19.0601 53.5501 23.6303 52.329C29.3691 50.7958 34.5102 54.3848 35.5903 61.2867C35.6963 61.9645 35.2946 61.8041 34.9862 61.8041C31.5388 61.8133 28.0909 61.8162 24.6424 61.8127ZM16.8715 59.362C16.8715 59.2241 16.949 59.1792 17.0502 59.1516C17.0075 58.9964 17.3364 58.8999 17.1071 58.7153C17.3696 58.9016 17.4613 58.6032 17.5815 58.4859C19.4286 56.6889 21.535 55.4489 23.9877 55.0056C27.443 54.3796 30.4856 55.0833 32.7169 58.3117C32.8118 58.448 32.8893 58.6153 33.0917 58.5187C33.1091 58.4652 33.1471 58.4083 33.1376 58.3618C33.1154 58.2516 33.0792 58.1454 33.03 58.0462C31.9784 55.9576 30.4302 54.5124 28.3033 53.9226C24.4463 52.8516 19.5883 54.966 17.1308 58.7291C16.9838 58.8464 16.7861 58.9533 17.0533 59.1568C16.9932 59.1361 16.9126 59.0809 16.8778 59.1051C16.7734 59.1792 16.8209 59.2775 16.8778 59.3741L16.7402 59.2224L16.6975 59.2948L16.8715 59.362Z" fill="#0F4B46"/>
<path d="M32.231 15.4148C30.5567 15.3707 28.894 15.099 27.2813 14.606C26.995 14.5433 26.7375 14.3745 26.5523 14.1283C23.8117 10.0944 23.7596 5.08778 27.5375 1.7834C30.588 -0.88459 35.6326 -0.518972 38.3874 2.61122C38.7036 2.96649 38.634 3.07687 38.2387 3.23381C37.5967 3.48733 36.9736 3.80466 36.3537 4.10992C33.844 5.3344 33.776 7.70232 34.7502 9.68046C35.1327 10.4364 35.4104 11.2501 35.5741 12.0949C35.9283 14.0144 35.1597 15.1544 33.368 15.3338C32.9221 15.3717 32.4746 15.3959 32.231 15.4148ZM34.5082 12.9538C34.5077 12.5485 34.3636 12.1591 34.1061 11.867C33.8485 11.5749 33.4974 11.4026 33.1261 11.3861C32.7675 11.3989 32.4261 11.5565 32.1681 11.8283C31.9101 12.1002 31.7538 12.4669 31.7297 12.8572C31.7283 13.0579 31.7631 13.257 31.8323 13.443C31.9015 13.629 32.0037 13.7983 32.1329 13.9412C32.2622 14.0841 32.416 14.1978 32.5856 14.2758C32.7552 14.3537 32.9373 14.3945 33.1213 14.3956C33.4798 14.4021 33.8263 14.2545 34.0858 13.9847C34.3453 13.7149 34.497 13.3446 34.5082 12.9538Z" fill="#C6A24C"/>
<path d="M22.7191 62.9042H34.9558C35.4524 62.9042 35.9885 62.7835 36.077 63.5941C36.1656 64.4046 35.7465 65.2997 35.1282 65.4618C34.8679 65.5178 34.6026 65.5403 34.3375 65.5291C26.575 65.5291 18.8115 65.5291 11.0469 65.5291C9.89882 65.5291 9.3738 64.9513 9.37697 63.7855C9.37697 63.056 9.70431 62.887 10.3258 62.8887C14.4579 62.9163 18.5869 62.9042 22.7191 62.9042Z" fill="#0F4B46"/>
<path d="M19.6387 41.9118C19.1247 42.0015 18.5918 41.8652 18.0873 42.0653C17.7046 41.2444 17.518 40.3407 17.2713 39.4784C17.129 38.9748 16.9424 38.7281 16.4063 38.7368C14.2746 38.773 12.1366 38.7713 10.0128 38.7471C9.43085 38.7471 9.27587 38.8575 9.49885 39.5163C10.3006 41.879 11.0518 44.2642 11.8219 46.6407L10.0476 46.6114C9.25689 44.178 8.4662 41.748 7.69607 39.3059C7.55849 38.8644 7.34342 38.7402 6.94808 38.7454C5.52483 38.7644 4.10159 38.7454 2.67835 38.7592C2.21184 38.7592 1.69473 38.7592 1.67259 38.0952C1.65045 37.4312 2.147 37.3691 2.62142 37.3691C9.15253 37.3691 15.6826 37.3691 22.2116 37.3691C22.7066 37.3691 23.1604 37.4778 23.1367 38.1331C23.113 38.7885 22.6354 38.7592 22.2068 38.7592C21.2849 38.7592 20.3629 38.7851 19.4426 38.7488C18.9017 38.7281 18.8179 38.9213 18.9824 39.449C19.2338 40.2544 19.4236 41.0874 19.6387 41.9118Z" fill="#C6A24C"/>
<path d="M73.0193 61.083C67.7876 60.5174 62.5395 61.9692 58.1875 65.1858C58.7819 63.846 59.5318 62.5952 60.4188 61.4641C61.5037 60.043 62.8194 58.8961 64.2047 57.8424C64.3897 57.6796 64.62 57.5902 64.8578 57.5889C67.6568 57.6854 70.2503 58.4512 72.4864 60.3776C72.7014 60.5638 72.9766 60.7225 73.0193 61.083Z" fill="#0F4B46"/>
<path d="M10.0472 46.6113L11.8215 46.6389C11.8389 46.9838 11.8611 47.3288 11.8706 47.6651C11.9133 49.1793 11.7757 50.697 11.9702 52.2077C11.3708 52.2077 10.7699 52.2077 10.169 52.2077C9.45105 52.2077 9.10789 51.7472 9.07942 51.0419C9.0383 49.9916 9.06203 48.9361 9.07942 47.8824C9.08891 47.1908 9.46844 46.8062 10.0472 46.6113Z" fill="#0F4B46"/>
<path d="M11.9787 52.2117C11.7842 50.7009 11.9218 49.1832 11.8791 47.669C11.8696 47.3241 11.8475 46.9792 11.8301 46.6429C12.2618 46.0789 12.809 45.9409 13.4526 46.0789C13.81 46.1548 14.1784 46.1755 14.5406 46.222C14.3666 46.3014 14.0662 46.1306 14.1468 46.6273C14.3856 48.2157 14.2116 49.8231 14.2433 51.4218C14.2622 52.3376 13.5316 52.3496 12.994 52.5825L11.9787 52.2117Z" fill="#C6A24C"/>
<path d="M39.4149 39.3214C39.1794 39.4277 38.9387 39.5198 38.6938 39.5973C38.4282 39.6646 38.1245 40.2096 37.9142 39.7422C37.7244 39.3231 37.3892 38.7523 37.9711 38.2763C38.3902 37.9314 38.7618 37.5312 39.1619 37.1553C39.2694 37.7321 39.2774 38.3257 39.1856 38.9058C39.1556 39.1541 39.1935 39.2766 39.4149 39.3214Z" fill="#C6A24C"/>
<path d="M8.77748 34.5787C8.74269 35.0685 8.40111 35.2151 8.13227 35.2478C7.74009 35.2961 7.75907 34.8529 7.74168 34.5752C7.72112 34.2493 7.92195 34.0578 8.2319 34.0578C8.29941 34.0512 8.36744 34.0596 8.43188 34.0825C8.49632 34.1054 8.55584 34.1423 8.60683 34.191C8.65783 34.2397 8.69924 34.2991 8.72857 34.3658C8.7579 34.4324 8.77454 34.5048 8.77748 34.5787Z" fill="#C6A24C"/>
<path d="M17.7383 34.0527C18.0309 34.0683 18.2381 34.2252 18.2555 34.5701C18.2744 34.9513 18.0799 35.1617 17.7289 35.1599C17.4126 35.1599 17.2544 34.953 17.2544 34.6132C17.2462 34.5403 17.2527 34.4663 17.2737 34.3964C17.2947 34.3265 17.3295 34.2626 17.3757 34.209C17.4219 34.1555 17.4783 34.1138 17.541 34.0868C17.6037 34.0597 17.6711 34.0481 17.7383 34.0527Z" fill="#C6A24C"/>
<path d="M58.0504 66.8039C58.071 66.7879 58.0927 66.7735 58.1152 66.7607C58.1247 66.7607 58.1405 66.7728 58.1532 66.778H58.0361L58.0504 66.8039Z" fill="#0F4B46"/>
<path d="M24.9536 68.119C24.9441 68.0448 24.9014 67.9327 24.9315 67.9034C25.0058 67.8275 25.0469 67.9206 25.0896 67.9862L24.9536 68.119Z" fill="#0F4B46"/>
<path d="M28.333 22.0392C28.333 21.1768 28.4042 20.3145 28.7331 19.516C29.3957 17.8983 30.7573 17.6448 31.8611 18.9383C32.8099 20.0507 33.1942 21.4562 33.4978 22.8842C33.6797 23.7465 33.7556 24.6347 33.8916 25.5091C33.9564 25.9213 33.8014 26.1351 33.4598 26.2904C32.3197 26.8077 31.1827 27.3251 30.0599 27.8908C29.6693 28.084 29.5016 27.9926 29.3688 27.5666C28.8106 25.7695 28.3536 23.9535 28.333 22.0392Z" fill="#C6A24C"/>
<path d="M37.4258 39.7304C37.5239 40.2374 37.3151 40.3358 37.1238 40.4203C36.6858 40.6031 36.2414 40.7652 35.7954 40.9376C35.6104 41.0032 35.3938 41.1412 35.3036 40.7755C35.2372 40.5048 35.2151 40.2909 35.4871 40.1271C35.8508 39.9063 36.1876 39.6287 36.5561 39.4183C36.768 39.2975 36.9751 38.925 37.2218 39.1561C37.3879 39.3044 37.4037 39.658 37.4258 39.7304Z" fill="#C6A24C"/>
<path d="M32.376 41.7413C33.018 41.4274 33.6569 41.1067 34.3037 40.8049C34.4919 40.7169 34.7338 40.4599 34.8667 40.8859C34.9884 41.2826 34.6848 41.2998 34.4745 41.3636C33.7866 41.5706 33.1176 41.8741 32.376 41.7413Z" fill="#C6A24C"/>
<path d="M33.1188 13.7937C32.6222 13.7523 32.3202 13.4488 32.3107 12.9314C32.3028 12.3709 32.627 11.9984 33.1377 12.007C33.6485 12.0156 33.9632 12.3761 33.9284 12.9555C33.9095 13.4867 33.6058 13.7713 33.1188 13.7937Z" fill="#C6A24C"/>
</svg>
