<svg width="31" height="30" viewBox="0 0 31 30" fill="none" xmlns="http://www.w3.org/2000/svg">
<path fill-rule="evenodd" clip-rule="evenodd" d="M10.6667 23.6023C10.6671 22.7855 10.4365 21.9853 10.0015 21.2939C9.56648 20.6026 8.94485 20.0484 8.20833 19.6952C7.47182 19.3421 6.65045 19.2045 5.83905 19.2982C5.02764 19.3919 4.25929 19.7132 3.62269 20.225C3.11395 20.6281 2.70352 21.1417 2.42241 21.7268C2.14129 22.3119 1.99686 22.9532 2.00002 23.6023C1.99805 24.3863 2.2141 25.1554 2.62402 25.8237C3.00292 26.4699 3.54507 27.0053 4.19611 27.376C4.84715 27.7466 5.5842 27.9397 6.33336 27.9357C7.37992 27.9403 8.39097 27.5564 9.17069 26.8583C9.51334 26.5722 9.80385 26.2289 10.0294 25.8437C10.447 25.1707 10.6677 24.3943 10.6667 23.6023ZM5.60136 23.529L7.73469 21.5543V21.5557C7.82979 21.4602 7.94319 21.385 8.06809 21.3345C8.19299 21.284 8.3268 21.2592 8.4615 21.2617C8.5962 21.2642 8.72901 21.2939 8.85196 21.349C8.9749 21.4041 9.08545 21.4834 9.17696 21.5823C9.26846 21.6812 9.33905 21.7975 9.38447 21.9244C9.42989 22.0512 9.44922 22.1859 9.44129 22.3204C9.43336 22.4549 9.39833 22.5864 9.33831 22.707C9.27829 22.8276 9.19452 22.9349 9.09202 23.0223L6.25202 25.6503C6.06234 25.8258 5.81204 25.9209 5.55371 25.9157C5.29538 25.9104 5.04913 25.8053 4.86669 25.6223L3.55336 24.309C3.4578 24.2168 3.38157 24.1065 3.3291 23.9845C3.27664 23.8625 3.24899 23.7313 3.24778 23.5985C3.24656 23.4658 3.2718 23.3341 3.32202 23.2111C3.37225 23.0882 3.44645 22.9765 3.54029 22.8826C3.63414 22.7887 3.74576 22.7144 3.86863 22.664C3.9915 22.6137 4.12317 22.5883 4.25595 22.5894C4.38873 22.5905 4.51996 22.618 4.64199 22.6704C4.76402 22.7227 4.8744 22.7989 4.96669 22.8943L5.60136 23.529Z" fill="#0F4B46"/>
<path fill-rule="evenodd" clip-rule="evenodd" d="M19.0405 14.9761C19.228 14.7886 19.3334 14.5342 19.3334 14.269C19.3334 14.0038 19.228 13.7494 19.0405 13.5619C18.8529 13.3743 18.5986 13.269 18.3334 13.269H9.00002C8.73481 13.269 8.48045 13.3743 8.29292 13.5619C8.10538 13.7494 8.00002 14.0038 8.00002 14.269C8.00002 14.5342 8.10538 14.7886 8.29292 14.9761C8.48045 15.1636 8.73481 15.269 9.00002 15.269H18.3334C18.5986 15.269 18.8529 15.1636 19.0405 14.9761ZM30.7467 19.6423V16.8943C30.7474 16.437 30.6142 15.9896 30.3635 15.6072C30.1128 15.2247 29.7556 14.9241 29.336 14.7423V13.6156C29.3343 12.0214 28.7001 10.4929 27.5728 9.36553C26.4455 8.23819 24.917 7.60408 23.3227 7.60232H20.4694V3.53432C20.4693 2.96259 20.3306 2.3994 20.065 1.89307C19.7995 1.38674 19.4151 0.952379 18.9448 0.627238C18.4746 0.302097 17.9324 0.0958842 17.365 0.0262873C16.7975 -0.0433095 16.2216 0.0257869 15.6867 0.22765L5.10669 4.22765C4.19579 4.57466 3.41138 5.18948 2.8568 5.99111C2.30223 6.79273 2.00352 7.74356 2.00002 8.71832V18.9957C1.36701 19.5841 0.862559 20.2971 0.518373 21.0899C0.174186 21.8827 -0.00229471 22.7381 2.25266e-05 23.6023C-0.00150257 24.7524 0.317046 25.8803 0.920023 26.8596C1.48122 27.7962 2.27514 28.5716 3.22463 29.1106C4.17411 29.6496 5.24688 29.9338 6.33869 29.9357C7.73017 29.9332 9.08054 29.4637 10.1734 28.6023H23.32C24.9142 28.6002 26.4425 27.966 27.5698 26.8387C28.697 25.7115 29.3312 24.1832 29.3334 22.589V21.7997C29.7537 21.6171 30.1114 21.3156 30.3625 20.9323C30.6136 20.549 30.7472 20.1006 30.7467 19.6423ZM8.01336 7.60232C6.52697 7.60685 5.0958 8.166 4.00002 9.17032V8.71832C4.00339 8.15084 4.17805 7.5976 4.50113 7.13106C4.82421 6.66451 5.28066 6.30641 5.81069 6.10365L16.3907 2.10365C16.6228 2.01581 16.8728 1.98563 17.1192 2.01571C17.3655 2.04579 17.6009 2.13522 17.8051 2.27632C18.0093 2.41742 18.1762 2.60598 18.2914 2.8258C18.4066 3.04562 18.4668 3.29012 18.4667 3.53832V7.60232H8.01336ZM10.0015 21.2939C10.4365 21.9853 10.6671 22.7855 10.6667 23.6023C10.6677 24.3943 10.447 25.1707 10.0294 25.8437C9.80385 26.2289 9.51334 26.5722 9.17069 26.8583C8.39097 27.5564 7.37992 27.9403 6.33336 27.9357C5.5842 27.9397 4.84715 27.7466 4.19611 27.376C3.54507 27.0053 3.00292 26.4699 2.62402 25.8237C2.2141 25.1554 1.99805 24.3863 2.00002 23.6023C1.99686 22.9532 2.14129 22.3119 2.42241 21.7268C2.70352 21.1417 3.11395 20.6281 3.62269 20.225C4.25929 19.7132 5.02764 19.3919 5.83905 19.2982C6.65045 19.2045 7.47182 19.3421 8.20833 19.6952C8.94485 20.0484 9.56648 20.6026 10.0015 21.2939ZM25.8 22.0023H27.3334V22.5917C27.3319 23.6556 26.9087 24.6756 26.1563 25.4279C25.404 26.1803 24.384 26.6036 23.32 26.605H11.9067C11.9367 26.5504 11.9607 26.4959 11.9855 26.4394C12.0025 26.4006 12.0199 26.3609 12.04 26.3197C12.0466 26.3061 12.0533 26.2925 12.0599 26.2789C12.1028 26.1911 12.1459 26.1029 12.184 26.0117C12.248 25.8596 12.3 25.7037 12.3507 25.5477C12.3618 25.513 12.3735 25.4785 12.3852 25.444C12.4086 25.3749 12.432 25.3059 12.4507 25.2357C12.4987 25.0597 12.5307 24.881 12.5627 24.7023C12.5679 24.675 12.5738 24.6472 12.5798 24.6188C12.5923 24.5599 12.6053 24.4987 12.6134 24.4357C12.6512 24.1622 12.6704 23.8864 12.6707 23.6103C12.6755 22.6813 12.4749 21.7628 12.0831 20.9204C11.6914 20.078 11.1182 19.3327 10.4046 18.7378C9.69111 18.1429 8.85486 17.7131 7.95577 17.4792C7.05668 17.2453 6.117 17.2132 5.20402 17.385C5.13023 17.3989 5.05846 17.4194 4.98653 17.4399C4.94149 17.4528 4.89639 17.4657 4.85069 17.477C4.59991 17.5346 4.3528 17.6072 4.11069 17.6943C4.09397 17.7005 4.07668 17.705 4.05934 17.7095C4.03935 17.7146 4.01931 17.7198 4.00002 17.7276V13.6236C4.00108 12.5596 4.42425 11.5394 5.17667 10.787C5.92909 10.0345 6.94928 9.61138 8.01336 9.61032H23.32C24.3841 9.61138 25.4043 10.0345 26.1567 10.787C26.9091 11.5394 27.3323 12.5596 27.3334 13.6236V14.5436H25.64C25.1531 14.5394 24.6704 14.6332 24.2205 14.8195C23.7706 15.0057 23.3628 15.2805 23.0214 15.6277H23.012C22.8756 15.7701 22.7512 15.9235 22.64 16.0863C22.6203 16.113 22.598 16.138 22.5757 16.163C22.5468 16.1953 22.518 16.2275 22.4947 16.2636C22.412 16.4039 22.339 16.5495 22.276 16.6996C22.2584 16.7363 22.2388 16.7722 22.2191 16.8081C22.1866 16.8676 22.154 16.9271 22.1307 16.9903C22.0868 17.1307 22.0516 17.2736 22.0254 17.4183C21.9899 17.5358 21.9606 17.6551 21.9374 17.7757C21.9024 18.0463 21.8975 18.3199 21.9227 18.5917C22.029 19.5406 22.4852 20.4158 23.2021 21.0464C23.9191 21.6771 24.8453 22.0179 25.8 22.0023ZM28.6357 16.6401C28.7044 16.7071 28.7443 16.7983 28.7467 16.8943L28.7507 19.6423C28.7503 19.7332 28.7159 19.8206 28.6541 19.8872C28.5924 19.9539 28.5079 19.995 28.4174 20.0023H25.804C25.3497 20.0142 24.9068 19.8589 24.5593 19.566C24.2118 19.2731 23.9838 18.8628 23.9187 18.413C23.8958 18.1585 23.9308 17.9022 24.021 17.6632C24.1113 17.4242 24.2546 17.2087 24.44 17.033C24.5965 16.8739 24.7834 16.7479 24.9895 16.6625C25.1957 16.5771 25.4169 16.5339 25.64 16.5357H28.3787C28.4747 16.5356 28.5669 16.5731 28.6357 16.6401Z" fill="#0F4B46"/>
</svg>
