<svg width="31" height="29" viewBox="0 0 31 29" fill="none" xmlns="http://www.w3.org/2000/svg">
<path d="M17.8235 17.1045C17.544 17.065 17.2595 17.045 16.978 17.045C15.231 17.045 13.632 17.7955 12.5265 19.0265C11.093 18.0285 9.95652 16.727 9.23501 15.2595C10.749 14.357 11.836 12.803 12.0985 10.956C12.3375 9.271 11.861 7.5505 10.7915 6.236C9.78652 4.9995 8.38102 4.2645 6.83402 4.164C6.62402 4.1505 6.41602 4.1435 6.21502 4.1435C3.32252 4.144 1.83202 5.539 1.09152 6.71C0.383015 7.829 0.0370151 9.203 0.00251511 11.0335C-0.0734849 15.0815 1.57602 19.4545 4.52852 23.032C7.38952 26.4975 11.0355 28.68 14.282 28.8695L14.3865 28.8765C14.636 28.8935 15.053 28.9215 15.577 28.9215C21.445 28.9215 22.6575 25.4315 22.9065 23.931C23.1665 22.3705 22.7885 20.8 21.842 19.51C20.8875 18.2075 19.423 17.331 17.8235 17.1045ZM20.6455 23.5545C20.197 26.261 17.2955 26.628 15.577 26.628C15.033 26.628 14.607 26.5915 14.4155 26.58C9.07051 26.268 2.15051 18.705 2.29401 11.076C2.33552 8.8865 2.90302 6.4355 6.21452 6.435C6.36602 6.435 6.52302 6.4405 6.68602 6.4505C8.72552 6.5825 10.1155 8.6095 9.82902 10.632C9.57352 12.4305 8.06552 13.739 6.31102 13.806C7.10002 17.3875 9.73902 20.496 13.3955 22.1395C13.804 20.492 15.2915 19.337 16.978 19.337C17.1515 19.337 17.3255 19.349 17.5025 19.374C19.526 19.6605 20.98 21.542 20.6455 23.5545ZM22.2975 0C17.491 0 13.5945 2.8315 13.5945 6.323C13.5945 8.7285 15.4445 10.8205 18.168 11.8885C18.2535 12.22 18.318 12.669 18.2475 13.1605C18.1745 13.673 18.3795 13.9935 18.8875 13.8985C19.9055 13.7075 21.521 13.3165 22.4425 12.6425C27.1805 12.585 31 9.778 31 6.323C31 2.8315 27.103 0 22.2975 0ZM22.059 2.42C22.215 2.2585 22.409 2.1775 22.641 2.1775C22.887 2.1775 23.089 2.2555 23.2475 2.412C23.406 2.5685 23.4845 2.7655 23.4845 3.005C23.4845 3.255 23.407 3.4595 23.2505 3.6195C23.094 3.779 22.8945 3.859 22.652 3.859C22.4165 3.859 22.22 3.78 22.062 3.6215C21.9045 3.464 21.8245 3.265 21.8245 3.0265C21.8245 2.7835 21.9035 2.5815 22.059 2.42ZM24.108 10.3545H21.1465V9.847L21.759 9.803L21.919 9.6315V5.7335H21.1745V5.2815L22.763 4.752H23.3085V9.6315L23.474 9.803L24.1085 9.847L24.108 10.3545Z" fill="#0F4B46"/>
</svg>
