<svg width="23" height="32" viewBox="0 0 23 32" fill="none" xmlns="http://www.w3.org/2000/svg">
<path d="M14.5136 0.786761C14.4531 0.742063 14.3918 0.69856 14.3302 0.655308C14.217 0.575782 14.3572 0.662475 14.2533 0.601431C14.175 0.555539 14.1004 0.520459 14.0143 0.490724C13.8419 0.431315 13.6653 0.381902 13.489 0.335569C13.0716 0.22593 12.6438 0.15948 12.2161 0.104535C11.3201 -0.010636 10.4122 -0.0306275 9.51193 0.0444978C7.44514 0.21694 5.40374 0.860252 3.74545 2.13355C1.72033 3.68855 0.550327 6.01743 0.164138 8.51524C-0.430829 12.3635 0.650347 16.2372 2.45952 19.6246C4.11227 22.719 6.43883 25.4612 9.2086 27.6119C9.57209 27.8941 9.94012 28.1688 10.3215 28.4265C10.5904 28.6083 10.9872 28.4781 11.1434 28.211C11.3208 27.9078 11.1916 27.5798 10.9279 27.3891C8.20192 25.4173 5.85801 23.002 4.10838 20.118C2.24401 17.045 0.885154 13.4116 1.15353 9.76974C1.32868 7.39245 2.18567 5.08016 3.92015 3.46468C5.30083 2.17869 7.10163 1.46138 9.0146 1.16918C9.20992 1.13932 9.43618 1.11241 9.70531 1.08946C9.95916 1.06784 10.2137 1.05376 10.4684 1.04715C10.9532 1.03458 11.4387 1.04891 11.9218 1.09166C12.167 1.11335 12.3593 1.13705 12.5097 1.15987C12.7207 1.19181 12.9304 1.23135 13.1398 1.27228C13.3349 1.31044 13.5269 1.35872 13.7203 1.40455C13.9234 1.45271 14.1221 1.45038 14.33 1.46528C14.7274 1.49376 14.774 0.978881 14.5136 0.786761Z" fill="#0F4B46"/>
<path d="M10.5304 0.88384C11.0677 0.906157 11.6169 1.01705 12.151 1.09124C12.6655 1.16271 13.1749 1.28097 13.6713 1.43329C14.6957 1.74762 15.6765 2.22535 16.5685 2.81836C18.3823 4.02427 19.7741 5.82596 20.4309 7.90614C22.0102 12.9081 19.7829 18.0393 16.661 21.9292C15.8105 22.9889 14.9211 24.0161 13.9323 24.9497C13.4171 25.436 12.8819 25.9018 12.3316 26.3479C12.0541 26.5727 11.7714 26.7905 11.4835 27.0018C11.1802 27.2244 10.8504 27.3947 10.5451 27.6146C9.9832 28.0194 10.4876 28.9424 11.0992 28.5625C11.3919 28.3807 11.6374 28.158 11.9124 27.9542C12.2124 27.7318 12.5121 27.5098 12.8061 27.2792C13.325 26.8722 13.8253 26.4437 14.3074 25.9938C15.2459 25.118 16.1438 24.1795 16.9639 23.1917C18.6857 21.118 20.184 18.8543 21.0937 16.3028C22.0041 13.7496 22.3184 10.9537 21.687 8.29353C21.1155 5.88555 19.7314 3.80386 17.7721 2.30424C16.7318 1.50804 15.5585 0.905591 14.2979 0.544487C13.667 0.363809 13.0195 0.245306 12.3667 0.180365C12.0618 0.150063 11.756 0.124854 11.4508 0.152578C11.1158 0.183005 10.7858 0.260205 10.4534 0.315087C10.1191 0.370284 10.2185 0.870889 10.5304 0.88384Z" fill="#0F4B46"/>
<path d="M3.98193 7.39672C4.34377 6.88356 4.74524 6.39841 5.18522 5.953C5.9045 5.22486 6.72671 4.60293 7.64698 4.13848C9.15395 3.37786 10.8093 3.14419 12.4671 3.46594C14.1364 3.78989 15.6851 4.62224 16.7742 5.94105C17.8167 7.20341 18.3934 8.86302 18.3706 10.498C18.3216 14.0125 15.3924 16.8781 12.0424 17.4676C10.4714 17.744 8.80617 17.5218 7.39595 16.7674C6.0491 16.0469 4.81686 14.8538 4.13954 13.4742C2.94641 11.0439 3.46861 8.00394 5.18522 5.953C5.41906 5.67362 5.67506 5.41259 5.95191 5.17396C6.22676 4.93701 6.52708 4.72647 6.83644 4.53712C7.25299 4.28213 6.88566 3.65844 6.45472 3.884C4.97088 4.66078 3.92007 6.12682 3.31611 7.65712C2.6943 9.23255 2.49627 11.0116 2.94866 12.6569C3.41651 14.3585 4.43658 15.8529 5.84189 16.9127C7.27707 17.9951 9.08435 18.5782 10.8829 18.5152C14.6653 18.3827 18.3663 15.7099 19.1715 11.915C19.5605 10.0814 19.2307 8.14282 18.3229 6.50936C17.3961 4.8419 15.8584 3.60362 14.0822 2.93686C10.618 1.63634 6.30208 2.91108 4.17116 5.96576C3.91529 6.33252 3.6957 6.71399 3.50697 7.11904C3.35723 7.44048 3.7768 7.68773 3.98193 7.39672Z" fill="#0F4B46"/>
<path d="M7.64698 4.13848C6.72671 4.60293 5.9045 5.22486 5.18522 5.953C3.46861 8.00394 2.94641 11.0439 4.13954 13.4742C4.81686 14.8538 6.0491 16.0469 7.39595 16.7674C8.80617 17.5218 10.4714 17.744 12.0424 17.4676C15.3924 16.8781 18.3216 14.0125 18.3706 10.498C18.3934 8.86302 17.8167 7.20341 16.7742 5.94105C15.6851 4.62224 14.1364 3.78989 12.4671 3.46594C10.8093 3.14419 9.15395 3.37786 7.64698 4.13848Z" fill="#0F4B46"/>
<path d="M6.1549 23.7233C5.40867 23.8188 4.68879 24.135 3.9994 24.4302C3.32616 24.7186 2.66726 25.0326 2.03394 25.4011C1.67868 25.6079 1.70785 26.0984 2.03394 26.3115C4.33064 27.8127 6.50424 29.5092 8.89757 30.8591C9.48197 31.1888 10.0777 31.5006 10.6845 31.7869C10.8447 31.8624 11.025 31.9713 11.2009 31.9951C11.4214 32.0249 11.569 31.9242 11.738 31.8059C12.0167 31.6108 12.2955 31.4156 12.5759 31.2228C13.7072 30.4453 14.8758 29.7274 16.0426 29.005C17.3332 28.2061 18.6086 27.3901 19.8252 26.4809C20.0499 26.313 20.1708 25.961 19.9205 25.7416C18.7929 24.7532 17.5355 23.8965 16.3333 23.0025C15.896 22.6774 15.3187 23.4175 15.7465 23.7631C16.8861 24.684 18.1913 25.3929 19.2547 26.4073C19.2865 26.1609 19.3182 25.9144 19.35 25.668C16.6314 27.527 13.658 29.0084 10.9881 30.9382C11.1808 30.9382 11.3734 30.9382 11.5661 30.9382C8.33831 29.5065 5.51944 27.3032 2.56611 25.4011C2.56611 25.7046 2.56611 26.0081 2.56611 26.3115C3.18358 25.9465 3.82576 25.6401 4.4797 25.3473C5.14086 25.0512 5.85119 24.7605 6.37021 24.2431C6.53976 24.0741 6.42849 23.6883 6.1549 23.7233Z" fill="#0F4B46"/>
<path d="M14.4695 11.5444C14.5079 10.4467 14.182 9.3393 13.5552 8.43736C13.2345 7.97598 12.816 7.55409 12.2828 7.37687C11.9515 7.26672 11.5954 7.25742 11.2467 7.27402C10.3624 7.31614 9.44761 7.53944 8.78689 8.12856C8.29288 8.56913 7.97811 9.18409 7.80711 9.82356C7.63612 10.463 7.59972 11.1304 7.5918 11.7923C8.79801 11.5271 10.0448 11.5499 11.2795 11.5796C12.3673 11.6058 13.3817 11.5182 14.4695 11.5444Z" fill="#E0F2F1"/>
<path d="M7.99694 11.64C8.07451 11.1952 8.0114 10.7478 8.115 10.3007C8.21867 9.85323 8.3957 9.45039 8.65772 9.07319C9.17222 8.33256 10.0209 7.88834 10.9182 7.84918C11.8372 7.80907 12.7112 8.16439 13.3071 8.87189C13.8809 9.55298 14.0962 10.4642 14.041 11.3379C14.0075 11.8693 14.864 11.9895 14.9749 11.4643C15.3661 9.61277 14.1998 7.71119 12.442 7.08233C10.6981 6.45839 8.60812 7.13986 7.67996 8.76847C7.42932 9.20829 7.25078 9.70141 7.18627 10.2042C7.12555 10.6778 7.10373 11.3045 7.37041 11.7218C7.51507 11.9484 7.94319 11.9485 7.99694 11.64Z" fill="#E0F2F1"/>
<path d="M5.78855 12.242C6.11885 12.4245 6.5806 12.4402 6.95296 12.4553C7.39252 12.4732 7.8319 12.472 8.27171 12.4729C9.12996 12.4748 9.98865 12.4434 10.8464 12.4165C11.6837 12.3904 12.5209 12.363 13.3584 12.341C14.2279 12.3181 15.1327 12.3641 15.9959 12.2598C16.7047 12.1742 16.7359 11.1813 15.9959 11.1321C15.1492 11.0758 14.2697 11.1686 13.4212 11.1925C12.563 11.2165 11.7047 11.2353 10.8465 11.2551C10.0093 11.2744 9.17064 11.2878 8.33451 11.3351C7.89445 11.3599 7.45476 11.3827 7.01576 11.4225C6.62643 11.4578 6.12633 11.4845 5.78855 11.6958C5.59272 11.8183 5.57449 12.1238 5.78855 12.242Z" fill="#E0F2F1"/>
<path d="M11.2938 7.39044C11.2934 7.25584 11.2417 7.1384 11.2252 7.00783C11.233 7.06994 11.2255 6.89995 11.2257 6.91215C11.2267 6.89385 11.2277 6.87556 11.2288 6.85727C11.227 7.00601 11.1087 7.0778 10.8737 7.07271C10.8047 7.03247 10.7356 6.99218 10.6665 6.95194C10.6416 6.91762 10.6264 6.87921 10.621 6.83677C10.6061 6.75693 10.5998 6.74744 10.6024 6.80823C10.6037 6.79107 10.6049 6.7739 10.6061 6.75674C10.5978 6.78327 10.5895 6.80974 10.581 6.83621C10.5385 6.97929 10.5273 7.12476 10.5826 7.26697C10.6552 7.4533 10.8025 7.59525 11.0138 7.59525C11.2066 7.59525 11.3978 7.45695 11.445 7.26697C11.5031 7.03317 11.5811 6.81596 11.5117 6.57305C11.4188 6.24771 11.0735 6.06817 10.7534 6.16655C10.4287 6.26632 10.2911 6.59756 10.294 6.91215C10.2964 7.17757 10.3587 7.50844 10.5645 7.69251C10.8335 7.93329 11.2947 7.77562 11.2938 7.39044Z" fill="#E0F2F1"/>
</svg>
