<svg id="Layer_1" data-name="Layer 1" xmlns="http://www.w3.org/2000/svg" viewBox="0 0 300 300"><defs><style>.cls-1{fill:#c5a24b;}</style></defs><path class="cls-1" d="M255.7,184.6V54A18.5,18.5,0,0,0,237.23,35.5H58.09A18.5,18.5,0,0,0,39.61,54V234.44A18.49,18.49,0,0,0,58.09,252.9H156a62.58,62.58,0,1,0,99.69-68.3ZM178.86,48.4v83L151,120.75a6.39,6.39,0,0,0-2.31-.43,6.3,6.3,0,0,0-2.3.43L118.57,131.4v-83Zm-126.35,186V54a5.58,5.58,0,0,1,5.58-5.58h47.58v92.37a6.45,6.45,0,0,0,8.75,6l34.29-13.12L183,146.79a6.39,6.39,0,0,0,2.31.43,6.45,6.45,0,0,0,6.44-6.45V48.4h45.48A5.58,5.58,0,0,1,242.8,54V176A61.92,61.92,0,0,0,215,169.46a62.67,62.67,0,0,0-62.59,62.6A63.8,63.8,0,0,0,153,240H58.09A5.58,5.58,0,0,1,52.51,234.44ZM215,281.76a49.69,49.69,0,0,1-48-36.95h0A49.77,49.77,0,0,1,215,182.36a49.21,49.21,0,0,1,30.29,10.29h0A49.7,49.7,0,0,1,215,281.76Z"/><path class="cls-1" d="M247.81,207.92a6.46,6.46,0,0,0-9.12-.16L204.4,239.85l-8.46-9.38a6.44,6.44,0,1,0-9.58,8.62l12.92,14.35a6.42,6.42,0,0,0,4.56,2.13h.23a6.46,6.46,0,0,0,4.48-1.8L247.64,217A6.45,6.45,0,0,0,247.81,207.92Z"/><path class="cls-1" d="M74.86,209.89h-6a6.45,6.45,0,0,0,0,12.89h6a6.45,6.45,0,1,0,0-12.89Z"/><path class="cls-1" d="M105.65,209.89h-6a6.45,6.45,0,1,0,0,12.89h6a6.45,6.45,0,0,0,0-12.89Z"/></svg>