<svg width="28" height="28" viewBox="0 0 28 28" fill="none" xmlns="http://www.w3.org/2000/svg">
<path fill-rule="evenodd" clip-rule="evenodd" d="M5.50664 17.2754H14.2293C14.552 17.2754 14.8199 17.5434 14.8199 17.866V18.8996C14.8199 19.2223 14.552 19.4902 14.2293 19.4902H5.50664C5.18398 19.4902 4.91602 19.2223 4.91602 18.8996V17.866C4.91602 17.5434 5.17852 17.2754 5.50664 17.2754Z" fill="#FCD346"/>
<mask id="mask0_185_15627" style="mask-type:luminance" maskUnits="userSpaceOnUse" x="4" y="17" width="11" height="3">
<path d="M5.50664 17.2754H14.2293C14.552 17.2754 14.8199 17.5434 14.8199 17.866V18.8996C14.8199 19.2223 14.552 19.4902 14.2293 19.4902H5.50664C5.18398 19.4902 4.91602 19.2223 4.91602 18.8996V17.866C4.91602 17.5434 5.17852 17.2754 5.50664 17.2754Z" fill="white"/>
</mask>
<g mask="url(#mask0_185_15627)">
<path fill-rule="evenodd" clip-rule="evenodd" d="M5.50664 18.3857H14.2293C14.552 18.3857 14.8199 18.6537 14.8199 18.9764V20.01C14.8199 20.3326 14.552 20.6006 14.2293 20.6006H5.50664C5.18398 20.6006 4.91602 20.3326 4.91602 20.01V18.9764C4.91602 18.6537 5.17852 18.3857 5.50664 18.3857Z" fill="#FBAD24"/>
</g>
<path fill-rule="evenodd" clip-rule="evenodd" d="M5.92227 19.4959H13.3215L13.9066 21.8201C14.1199 22.6568 14.8473 23.2311 15.7113 23.2311H19.3973C19.3973 20.3107 19.3973 17.3904 19.3973 14.4756H21.2566L23.9965 21.0982L23.5043 25.0686C18.041 25.0686 9.64648 25.0686 4.12305 25.0686V21.3006C4.12852 20.3053 4.93789 19.4959 5.92227 19.4959Z" fill="#EF4145"/>
<mask id="mask1_185_15627" style="mask-type:luminance" maskUnits="userSpaceOnUse" x="4" y="14" width="20" height="12">
<path d="M5.92227 19.4959H13.3215L13.9066 21.8201C14.1199 22.6568 14.8473 23.2311 15.7113 23.2311H19.3973C19.3973 20.3107 19.3973 17.3904 19.3973 14.4756H21.2566L23.9965 21.0982L23.5043 25.0686C18.041 25.0686 9.64648 25.0686 4.12305 25.0686V21.3006C4.12852 20.3053 4.93789 19.4959 5.92227 19.4959Z" fill="white"/>
</mask>
<g mask="url(#mask1_185_15627)">
<path fill-rule="evenodd" clip-rule="evenodd" d="M3.86074 19.4959H11.26L11.8451 21.8201C12.0584 22.6568 12.7857 23.2311 13.6498 23.2311H17.3357C17.3357 20.3107 17.3357 17.3904 17.3357 14.4756H19.1951L21.935 21.0982L21.4428 25.0686C15.9795 25.0686 7.58496 25.0686 2.06152 25.0686V21.3006C2.06152 20.3053 2.8709 19.4959 3.86074 19.4959Z" fill="#F04D4E"/>
</g>
<path fill-rule="evenodd" clip-rule="evenodd" d="M18.5996 12.2871H22.0996V14.4691H18.5996V12.2871Z" fill="#FBAD24"/>
<mask id="mask2_185_15627" style="mask-type:luminance" maskUnits="userSpaceOnUse" x="18" y="12" width="5" height="3">
<path d="M18.5996 12.2871H22.0996V14.4691H18.5996V12.2871Z" fill="white"/>
</mask>
<g mask="url(#mask2_185_15627)">
<path fill-rule="evenodd" clip-rule="evenodd" d="M18.7418 14.4695H20.0598C20.6613 14.4695 21.148 13.9773 21.148 13.3812C21.148 12.7797 20.6559 12.293 20.0598 12.293H18.7418C17.3035 12.3258 17.3035 14.4258 18.7418 14.4695Z" fill="#FCD346"/>
</g>
<path fill-rule="evenodd" clip-rule="evenodd" d="M22.652 14.4691H22.0996V12.2871H22.652C22.9582 12.2871 23.2043 12.5387 23.2043 12.8395V13.9113C23.2098 14.2176 22.9582 14.4691 22.652 14.4691Z" fill="#EFF0F8"/>
<path fill-rule="evenodd" clip-rule="evenodd" d="M8.16484 25.0632H4.12891C4.32578 19.7093 12.0148 19.7147 12.2117 25.0632H8.16484Z" fill="#FBAD24"/>
<mask id="mask3_185_15627" style="mask-type:luminance" maskUnits="userSpaceOnUse" x="4" y="21" width="9" height="5">
<path d="M8.16484 25.0632H4.12891C4.32578 19.7093 12.0148 19.7147 12.2117 25.0632H8.16484Z" fill="white"/>
</mask>
<g mask="url(#mask3_185_15627)">
<path fill-rule="evenodd" clip-rule="evenodd" d="M7.56328 25.0632H4.12891C4.29297 19.7093 10.8336 19.7147 10.9977 25.0632H7.56328Z" fill="#FCD346"/>
</g>
<path fill-rule="evenodd" clip-rule="evenodd" d="M6.87402 25.0625H5.28809C5.4084 28.8742 10.9373 28.8687 11.0521 25.0625H9.46621C9.41699 26.7688 6.9123 26.7688 6.87402 25.0625Z" fill="#53302E"/>
<path fill-rule="evenodd" clip-rule="evenodd" d="M23.4499 25.0961L19.9499 27.1141C17.4453 22.3781 24.1062 18.5391 26.9499 23.0781L23.4499 25.0961Z" fill="#FBAD24"/>
<mask id="mask4_185_15627" style="mask-type:luminance" maskUnits="userSpaceOnUse" x="19" y="21" width="8" height="7">
<path d="M23.4499 25.0961L19.9499 27.1141C17.4453 22.3781 24.1062 18.5391 26.9499 23.0781L23.4499 25.0961Z" fill="white"/>
</mask>
<g mask="url(#mask4_185_15627)">
<path fill-rule="evenodd" clip-rule="evenodd" d="M22.794 25.4738L19.294 27.4918C16.7893 22.7559 23.4448 18.9168 26.294 23.4504L22.794 25.4738Z" fill="#FCD346"/>
</g>
<path fill-rule="evenodd" clip-rule="evenodd" d="M1.68965 9.91406H7.98965C8.34512 9.91406 8.62949 10.2039 8.62949 10.5539V17.275H1.68965C1.33418 17.275 1.0498 16.9852 1.0498 16.6352V10.5539C1.0498 10.2039 1.33965 9.91406 1.68965 9.91406Z" fill="#EF4145"/>
<mask id="mask5_185_15627" style="mask-type:luminance" maskUnits="userSpaceOnUse" x="1" y="9" width="8" height="9">
<path d="M1.68965 9.91406H7.98965C8.34512 9.91406 8.62949 10.2039 8.62949 10.5539V17.275H1.68965C1.33418 17.275 1.0498 16.9852 1.0498 16.6352V10.5539C1.0498 10.2039 1.33965 9.91406 1.68965 9.91406Z" fill="white"/>
</mask>
<g mask="url(#mask5_185_15627)">
<path fill-rule="evenodd" clip-rule="evenodd" d="M6.80898 8.44336H0.508984C0.153516 8.44336 -0.130859 8.7332 -0.130859 9.0832V15.8043H6.80898C7.16445 15.8043 7.44883 15.5145 7.44883 15.1645V9.0832C7.44883 8.7332 7.16445 8.44336 6.80898 8.44336Z" fill="#F04D4E"/>
</g>
<path fill-rule="evenodd" clip-rule="evenodd" d="M3.78477 9.91406H5.90117C6.02148 9.91406 6.12539 10.0125 6.12539 10.1383V12.2437C6.12539 12.3641 6.02695 12.468 5.90117 12.468H3.78477C3.66445 12.468 3.56055 12.3695 3.56055 12.2437V10.1383C3.56055 10.0125 3.65898 9.91406 3.78477 9.91406Z" fill="#FCD346"/>
<path fill-rule="evenodd" clip-rule="evenodd" d="M22.3287 25.7414L20.9561 26.5344C22.9631 29.7773 27.7537 27.0102 25.949 23.6523L24.5764 24.4453C25.3912 25.9492 23.2201 27.2016 22.3287 25.7414Z" fill="#53302E"/>
<path d="M19.8401 13.6109H17.1331C16.8269 13.6109 16.8214 13.1406 17.1331 13.1406H19.8401C20.1464 13.1406 20.1519 13.6109 19.8401 13.6109Z" fill="#FBAD24"/>
<path fill-rule="evenodd" clip-rule="evenodd" d="M10.123 15.17L14.9684 15.1646V9.56456C14.9684 8.3669 13.984 7.38253 12.7863 7.38253C11.5723 7.34971 10.659 8.49268 10.6043 9.56456C10.5934 9.67393 10.123 15.17 10.123 15.17Z" fill="#EF4145"/>
<mask id="mask6_185_15627" style="mask-type:luminance" maskUnits="userSpaceOnUse" x="10" y="7" width="5" height="9">
<path d="M10.123 15.17L14.9684 15.1646V9.56456C14.9684 8.3669 13.984 7.38253 12.7863 7.38253C11.5723 7.34971 10.659 8.49268 10.6043 9.56456C10.5934 9.67393 10.123 15.17 10.123 15.17Z" fill="white"/>
</mask>
<g mask="url(#mask6_185_15627)">
<path fill-rule="evenodd" clip-rule="evenodd" d="M10.7197 15.1693L14.9635 15.1638V9.56382C14.9635 8.36616 14.1049 7.38179 13.0494 7.38179C11.9885 7.34351 11.1846 8.49741 11.1354 9.56382C11.1354 9.67319 10.7197 15.1693 10.7197 15.1693Z" fill="#F04D4E"/>
</g>
<path fill-rule="evenodd" clip-rule="evenodd" d="M14.7543 22.0219V17.5703C14.1801 17.5703 12.348 17.5703 11.8066 17.5703C11.1449 17.5703 10.6035 17.0289 10.6035 16.3672V15.1641H16.023C16.3238 15.1695 16.6246 15.3227 16.8324 15.5359L16.9254 15.6453L17.0184 15.793C17.1168 15.9734 17.166 16.1594 17.166 16.3672V22.0219C17.1223 23.6078 14.798 23.6078 14.7543 22.0219Z" fill="#53302E"/>
<path fill-rule="evenodd" clip-rule="evenodd" d="M13.5289 6.98838C15.1258 6.98838 16.4328 5.68135 16.4328 4.08447C16.2961 0.239942 10.7672 0.245411 10.625 4.08447C10.625 5.68135 11.9266 6.98838 13.5289 6.98838Z" fill="#FED2A5"/>
<path d="M13.3055 12.7203C13.2453 12.7203 13.1852 12.6985 13.136 12.6493L12.0258 11.5391C11.8071 11.3258 12.1461 10.9868 12.3594 11.2055L13.4696 12.3157C13.6227 12.4524 13.5078 12.7258 13.3055 12.7203Z" fill="#EF4145"/>
<path fill-rule="evenodd" clip-rule="evenodd" d="M13.1254 5.09102C13.1637 6.27227 13.0926 7.24023 11.6652 7.11445C10.2324 6.98867 9.41211 5.24414 9.41211 3.71289C9.41211 1.67305 11.0637 0.0214844 13.1035 0.0214844C15.1434 0.0214844 16.7949 1.67305 16.7949 3.71289H14.4598C13.727 3.69102 13.0871 4.35273 13.1254 5.09102Z" fill="#FBAD24"/>
<mask id="mask7_185_15627" style="mask-type:luminance" maskUnits="userSpaceOnUse" x="9" y="0" width="8" height="8">
<path d="M13.1254 5.09102C13.1637 6.27227 13.0926 7.24023 11.6652 7.11445C10.2324 6.98867 9.41211 5.24414 9.41211 3.71289C9.41211 1.67305 11.0637 0.0214844 13.1035 0.0214844C15.1434 0.0214844 16.7949 1.67305 16.7949 3.71289H14.4598C13.727 3.69102 13.0871 4.35273 13.1254 5.09102Z" fill="white"/>
</mask>
<g mask="url(#mask7_185_15627)">
<path fill-rule="evenodd" clip-rule="evenodd" d="M13.3939 4.71885C13.4268 5.8126 13.3666 6.70947 12.0432 6.59463C10.7143 6.47432 9.9541 4.86104 9.9541 3.43916C10.1127 -1.09443 16.6424 -1.08896 16.801 3.43916H14.6354C13.9518 3.42275 13.3557 4.04072 13.3939 4.71885Z" fill="#FCD346"/>
</g>
<path fill-rule="evenodd" clip-rule="evenodd" d="M14.8852 10.9043L16.2141 12.2332H19.4023C20.8734 12.2715 20.8789 14.4316 19.4023 14.4699H15.7492C15.4648 14.4699 15.175 14.3605 14.9617 14.1418L13.3047 12.4848L14.8852 10.9043Z" fill="#FED2A5"/>
<path fill-rule="evenodd" clip-rule="evenodd" d="M14.7539 20.2676H17.1656V22.7066H14.7539V20.2676Z" fill="#FED2A5"/>
<path fill-rule="evenodd" clip-rule="evenodd" d="M14.7539 22.2637H17.3023C17.6906 22.2637 18.0023 22.5809 18.0023 22.9637V23.6637H15.4539C15.0656 23.6637 14.7539 23.3465 14.7539 22.9637V22.2637Z" fill="#53302E"/>
<path d="M14.5141 10.7678C14.4539 10.7678 14.3938 10.7459 14.3446 10.6967L13.0922 9.44437C12.8735 9.23109 13.2125 8.89202 13.4258 9.11077L14.6782 10.3631C14.8313 10.5053 14.7164 10.7787 14.5141 10.7678Z" fill="#EF4145"/>
</svg>
