<svg width="90" height="87" viewBox="0 0 90 87" fill="none" xmlns="http://www.w3.org/2000/svg">
<path d="M84.0005 49.5078H6.00049C4.80701 49.5078 3.66242 49.9819 2.81851 50.8258C1.97459 51.6697 1.50049 52.8143 1.50049 54.0078C1.50049 55.2013 1.97459 56.3459 2.81851 57.1898C3.66242 58.0337 4.80701 58.5078 6.00049 58.5078H84.0005C85.194 58.5078 86.3386 58.0337 87.1825 57.1898C88.0264 56.3459 88.5005 55.2013 88.5005 54.0078C88.5005 52.8143 88.0264 51.6697 87.1825 50.8258C86.3386 49.9819 85.194 49.5078 84.0005 49.5078Z" fill="#C6A24C"/>
<path d="M45.0005 10.5078C47.4858 10.5078 49.5005 8.49309 49.5005 6.00781C49.5005 3.52253 47.4858 1.50781 45.0005 1.50781C42.5152 1.50781 40.5005 3.52253 40.5005 6.00781C40.5005 8.49309 42.5152 10.5078 45.0005 10.5078Z" fill="#C6A24C"/>
<path d="M22.5005 73.5078C23.0938 73.5078 23.6739 73.6838 24.1672 74.0134C24.6605 74.343 25.0451 74.8116 25.2721 75.3598C25.4992 75.9079 25.5586 76.5111 25.4428 77.0931C25.3271 77.675 25.0414 78.2096 24.6218 78.6291C24.2023 79.0487 23.6677 79.3344 23.0858 79.4502C22.5038 79.5659 21.9006 79.5065 21.3524 79.2795C20.8043 79.0524 20.3357 78.6679 20.0061 78.1745C19.6764 77.6812 19.5005 77.1012 19.5005 76.5078C19.5005 75.7122 19.8166 74.9491 20.3792 74.3865C20.9418 73.8239 21.7048 73.5078 22.5005 73.5078Z" fill="#58595B"/>
<path d="M22.5005 85.5078C27.4711 85.5078 31.5005 81.4784 31.5005 76.5078C31.5005 71.5372 27.4711 67.5078 22.5005 67.5078C17.5299 67.5078 13.5005 71.5372 13.5005 76.5078C13.5005 81.4784 17.5299 85.5078 22.5005 85.5078Z" fill="#58595B"/>
<path d="M64.5005 85.5078C69.4711 85.5078 73.5005 81.4784 73.5005 76.5078C73.5005 71.5372 69.4711 67.5078 64.5005 67.5078C59.5299 67.5078 55.5005 71.5372 55.5005 76.5078C55.5005 81.4784 59.5299 85.5078 64.5005 85.5078Z" fill="#58595B"/>
<path d="M64.5005 79.5078C66.1573 79.5078 67.5005 78.1647 67.5005 76.5078C67.5005 74.851 66.1573 73.5078 64.5005 73.5078C62.8436 73.5078 61.5005 74.851 61.5005 76.5078C61.5005 78.1647 62.8436 79.5078 64.5005 79.5078Z" fill="#D1D3D4"/>
<path d="M22.5005 79.5078C24.1573 79.5078 25.5005 78.1647 25.5005 76.5078C25.5005 74.851 24.1573 73.5078 22.5005 73.5078C20.8436 73.5078 19.5005 74.851 19.5005 76.5078C19.5005 78.1647 20.8436 79.5078 22.5005 79.5078Z" fill="#D1D3D4"/>
<path d="M9.00049 67.5078H22.5005H64.5005H81.0005L84.0005 58.5078H6.00049L9.00049 67.5078Z" fill="#FFD673"/>
<path d="M83 61.5078L84.0005 58.5078H6.00049L7.00099 61.5078H83Z" fill="#C6A24C"/>
<path d="M45.0005 10.5078C34.657 10.5078 24.7372 14.6167 17.4233 21.9306C10.1094 29.2446 6.00049 39.1644 6.00049 49.5078H84.0005C84.0005 39.1644 79.8916 29.2446 72.5777 21.9306C65.2637 14.6167 55.3439 10.5078 45.0005 10.5078Z" fill="#FFF3CD"/>
<path d="M71.1485 20.5742C67.7904 27.8672 62.4122 34.0448 55.6511 38.3752C48.8901 42.7056 41.0295 45.0073 33.0005 45.0077H6.26749C6.09203 46.5013 6.00288 48.0038 6.00049 49.5077H84.0005C84.0063 44.0535 82.8652 38.659 80.651 33.6744C78.4369 28.6898 75.1993 24.2265 71.1485 20.5742Z" fill="#FFD673"/>
<path d="M85.4707 48.2191C85.1486 38.5766 81.4004 29.3644 74.8988 22.2361C68.3973 15.1077 59.568 10.5299 49.9957 9.32415C50.5971 8.4204 50.9421 7.37041 50.9939 6.28606C51.0456 5.20171 50.8022 4.12363 50.2896 3.16671C49.7769 2.20978 49.0143 1.40987 48.0829 0.852196C47.1515 0.294527 46.0863 0 45.0007 0C43.9151 0 42.8498 0.294527 41.9185 0.852196C40.9871 1.40987 40.2244 2.20978 39.7118 3.16671C39.1992 4.12363 38.9557 5.20171 39.0075 6.28606C39.0593 7.37041 39.4042 8.4204 40.0057 9.32415C30.4333 10.5299 21.6041 15.1077 15.1025 22.2361C8.60099 29.3644 4.8528 38.5766 4.53068 48.2191C3.2075 48.5487 2.03686 49.3209 1.21317 50.4076C0.389485 51.4943 -0.0376837 52.8301 0.00261068 54.1931C0.042905 55.5561 0.548237 56.8643 1.43468 57.9005C2.32113 58.9366 3.53535 59.6384 4.87568 59.8891L7.57568 67.9892C7.67901 68.2854 7.87141 68.5424 8.12652 68.725C8.38163 68.9076 8.68696 69.0069 9.00068 69.0091H15.1657C14.164 69.9846 13.3679 71.1508 12.8243 72.4389C12.2806 73.727 12.0006 75.111 12.0006 76.5091C12.0006 77.9073 12.2806 79.2913 12.8243 80.5794C13.3679 81.8675 14.164 83.0337 15.1657 84.0091H4.50068C4.10286 84.0091 3.72133 84.1672 3.44002 84.4485C3.15872 84.7298 3.00068 85.1113 3.00068 85.5091C3.00068 85.907 3.15872 86.2885 3.44002 86.5698C3.72133 86.8511 4.10286 87.0091 4.50068 87.0091H22.5007C24.5873 87.0109 26.6271 86.3903 28.3592 85.2267C30.0914 84.0632 31.4372 82.4095 32.2246 80.4771C33.0121 78.5448 33.2054 76.4215 32.7798 74.3787C32.3543 72.3359 31.3292 70.4664 29.8357 69.0091H57.1657C56.164 69.9846 55.3679 71.1508 54.8242 72.4389C54.2806 73.727 54.0006 75.111 54.0006 76.5091C54.0006 77.9073 54.2806 79.2913 54.8242 80.5794C55.3679 81.8675 56.164 83.0337 57.1657 84.0091H46.5007C46.1029 84.0091 45.7213 84.1672 45.44 84.4485C45.1587 84.7298 45.0007 85.1113 45.0007 85.5091C45.0007 85.907 45.1587 86.2885 45.44 86.5698C45.7213 86.8511 46.1029 87.0091 46.5007 87.0091H64.5007C66.5873 87.0109 68.6271 86.3903 70.3592 85.2267C72.0914 84.0632 73.4372 82.4095 74.2246 80.4771C75.0121 78.5448 75.2054 76.4215 74.7798 74.3787C74.3543 72.3359 73.3292 70.4664 71.8357 69.0091H81.0007C81.3144 69.0069 81.6197 68.9076 81.8748 68.725C82.1299 68.5424 82.3223 68.2854 82.4257 67.9892L85.1257 59.8891C86.466 59.6384 87.6802 58.9366 88.5667 57.9005C89.4531 56.8643 89.9585 55.5561 89.9987 54.1931C90.039 52.8301 89.6119 51.4943 88.7882 50.4076C87.9645 49.3209 86.7939 48.5487 85.4707 48.2191ZM45.0007 3.00915C45.594 3.00915 46.174 3.1851 46.6674 3.51474C47.1607 3.84439 47.5453 4.31292 47.7723 4.8611C47.9994 5.40928 48.0588 6.01248 47.943 6.59442C47.8273 7.17636 47.5416 7.71091 47.122 8.13047C46.7024 8.55003 46.1679 8.83575 45.586 8.95151C45.004 9.06726 44.4008 9.00785 43.8526 8.78079C43.3044 8.55373 42.8359 8.16921 42.5063 7.67586C42.1766 7.18251 42.0007 6.60249 42.0007 6.00915C42.0031 5.21423 42.3199 4.45255 42.882 3.89045C43.4441 3.32836 44.2058 3.01152 45.0007 3.00915ZM45.0007 12.0091C54.6827 12.0221 63.9856 15.7742 70.9674 22.4821C77.9492 29.19 82.0704 38.3354 82.4707 48.0091H7.53068C7.93095 38.3354 12.0521 29.19 19.0339 22.4821C26.0158 15.7742 35.3186 12.0221 45.0007 12.0091ZM30.0007 76.5091C30.0007 77.9925 29.5608 79.4426 28.7367 80.6759C27.9126 81.9093 26.7413 82.8706 25.3708 83.4382C24.0004 84.0059 22.4924 84.1544 21.0375 83.865C19.5826 83.5757 18.2463 82.8613 17.1974 81.8125C16.1485 80.7636 15.4342 79.4272 15.1448 77.9723C14.8554 76.5175 15.0039 75.0095 15.5716 73.639C16.1392 72.2686 17.1005 71.0972 18.3339 70.2731C19.5673 69.449 21.0173 69.0091 22.5007 69.0091C24.4898 69.0091 26.3975 69.7993 27.804 71.2058C29.2105 72.6124 30.0007 74.52 30.0007 76.5091ZM72.0007 76.5091C72.0007 77.9925 71.5608 79.4426 70.7367 80.6759C69.9126 81.9093 68.7412 82.8706 67.3708 83.4382C66.0004 84.0059 64.4924 84.1544 63.0375 83.865C61.5826 83.5757 60.2463 82.8613 59.1974 81.8125C58.1485 80.7636 57.4342 79.4272 57.1448 77.9723C56.8554 76.5175 57.0039 75.0095 57.5716 73.639C58.1392 72.2686 59.1005 71.0972 60.3339 70.2731C61.5673 69.449 63.0173 69.0091 64.5007 69.0091C66.4898 69.0091 68.3975 69.7993 69.804 71.2058C71.2105 72.6124 72.0007 74.52 72.0007 76.5091ZM79.9207 66.0091H10.0807L8.08568 60.0091H81.9157L79.9207 66.0091ZM84.0007 57.0091H6.00068C5.20503 57.0091 4.44197 56.6931 3.87936 56.1305C3.31675 55.5679 3.00068 54.8048 3.00068 54.0091C3.00068 53.2135 3.31675 52.4504 3.87936 51.8878C4.44197 51.3252 5.20503 51.0091 6.00068 51.0091H84.0007C84.7963 51.0091 85.5594 51.3252 86.122 51.8878C86.6846 52.4504 87.0007 53.2135 87.0007 54.0091C87.0007 54.8048 86.6846 55.5679 86.122 56.1305C85.5594 56.6931 84.7963 57.0091 84.0007 57.0091Z" fill="#231F20"/>
<path d="M64.5005 81.0078C65.3905 81.0078 66.2605 80.7439 67.0006 80.2494C67.7406 79.755 68.3174 79.0522 68.6579 78.2299C68.9985 77.4076 69.0877 76.5028 68.914 75.6299C68.7404 74.757 68.3118 73.9552 67.6825 73.3258C67.0531 72.6965 66.2513 72.2679 65.3784 72.0943C64.5055 71.9206 63.6007 72.0098 62.7784 72.3504C61.9561 72.691 61.2533 73.2677 60.7589 74.0077C60.2644 74.7478 60.0005 75.6178 60.0005 76.5078C60.0005 77.7013 60.4746 78.8459 61.3185 79.6898C62.1624 80.5337 63.307 81.0078 64.5005 81.0078ZM64.5005 75.0078C64.7972 75.0078 65.0872 75.0958 65.3338 75.2606C65.5805 75.4254 65.7728 75.6597 65.8863 75.9338C65.9998 76.2079 66.0295 76.5095 65.9717 76.8005C65.9138 77.0914 65.7709 77.3587 65.5612 77.5685C65.3514 77.7783 65.0841 77.9211 64.7931 77.979C64.5022 78.0369 64.2006 78.0072 63.9265 77.8936C63.6524 77.7801 63.4181 77.5878 63.2533 77.3412C63.0885 77.0945 63.0005 76.8045 63.0005 76.5078C63.0005 76.11 63.1585 75.7285 63.4398 75.4472C63.7211 75.1658 64.1027 75.0078 64.5005 75.0078Z" fill="#231F20"/>
<path d="M22.5005 81.0078C23.3905 81.0078 24.2605 80.7439 25.0006 80.2494C25.7406 79.755 26.3174 79.0522 26.6579 78.2299C26.9985 77.4076 27.0877 76.5028 26.914 75.6299C26.7404 74.757 26.3118 73.9552 25.6825 73.3258C25.0531 72.6965 24.2513 72.2679 23.3784 72.0943C22.5055 71.9206 21.6007 72.0098 20.7784 72.3504C19.9561 72.691 19.2533 73.2677 18.7589 74.0077C18.2644 74.7478 18.0005 75.6178 18.0005 76.5078C18.0005 77.7013 18.4746 78.8459 19.3185 79.6898C20.1624 80.5337 21.307 81.0078 22.5005 81.0078ZM22.5005 75.0078C22.7972 75.0078 23.0872 75.0958 23.3338 75.2606C23.5805 75.4254 23.7728 75.6597 23.8863 75.9338C23.9998 76.2079 24.0295 76.5095 23.9717 76.8005C23.9138 77.0914 23.7709 77.3587 23.5611 77.5685C23.3514 77.7783 23.0841 77.9211 22.7931 77.979C22.5022 78.0369 22.2006 78.0072 21.9265 77.8936C21.6524 77.7801 21.4181 77.5878 21.2533 77.3412C21.0885 77.0945 21.0005 76.8045 21.0005 76.5078C21.0005 76.11 21.1585 75.7285 21.4398 75.4472C21.7211 75.1658 22.1027 75.0078 22.5005 75.0078Z" fill="#231F20"/>
<path d="M54.41 16.3128C54.2185 16.2519 54.0167 16.23 53.8166 16.2486C53.6165 16.2671 53.4222 16.3257 53.2451 16.4208C53.0681 16.5159 52.912 16.6456 52.7861 16.8023C52.6602 16.9589 52.567 17.1392 52.5121 17.3325C52.4572 17.5258 52.4417 17.7282 52.4666 17.9276C52.4914 18.127 52.5561 18.3194 52.6567 18.4933C52.7573 18.6673 52.8919 18.8192 53.0524 18.9402C53.2129 19.0611 53.396 19.1485 53.591 19.1973C59.2318 20.8219 64.3111 23.9799 68.2637 28.3199C72.2162 32.6599 74.8869 38.0116 75.9785 43.7793C76.0419 44.1241 76.2242 44.4358 76.4935 44.6602C76.7629 44.8847 77.1023 45.0077 77.453 45.0078C77.5446 45.0082 77.636 44.9997 77.726 44.9823C78.1164 44.9095 78.462 44.6847 78.6869 44.3574C78.9119 44.0301 78.9978 43.6269 78.926 43.2363C77.731 36.9196 74.8066 31.0584 70.4782 26.305C66.1499 21.5516 60.5874 18.0926 54.41 16.3128Z" fill="#231F20"/>
<path d="M48.137 15.1488C47.1005 15.0558 46.0505 15.0078 45.0005 15.0078C44.6027 15.0078 44.2211 15.1658 43.9398 15.4472C43.6585 15.7285 43.5005 16.11 43.5005 16.5078C43.5005 16.9056 43.6585 17.2872 43.9398 17.5685C44.2211 17.8498 44.6027 18.0078 45.0005 18.0078C45.9605 18.0078 46.9235 18.0513 47.864 18.1368H48.002C48.3998 18.1547 48.7885 18.0138 49.0824 17.7452C49.3764 17.4766 49.5516 17.1021 49.5695 16.7043C49.5874 16.3065 49.4465 15.9178 49.1779 15.6239C48.9092 15.3299 48.5348 15.1547 48.137 15.1368V15.1488Z" fill="#231F20"/>
<path d="M1.50049 16.5078H16.5005C16.8983 16.5078 17.2798 16.3498 17.5611 16.0685C17.8425 15.7872 18.0005 15.4056 18.0005 15.0078C18.0005 14.61 17.8425 14.2285 17.5611 13.9472C17.2798 13.6658 16.8983 13.5078 16.5005 13.5078H1.50049C1.10266 13.5078 0.721133 13.6658 0.439828 13.9472C0.158523 14.2285 0.000488281 14.61 0.000488281 15.0078C0.000488281 15.4056 0.158523 15.7872 0.439828 16.0685C0.721133 16.3498 1.10266 16.5078 1.50049 16.5078Z" fill="#231F20"/>
<path d="M7.50049 10.5078H25.5005C25.8983 10.5078 26.2798 10.3498 26.5611 10.0685C26.8425 9.78717 27.0005 9.40564 27.0005 9.00781C27.0005 8.60999 26.8425 8.22846 26.5611 7.94715C26.2798 7.66585 25.8983 7.50781 25.5005 7.50781H7.50049C7.10266 7.50781 6.72113 7.66585 6.43983 7.94715C6.15852 8.22846 6.00049 8.60999 6.00049 9.00781C6.00049 9.40564 6.15852 9.78717 6.43983 10.0685C6.72113 10.3498 7.10266 10.5078 7.50049 10.5078Z" fill="#231F20"/>
<path d="M19.5005 4.50781H31.5005C31.8983 4.50781 32.2798 4.34978 32.5611 4.06847C32.8425 3.78717 33.0005 3.40564 33.0005 3.00781C33.0005 2.60999 32.8425 2.22846 32.5611 1.94715C32.2798 1.66585 31.8983 1.50781 31.5005 1.50781H19.5005C19.1027 1.50781 18.7211 1.66585 18.4398 1.94715C18.1585 2.22846 18.0005 2.60999 18.0005 3.00781C18.0005 3.40564 18.1585 3.78717 18.4398 4.06847C18.7211 4.34978 19.1027 4.50781 19.5005 4.50781Z" fill="#231F20"/>
<path d="M12.0005 4.50781H13.5005C13.8983 4.50781 14.2798 4.34978 14.5611 4.06847C14.8425 3.78717 15.0005 3.40564 15.0005 3.00781C15.0005 2.60999 14.8425 2.22846 14.5611 1.94715C14.2798 1.66585 13.8983 1.50781 13.5005 1.50781H12.0005C11.6027 1.50781 11.2211 1.66585 10.9398 1.94715C10.6585 2.22846 10.5005 2.60999 10.5005 3.00781C10.5005 3.40564 10.6585 3.78717 10.9398 4.06847C11.2211 4.34978 11.6027 4.50781 12.0005 4.50781Z" fill="#231F20"/>
</svg>
