<svg width="23" height="23" viewBox="0 0 23 23" fill="none" xmlns="http://www.w3.org/2000/svg">
<path d="M22.7689 11.0086C20.2032 10.0663 17.888 8.64154 15.8903 6.77418C13.8929 4.9115 12.3101 2.70133 11.1864 0.207778L11.0901 7.75059e-05L11.0084 0.213995C10.0661 2.77969 8.64138 5.09489 6.77402 7.09253C4.91135 9.09 2.70118 10.6728 0.207623 11.7964L-7.75059e-05 11.8928L0.21384 11.9744C2.77954 12.9167 5.09473 14.3415 7.09237 16.2088C9.08984 18.0715 10.6726 20.2817 11.7963 22.7752L11.8926 22.9829L11.9743 22.769C12.9166 20.2033 14.3413 17.8881 16.2087 15.8905C18.0714 13.893 20.2815 12.3102 22.7751 11.1866L22.9828 11.0902L22.7689 11.0086Z" fill="#FFEFCD"/>
</svg>
