<svg width="649" height="596" viewBox="0 0 649 596" fill="none" xmlns="http://www.w3.org/2000/svg">
<path opacity="0.5" fill-rule="evenodd" clip-rule="evenodd" d="M254.262 6.70035C307.435 -15.1079 364.562 22.6954 421.596 29.755C488.089 37.9853 584.874 -6.97428 617.306 51.6374C653.831 117.645 544.482 187.988 550.752 263.167C555.922 325.155 645.565 355.909 647.868 418.07C650.315 484.138 626.475 574.454 562.968 592.889C491.434 613.654 438.633 508.561 364.61 500.294C308.982 494.081 263.733 564.42 208.868 553.34C151.872 541.83 112.661 489.788 78.7497 442.567C40.6516 389.515 -12.6993 329.761 2.72804 266.291C18.4406 201.648 105.939 188.01 152.238 140.228C192.024 99.1678 201.361 28.3967 254.262 6.70035Z" fill="#C6A24C" fill-opacity="0.3"/>
</svg>
