<svg width="120" height="120" viewBox="0 0 120 120" fill="none" xmlns="http://www.w3.org/2000/svg">
<g clip-path="url(#clip0_176_9280)">
<path d="M118.985 106.024C118.985 104.022 117.033 102.384 114.647 102.384C112.261 102.384 110.31 100.984 110.31 99.2703C110.31 97.5584 103.981 96.1572 96.247 96.1572H29.9794C22.245 96.1572 15.9169 96.8653 15.9169 97.7316C15.9169 98.5975 12.3356 99.3056 7.95844 99.3056C3.58125 99.3046 0 101.164 0 103.436C0 105.708 3.58125 107.567 7.95844 107.567C12.3356 107.567 15.9169 107.618 15.9169 107.681C15.9169 107.744 17.0292 107.795 18.3881 107.795C19.7475 107.795 20.8594 109.294 20.8594 111.127C20.8594 112.96 16.9955 114.46 12.2733 114.46C7.55109 114.46 3.68719 115.539 3.68719 116.856C3.68719 118.174 6.43875 119.253 9.80203 119.253C13.1653 119.253 15.9169 119.316 15.9169 119.392C15.9169 119.468 22.245 119.53 29.9794 119.53H84.5508C92.2852 119.53 98.6133 119.468 98.6133 119.392C98.6133 119.316 101.58 119.253 105.205 119.253C108.831 119.253 112.741 117.095 113.895 114.459C115.049 111.822 116.666 109.664 117.488 109.664C118.312 109.664 118.985 108.026 118.985 106.024Z" fill="#646C3C" fill-opacity="0.3"/>
<path d="M13.9868 79.0405L31.8307 91.5911C32.5404 92.0898 33.5201 91.9184 34.0184 91.2075C34.5167 90.4966 34.3456 89.5152 33.6359 89.0166L15.7915 76.4655C15.0818 75.9664 14.1021 76.1378 13.6039 76.8487C13.1051 77.56 13.2767 78.5409 13.9868 79.0405Z" fill="#B2B2B2"/>
<path d="M32.7322 92.5813C32.2634 92.5813 31.812 92.4381 31.4272 92.1676L13.5832 79.617C13.0859 79.2677 12.7545 78.7451 12.65 78.1459C12.545 77.5468 12.68 76.9425 13.0292 76.4443C13.4543 75.8376 14.1504 75.4756 14.8911 75.4756C15.3603 75.4756 15.8117 75.6193 16.1965 75.8897L34.0404 88.4403C34.5373 88.7897 34.8687 89.3118 34.9732 89.9114C35.0778 90.5101 34.9437 91.1144 34.5945 91.6121C34.1693 92.2188 33.4732 92.5813 32.7322 92.5813ZM14.8906 76.8842C14.6075 76.8842 14.3421 77.0228 14.18 77.2538C14.0464 77.4439 13.9953 77.6745 14.0351 77.9032C14.075 78.1314 14.2015 78.3309 14.3914 78.4643L32.2353 91.0149C32.6154 91.282 33.1793 91.1797 33.4432 90.8031C33.5764 90.6129 33.6279 90.3824 33.5881 90.1537C33.5482 89.9255 33.4222 89.7264 33.2323 89.5931L15.3879 77.0425C15.2412 76.9392 15.0687 76.8842 14.8906 76.8842Z" fill="#364153"/>
<path d="M2.00195 76.4378C2.00195 78.1695 3.4157 79.5842 5.14305 79.5842H40.4151C42.1429 79.5842 43.5562 78.1686 43.5562 76.4378V76.2251C43.5562 74.4943 42.1424 73.0791 40.4151 73.0791H5.14305C3.41523 73.0791 2.00195 74.4953 2.00195 76.2251V76.4378Z" fill="white"/>
<path d="M40.4151 79.8194H5.14305C3.28164 79.8194 1.76758 78.3028 1.76758 76.4382V76.2255C1.76758 74.3614 3.28164 72.8447 5.14305 72.8447H40.4151C42.2765 72.8447 43.7905 74.3614 43.7905 76.2255V76.4382C43.7905 78.3023 42.2765 79.8194 40.4151 79.8194ZM5.14305 73.3138C3.54039 73.3138 2.23633 74.6196 2.23633 76.225V76.4377C2.23633 78.0431 3.54039 79.3494 5.14305 79.3494H40.4151C42.0177 79.3494 43.3218 78.0431 43.3218 76.4377V76.225C43.3218 74.6196 42.0177 73.3138 40.4151 73.3138H5.14305Z" fill="#364153"/>
<path d="M40.4151 80.2888H5.14305C3.02336 80.2888 1.29883 78.5613 1.29883 76.438V76.2253C1.29883 74.1025 3.02336 72.375 5.14305 72.375H40.4151C42.5348 72.375 44.2593 74.1025 44.2593 76.2253V76.438C44.2593 78.5613 42.5348 80.2888 40.4151 80.2888ZM5.14305 73.7832C3.79867 73.7832 2.70508 74.8786 2.70508 76.2248V76.4375C2.70508 77.7842 3.79867 78.8797 5.14305 78.8797H40.4151C41.7594 78.8797 42.853 77.7842 42.853 76.4375V76.2248C42.853 74.8786 41.7594 73.7832 40.4151 73.7832H5.14305Z" fill="#364153"/>
<path d="M6.01613 73.739C11.1086 73.6339 16.6957 73.6339 21.9152 73.64C23.0744 73.6339 24.2364 73.6329 25.398 73.6329C31.7369 73.6329 41.5319 76.4934 42.9105 72.7722C45.7028 65.2364 45.8036 55.1219 43.3403 49.9559C41.4883 46.0713 31.7369 48.6641 25.398 48.5632C24.2364 48.5632 23.0744 48.5632 21.9311 48.5632C16.6957 48.6641 9.38925 46.9418 7.67081 49.5253C3.37331 55.1219 3.24534 70.9631 6.01613 73.739Z" fill="#DEC1A0"/>
<path d="M38.0859 75.3874C36.1889 75.3874 33.9291 75.1211 31.7437 74.8629C29.5542 74.6046 27.2902 74.3374 25.3983 74.3374C24.2377 74.3374 23.077 74.3384 21.9192 74.3445L18.8677 74.3421C14.9433 74.3421 10.3505 74.3543 6.0375 74.4431L5.88093 74.5994L4.35375 73.0687L4.74234 73.0607C2.45109 68.1751 3.18515 54.2426 7.10062 49.1137C8.13703 47.5858 10.4986 47.3895 12.4425 47.3895C13.8305 47.3895 15.3989 47.5088 16.9153 47.6248C18.6173 47.7543 20.378 47.8886 21.9183 47.8595H25.3987C25.5291 47.8614 25.6495 47.852 25.7705 47.8623C27.5048 47.8623 29.5317 47.6722 31.492 47.4886C33.5072 47.2998 35.5908 47.1045 37.4316 47.1045C39.7191 47.1045 42.8864 47.3684 43.9753 49.6527C46.5792 55.1141 46.4016 65.377 43.5703 73.018C42.7828 75.1413 40.0631 75.3874 38.0859 75.3874ZM25.3983 72.9283C27.3727 72.9283 29.6784 73.2002 31.9083 73.4636C34.0533 73.7167 36.2709 73.9787 38.0859 73.9787C40.5272 73.9787 41.8898 73.504 42.2517 72.5273C44.9212 65.3221 45.1252 55.3329 42.7064 50.2594C42.1383 49.0677 40.462 48.5127 37.4316 48.5127C35.6559 48.5127 33.6056 48.7047 31.6228 48.8907C29.6306 49.0771 27.5705 49.2705 25.7705 49.2705C25.77 49.2705 25.77 49.2705 25.7695 49.2705C25.6406 49.2705 25.5141 49.2696 25.3875 49.2677H21.9319C21.7889 49.2705 21.63 49.2719 21.4702 49.2719C19.9927 49.2719 18.3741 49.1484 16.8089 49.0292C15.2498 48.9104 13.7775 48.7982 12.443 48.7982C10.1269 48.7982 8.75765 49.1639 8.25703 49.9157L8.22937 49.9547C4.2089 55.1901 4.0575 69.9955 6.33187 73.0279C10.5633 72.9443 15.0342 72.933 18.8686 72.933L21.9173 72.9354C23.0723 72.9293 24.2358 72.9283 25.3983 72.9283Z" fill="#364153"/>
<path d="M32.5078 48.1017C30.0393 48.3276 27.5273 48.5976 25.4001 48.5633H21.9332C16.6978 48.6642 9.39136 46.9419 7.67292 49.5254C3.37495 55.122 3.24745 70.9622 6.01823 73.7382C11.1107 73.633 16.6978 73.633 21.9173 73.6391C22.9326 73.6339 27.5774 73.6335 28.5946 73.6335C33.8053 69.1206 33.4814 62.4385 33.4814 54.9759C33.4814 52.5892 33.1373 50.2847 32.5078 48.1017Z" fill="#EBCCA9"/>
<path d="M5.73178 74.4487L5.51991 74.2364C2.33616 71.0468 2.79366 54.7548 7.101 49.1141C8.13741 47.5862 10.499 47.3894 12.4429 47.3894C13.8308 47.3894 15.3993 47.5087 16.9157 47.6247C18.6177 47.7548 20.3779 47.8881 21.9187 47.8595H25.3991C25.5294 47.8613 25.6499 47.8623 25.7718 47.8623C27.5048 47.8623 29.5298 47.6726 31.4877 47.4895L33.021 47.3477L33.1823 47.9064C33.8465 50.21 34.1835 52.5888 34.1835 54.9764L34.1854 56.2137C34.2023 63.1461 34.2182 69.694 29.0535 74.1669L28.8557 74.3383H28.5932C27.5765 74.3383 22.934 74.3388 21.9191 74.3439L18.8685 74.3416C14.9423 74.3416 10.3462 74.3538 6.03085 74.443L5.73178 74.4487ZM12.4424 48.7986C10.1263 48.7986 8.7571 49.1643 8.25647 49.9161L8.22881 49.9551C4.20835 55.1901 4.05694 69.9954 6.33131 73.0278C10.5627 72.9442 15.0346 72.9329 18.869 72.9329L21.9168 72.9353C22.8571 72.9306 26.9399 72.9297 28.3274 72.9297C32.8096 68.884 32.7955 63.0067 32.7791 56.217L32.7773 54.9764C32.7773 52.9137 32.5115 50.8585 31.986 48.8577L31.619 48.892C29.4852 49.092 27.2765 49.2944 25.3883 49.2681H21.9327C21.7898 49.2709 21.6308 49.2723 21.471 49.2723C19.9935 49.2723 18.3749 49.1488 16.8098 49.0296C15.2498 48.9108 13.7774 48.7986 12.4424 48.7986Z" fill="#364153"/>
<path d="M44.4416 47.6546L33.8455 45.0716L33.5703 45.0049H33.2867H8.10219C6.79672 45.0049 5.73828 46.0642 5.73828 47.3724C5.73828 48.6796 6.79625 49.7403 8.10219 49.7403H33.2867L32.728 49.6727L43.3236 52.2557C44.592 52.5651 45.8708 51.7857 46.1792 50.5146C46.4881 49.2444 45.71 47.964 44.4416 47.6546Z" fill="#EBCCA9"/>
<path d="M43.8852 53.0283C43.8847 53.0283 43.8847 53.0283 43.8852 53.0283C43.6409 53.0283 43.3963 52.9987 43.1572 52.9405L32.9202 50.4448H8.10219C6.41094 50.4448 5.03516 49.0667 5.03516 47.3726C5.03516 45.6789 6.41094 44.3008 8.10219 44.3008H33.6538L44.6075 46.9702C46.2505 47.3712 47.262 49.0357 46.8622 50.6815C46.527 52.0634 45.3027 53.0283 43.8852 53.0283ZM33.3669 49.1043L43.4895 51.5718C43.6198 51.6037 43.7525 51.6197 43.8847 51.6197C44.6516 51.6197 45.3139 51.097 45.4958 50.3486C45.7123 49.4574 45.1644 48.5563 44.2752 48.3389L33.4869 45.7094H8.10219C7.18625 45.7094 6.44141 46.4555 6.44141 47.3726C6.44141 48.2901 7.18625 49.0362 8.10219 49.0362H32.8006L32.8119 48.9737L33.3706 49.0414L33.3669 49.1043Z" fill="#364153"/>
<g opacity="0.23">
<path d="M33.2863 49.7413C33.2863 49.7413 33.365 49.7859 33.5108 49.8652L43.3236 52.2571C44.592 52.5665 45.8703 51.7871 46.1792 50.516C46.4881 49.2454 45.7095 47.965 44.4411 47.6555L33.8445 45.0725L32.5156 45.0059C33.6533 47.2015 33.2863 49.7413 33.2863 49.7413Z" fill="#5A3D1C"/>
<path d="M43.8848 52.5591C43.8843 52.5591 43.8843 52.5591 43.8848 52.5591C43.6776 52.5591 43.4704 52.5338 43.2679 52.4845L33.3984 50.071L33.0309 49.8667L33.0534 49.7075C33.0571 49.6827 33.3951 47.2133 32.3071 45.1139L32.1191 44.751L33.8559 44.8378L44.496 47.4274C45.8882 47.7674 46.7451 49.1774 46.4066 50.5715C46.1221 51.7416 45.0848 52.5591 43.8848 52.5591ZM33.5957 49.6442L43.3785 52.0285C43.5445 52.0689 43.7151 52.0896 43.8843 52.0896C44.8677 52.0896 45.7176 51.4195 45.951 50.4598C46.2285 49.3173 45.5263 48.1613 44.3854 47.8829L33.7888 45.2999L32.8968 45.2581C33.7138 47.0992 33.5952 49.0408 33.5371 49.6113L33.5957 49.6442Z" fill="#364153"/>
</g>
<path d="M105.658 44.1384C106.408 45.3357 105.631 46.9975 103.933 47.8314L96.9885 51.2403C95.2902 52.0738 93.5343 52.101 93.0857 51.3004C92.6371 50.4998 93.5643 48.9968 95.1463 47.9596L101.418 43.8477C103 42.81 104.908 42.941 105.658 44.1384Z" fill="#9797B5"/>
<path d="M94.5126 52.588C93.5381 52.588 92.8138 52.2532 92.4731 51.6451C91.7343 50.3271 93.1012 48.4588 94.762 47.3703L101.033 43.2585C101.835 42.7326 102.757 42.4434 103.631 42.4434C104.772 42.4434 105.728 42.9246 106.254 43.7642C106.651 44.399 106.751 45.1672 106.535 45.9284C106.239 46.9698 105.404 47.8944 104.243 48.4639L97.2988 51.8729C96.3585 52.334 95.3695 52.588 94.5126 52.588ZM103.631 43.8515C103.028 43.8515 102.379 44.0591 101.804 44.4366L95.5321 48.5484C94.0209 49.5392 93.5559 50.6999 93.6993 50.9554C93.7495 51.0455 94.0082 51.1793 94.5126 51.1793C95.1501 51.1793 95.9399 50.9709 96.6796 50.6079L103.624 47.199C104.415 46.8102 104.998 46.1913 105.182 45.5424C105.257 45.279 105.297 44.8869 105.062 44.5127C104.799 44.0929 104.278 43.8515 103.631 43.8515Z" fill="#364153"/>
<path d="M99.8058 48.396C99.8058 48.396 100.425 48.8256 100.987 48.3542C101.686 47.7668 101.203 47.0446 101.203 47.0446C101.203 47.0446 101.712 47.3836 102.044 47.0704C103.319 45.8632 101.885 44.5316 101.885 44.5316L99.4707 43.2234C99.4707 43.2234 98.1629 42.6149 97.111 43.8132C97.111 43.8132 95.2861 45.2143 94.1504 45.1138L94.1246 45.1086L93.9802 45.0884C93.9779 45.0884 93.976 45.0884 93.9732 45.088L78.128 43.2065L67.0655 34.7222C66.1501 33.9498 63.9708 34.3245 63.0352 35.2303C62.0996 36.136 62.0822 37.4968 62.9986 38.2687L75.1993 46.8746C75.5635 47.1812 76.0388 47.3611 76.554 47.3864L94.0313 48.48C94.4068 48.4988 94.7729 48.4335 95.1108 48.3049L95.116 48.3035C95.221 48.2631 95.3232 48.218 95.4221 48.1659C96.0601 47.8978 97.7621 47.2385 98.0916 48.0809C98.0916 48.0809 98.8388 49.3975 99.5649 49.1116C100.292 48.8265 99.8579 48.4392 99.8579 48.4392" fill="#F7C8B6"/>
<path d="M99.3532 49.8577C98.5798 49.8577 97.8837 49.1403 97.4806 48.4289L97.4557 48.3852C97.3399 48.3608 96.8801 48.3195 95.7204 48.8041C95.606 48.8628 95.4884 48.9139 95.3679 48.9604L95.3267 48.975C94.8931 49.1356 94.4459 49.2055 93.9959 49.1825L76.5096 48.0885C75.8665 48.057 75.2477 47.8246 74.7715 47.4334L62.5465 38.8078C61.9751 38.327 61.6465 37.6546 61.6207 36.9155C61.5931 36.1192 61.9306 35.3205 62.547 34.7241C63.6982 33.609 66.2702 33.1314 67.5181 34.1837L78.402 42.5304L94.2424 44.4147C94.8387 44.4396 95.9684 43.7921 96.6326 43.293C97.7328 42.0942 99.1587 42.3027 99.7667 42.5853L102.364 44.0161C102.456 44.1025 103.27 44.889 103.275 45.9534C103.277 46.3718 103.148 46.9939 102.526 47.5828C102.38 47.7213 102.216 47.8105 102.047 47.8603C101.991 48.2152 101.812 48.581 101.439 48.8947C101.134 49.1501 100.809 49.2562 100.505 49.275C100.378 49.4539 100.167 49.6323 99.8215 49.768C99.6631 49.8296 99.5065 49.8577 99.3532 49.8577ZM99.4029 48.4106C99.3753 48.4308 99.2946 48.5223 99.2843 48.6749C99.2815 48.7167 99.2796 48.8599 99.3748 48.9515L99.566 48.7426L100.194 47.8096C100.268 47.856 100.411 47.9185 100.535 47.8147C100.713 47.6659 100.679 47.5274 100.619 47.4377L101.592 46.4587C101.603 46.4652 101.62 46.4732 101.638 46.4803C101.868 46.2272 101.869 46.0323 101.869 45.9642C101.869 45.6219 101.609 45.266 101.458 45.1012L99.1648 43.8588C99.0195 43.8005 98.2742 43.5536 97.6381 44.2785L97.5382 44.3725C97.1965 44.6345 95.4288 45.9375 94.0873 45.8154L93.8571 45.783L77.8535 43.8837L66.6377 35.2815C66.0284 34.7688 64.2392 35.0448 63.5234 35.737C63.1934 36.0567 63.012 36.4685 63.0256 36.8667C63.0368 37.1982 63.1765 37.4898 63.4301 37.7119L75.6509 46.3352C75.896 46.5418 76.2288 46.6653 76.5874 46.6826L94.0746 47.7767C94.3324 47.7875 94.5992 47.7457 94.8598 47.6462L94.894 47.6335C94.9624 47.6062 95.0285 47.5767 95.0932 47.5429L95.1495 47.5161C96.4578 46.9662 97.4009 46.8291 98.0318 47.0958C98.3478 47.2297 98.5849 47.4597 98.7209 47.764C98.9032 48.0687 99.1934 48.3852 99.341 48.4416C99.3856 48.4228 99.4029 48.4106 99.4029 48.4106Z" fill="#364153"/>
<path d="M72.7825 90.2986L66.61 65.7881H50.957C49.9473 65.7881 48.9939 65.3214 48.3718 64.5231C47.7512 63.7249 47.5323 62.6848 47.7789 61.7035L55.3042 31.795C55.7467 30.037 57.5284 28.9716 59.2829 29.4149C61.0389 29.8577 62.1015 31.642 61.6604 33.3999L54.1351 63.3084C54.3821 62.3266 54.1632 61.287 53.5417 60.4887C52.9206 59.6905 51.9671 59.2238 50.957 59.2238H68.3035C69.804 59.2238 71.1132 60.246 71.4803 61.7035L79.5545 88.7852L79.1368 88.6955C79.5789 90.4521 78.5162 92.2373 76.7612 92.6797C75.0076 93.1224 73.2259 92.0575 72.7825 90.2986Z" fill="#76A7B5"/>
<path d="M75.9596 93.4838C74.1353 93.4838 72.5495 92.2446 72.1023 90.4707L66.0634 66.4922H50.9584C49.7237 66.4922 48.5795 65.9325 47.8192 64.9563C47.0598 63.9796 46.7973 62.7316 47.0987 61.5314L54.624 31.6225C55.0707 29.8485 56.657 28.6094 58.4814 28.6094C58.8085 28.6094 59.1367 28.6502 59.4568 28.731C61.584 29.2677 62.8796 31.4389 62.3443 33.5711L56.0673 58.5188H68.3054C70.1307 58.5188 71.7175 59.7574 72.1637 61.5304L80.23 88.5826C80.3007 88.8216 80.2407 89.0799 80.0725 89.2625C80.0326 89.3053 79.9881 89.3428 79.9407 89.3738C79.9656 90.1284 79.7748 90.8759 79.3787 91.5403C78.8335 92.4545 77.9654 93.1016 76.9346 93.3617C76.615 93.4425 76.2868 93.4838 75.9596 93.4838ZM67.2967 65.6296L73.4654 90.1255C73.7546 91.2731 74.7803 92.0746 75.9592 92.0746C76.1706 92.0746 76.3829 92.0479 76.591 91.9958C77.2576 91.8277 77.8182 91.4093 78.1707 90.8181C78.5232 90.227 78.625 89.5339 78.4567 88.8667C78.3971 88.6305 78.4637 88.3802 78.6325 88.2051L78.6451 88.1924L70.8076 61.9047C70.5109 60.7285 69.4848 59.9274 68.3045 59.9274H55.712L54.819 63.4763C54.819 63.4777 54.8185 63.4791 54.8181 63.48C54.7234 63.8575 54.3414 64.0871 53.9645 63.9909C53.5881 63.896 53.3598 63.5129 53.4545 63.1363C53.65 62.3601 53.4798 61.553 52.9885 60.9219C52.4968 60.2899 51.7571 59.9279 50.9579 59.9279C50.5693 59.9279 50.2548 59.6128 50.2548 59.2235C50.2548 58.8343 50.5693 58.5192 50.9579 58.5192H54.616L60.9798 33.2274C61.3257 31.8488 60.4881 30.4444 59.1123 30.0974C58.9046 30.0448 58.6923 30.0185 58.4804 30.0185C57.301 30.0185 56.2754 30.82 55.9867 31.9671L48.4614 61.8756C48.2664 62.6513 48.436 63.4589 48.9273 64.0904C49.419 64.722 50.1592 65.084 50.9574 65.084H66.6104H66.6128H66.6156H66.6165H66.6179C66.7951 65.0859 66.9568 65.153 67.0792 65.2634L67.0801 65.2643C67.1204 65.3005 67.156 65.3408 67.1875 65.3859H67.1879C67.2395 65.4573 67.2765 65.5404 67.2967 65.6296ZM53.9945 59.9274C54.0296 59.9692 54.0643 60.0119 54.0981 60.0551C54.1318 60.0988 54.1651 60.1429 54.197 60.1875L54.2626 59.9274H53.9945Z" fill="#364153"/>
<path d="M71.8594 90.2227C71.8594 92.1229 73.0547 92.7986 77.0198 92.7986C80.9859 92.7986 85.2112 92.554 85.2112 90.6546C85.2112 88.7553 81.1847 86.7832 77.2195 86.7832C73.253 86.7832 71.8594 88.3233 71.8594 90.2227Z" fill="#A5A5C2"/>
<path d="M77.0198 93.5031C73.3997 93.5031 71.1562 92.9542 71.1562 90.2229C71.1562 88.6752 71.9442 86.0791 77.2195 86.0791C81.2405 86.0791 85.9144 88.078 85.9144 90.6549C85.9139 93.2829 81.323 93.5031 77.0198 93.5031ZM77.2191 87.4873C75.0947 87.4873 72.562 87.962 72.562 90.2224C72.562 91.1427 72.562 92.094 77.0194 92.094C83.5345 92.094 84.5077 91.192 84.5077 90.6544C84.5077 89.4331 81.172 87.4873 77.2191 87.4873Z" fill="#364153"/>
<path d="M29.4669 91.3398H41.7392C46.9456 97.4538 43.2092 101.553 67.3733 101.553C67.7844 101.553 68.1917 101.543 68.5986 101.53L68.5981 101.534C87.6631 101.534 100.063 92.9062 105.096 84.8149C109.992 76.9458 97.0826 55.1093 97.0826 55.1093C97.0826 55.1093 94.1858 48.1187 90.1784 49.3949C85.1337 51.0022 85.1239 56.0813 85.1239 56.0813L87.3678 70.6702C91.0888 93.01 69.0973 96.5781 69.0973 96.5781L69.0819 96.7335C67.0227 96.9176 64.7534 97.0199 62.2428 97.0199C62.2428 97.0199 56.5227 94.4999 56.5227 80.8834V70.3645H39.7578C39.7578 70.3645 26.9361 68.969 24.4705 81.3699C22.5256 91.1534 26.0797 91.3398 29.4669 91.3398Z" fill="#FFDE91"/>
<path d="M67.3732 102.257C47.7246 102.257 46.0489 99.4353 43.5125 95.1638C42.9232 94.1716 42.3153 93.148 41.4111 92.0446H29.4673C27.8839 92.0446 25.715 92.0446 24.3987 90.4378C23.0553 88.7976 22.8589 85.8723 23.7814 81.2327C25.925 70.4514 35.6684 69.6132 38.6037 69.6132C39.2365 69.6132 39.6626 69.648 39.7929 69.6607H57.2267V80.8838C57.2267 92.7066 61.6507 95.8583 62.42 96.3161C64.5275 96.3118 66.5492 96.233 68.4415 96.0813L68.4523 95.9705L68.9853 95.8831C69.0795 95.8676 78.454 94.2594 83.6407 87.0091C86.7284 82.6935 87.7493 77.2354 86.6754 70.7867L84.4217 56.0804C84.4217 56.0245 84.4957 50.4669 89.966 48.7239C90.3598 48.5985 90.761 48.5352 91.1604 48.5352C94.939 48.5352 97.4468 54.1679 97.7131 54.7919C98.5221 56.1672 110.697 77.1462 105.694 85.1873C100.566 93.4307 88.1281 102.238 68.5985 102.238H68.4973C68.1237 102.249 67.7496 102.257 67.3732 102.257ZM38.6032 71.0224C35.1879 71.0224 27.0415 72.0446 25.16 81.5084C24.349 85.5873 24.4582 88.291 25.4853 89.5442C26.3135 90.5556 27.7175 90.6359 29.4668 90.6359H42.0636L42.274 90.8829C43.3718 92.1723 44.0886 93.3786 44.7204 94.4435C47.0923 98.4375 48.5239 100.849 67.3728 100.849C67.7768 100.849 68.1776 100.839 68.5775 100.827L69.4123 100.802L69.409 100.825C87.8951 100.587 99.6415 92.2507 104.499 84.4426C106.375 81.4262 105.607 75.4953 102.279 67.2913C99.7142 60.9684 96.5089 55.523 96.477 55.4685L96.4329 55.3803C95.8039 53.8683 93.6307 49.9438 91.159 49.9438C90.905 49.9438 90.6462 49.9851 90.3907 50.0664C86.1157 51.4281 85.8448 55.5075 85.8275 56.0348L88.0625 70.5631C89.2001 77.3913 88.0939 83.2072 84.7751 87.8402C79.9132 94.6262 71.9 96.7175 69.7446 97.1711L69.7235 97.3834L69.1442 97.435C66.994 97.627 64.6723 97.7242 62.2428 97.7242H62.0951L61.9601 97.6646C61.7093 97.5543 55.8195 94.799 55.8195 80.8834V71.0688L39.6823 71.0646C39.6785 71.0646 39.2707 71.0224 38.6032 71.0224Z" fill="#364153"/>
<path d="M81.3613 99.7731C81.3613 108.411 85.2468 115.413 94.252 115.413C107.991 115.413 113.974 108.531 113.974 99.7731C113.974 91.1352 106.674 84.1338 97.6668 84.1338C88.6621 84.1338 81.3613 91.1362 81.3613 99.7731Z" fill="#9D9DBF"/>
<path d="M94.252 116.117C85.7399 116.117 80.6582 110.008 80.6582 99.7733C80.6582 90.7617 88.288 83.4297 97.6668 83.4297C107.046 83.4297 114.677 90.7612 114.677 99.7733C114.678 110.008 107.042 116.117 94.252 116.117ZM97.6668 84.8383C89.0634 84.8383 82.0645 91.5383 82.0645 99.7733C82.0645 113.253 90.5877 114.709 94.252 114.709C106.339 114.709 113.271 109.265 113.271 99.7733C113.271 91.5383 106.271 84.8383 97.6668 84.8383Z" fill="#364153"/>
<path d="M94.2523 115.412C101.749 115.412 107.827 109.134 107.827 101.39C107.827 93.6467 101.749 87.3691 94.2523 87.3691C86.7553 87.3691 80.6777 93.6467 80.6777 101.39C80.6777 109.134 86.7553 115.412 94.2523 115.412Z" fill="#B2B2D1"/>
<path d="M94.2513 116.116C86.3791 116.116 79.9746 109.51 79.9746 101.391C79.9746 93.2707 86.3791 86.665 94.2513 86.665C102.124 86.665 108.529 93.2707 108.529 101.391C108.529 109.51 102.124 116.116 94.2513 116.116ZM94.2513 88.0732C87.1545 88.0732 81.3809 94.0473 81.3809 101.39C81.3809 108.733 87.1545 114.707 94.2513 114.707C101.349 114.707 107.123 108.732 107.123 101.39C107.123 94.0473 101.349 88.0732 94.2513 88.0732Z" fill="#364153"/>
<path d="M93.5943 107.997C97.5739 107.997 100.8 104.601 100.8 100.411C100.8 96.2216 97.5739 92.8252 93.5943 92.8252C89.6147 92.8252 86.3887 96.2216 86.3887 100.411C86.3887 104.601 89.6147 107.997 93.5943 107.997Z" fill="#F5F5F5"/>
<path d="M93.5943 108.701C89.233 108.701 85.6855 104.983 85.6855 100.411C85.6855 95.8404 89.233 92.1211 93.5943 92.1211C97.9555 92.1211 101.503 95.8404 101.503 100.411C101.503 104.983 97.9555 108.701 93.5943 108.701ZM93.5943 93.5293C90.0088 93.5293 87.0918 96.6166 87.0918 100.411C87.0918 104.205 90.0088 107.292 93.5943 107.292C97.1798 107.292 100.097 104.205 100.097 100.411C100.097 96.6166 97.1798 93.5293 93.5943 93.5293Z" fill="#364153"/>
<path d="M26.623 99.8951C26.623 108.533 30.5085 115.536 39.5137 115.536C55.0429 115.536 59.2359 108.533 59.2359 99.8951C59.2359 91.2573 51.9346 84.2559 42.9285 84.2559C33.9238 84.2559 26.623 91.2573 26.623 99.8951Z" fill="#9D9DBF"/>
<path d="M39.5137 116.239C31.0016 116.239 25.9199 110.129 25.9199 99.8944C25.9199 90.8828 33.5498 83.5508 42.9285 83.5508C52.3082 83.5508 59.939 90.8823 59.939 99.8944C59.939 110.893 53.2579 116.239 39.5137 116.239ZM42.9285 84.9599C34.3251 84.9599 27.3262 91.6599 27.3262 99.8949C27.3262 113.376 35.8495 114.831 39.5137 114.831C52.4896 114.831 58.5327 110.086 58.5327 99.8949C58.5327 91.6599 51.5329 84.9599 42.9285 84.9599Z" fill="#364153"/>
<path d="M39.512 115.535C47.009 115.535 53.0866 109.257 53.0866 101.513C53.0866 93.7689 47.009 87.4912 39.512 87.4912C32.015 87.4912 25.9375 93.7689 25.9375 101.513C25.9375 109.257 32.015 115.535 39.512 115.535Z" fill="#B2B2D1"/>
<path d="M39.512 116.239C31.6394 116.239 25.2344 109.633 25.2344 101.513C25.2344 93.3932 31.6394 86.7871 39.512 86.7871C47.3847 86.7871 53.7897 93.3932 53.7897 101.513C53.7897 109.633 47.3847 116.239 39.512 116.239ZM39.512 88.1958C32.4147 88.1958 26.6406 94.1703 26.6406 101.513C26.6406 108.856 32.4147 114.83 39.512 114.83C46.6094 114.83 52.3834 108.856 52.3834 101.513C52.3834 94.1703 46.6094 88.1958 39.512 88.1958Z" fill="#364153"/>
<path d="M93.2047 102.384C92.4204 102.384 91.6545 101.991 91.2111 101.274L86.0539 92.9517C85.3714 91.8501 85.7093 90.4025 86.809 89.7188C87.9092 89.0342 89.3543 89.3742 90.0364 90.4753L95.1936 98.798C95.8761 99.8996 95.5381 101.347 94.4384 102.031C94.0536 102.27 93.6261 102.384 93.2047 102.384Z" fill="#364153"/>
<path d="M38.856 108.119C42.8356 108.119 46.0616 104.723 46.0616 100.533C46.0616 96.3437 42.8356 92.9473 38.856 92.9473C34.8765 92.9473 31.6504 96.3437 31.6504 100.533C31.6504 104.723 34.8765 108.119 38.856 108.119Z" fill="#F5F5F5"/>
<path d="M38.856 108.824C34.4952 108.824 30.9473 105.105 30.9473 100.534C30.9473 95.9625 34.4952 92.2432 38.856 92.2432C43.2168 92.2432 46.7648 95.9625 46.7648 100.534C46.7648 105.105 43.2168 108.824 38.856 108.824ZM38.856 93.6518C35.2705 93.6518 32.3535 96.7391 32.3535 100.534C32.3535 104.328 35.2705 107.415 38.856 107.415C42.4415 107.415 45.3585 104.328 45.3585 100.534C45.3585 96.7391 42.4415 93.6518 38.856 93.6518Z" fill="#364153"/>
<path d="M43.4623 80.1553C54.4588 80.1553 63.3734 89.735 63.3734 101.553H23.5508C23.5508 97.6775 24.5094 94.0431 26.1856 90.9075" fill="#FFDE91"/>
<path d="M63.3734 102.257H23.5508C23.1622 102.257 22.8477 101.942 22.8477 101.553C22.8477 97.6974 23.7875 93.9016 25.5655 90.5753C25.7488 90.233 26.1744 90.1029 26.517 90.287C26.8592 90.4706 26.9881 90.8974 26.8048 91.2402C25.2439 94.1603 24.3716 97.4683 24.2647 100.849H62.6591C62.3136 89.7629 53.8348 80.8598 43.4619 80.8598C43.0733 80.8598 42.7588 80.5443 42.7588 80.1555C42.7588 79.7667 43.0733 79.4512 43.4619 79.4512C54.8286 79.4512 64.0761 89.3657 64.0761 101.553C64.0766 101.942 63.7616 102.257 63.3734 102.257Z" fill="#364153"/>
<path d="M91.8369 82.423C80.6877 83.2537 74.4444 102.661 81.6824 107.442C84.3875 109.229 83.6849 95.4037 97.1807 93.9016C102.109 93.079 119.041 90.1983 109.172 83.4415C106.985 81.9446 104.744 81.1097 102.58 80.7181C102.58 80.7181 100.214 79.8757 100.214 75.8301" fill="#FFDE91"/>
<path d="M82.1404 108.305C81.9004 108.305 81.6112 108.238 81.2952 108.03C78.1058 105.923 77.0446 101.075 78.5235 95.3757C80.1388 89.1542 84.9777 82.2274 91.7844 81.7203C92.1669 81.6931 92.5091 81.9828 92.5377 82.3706C92.5663 82.7585 92.2757 83.0965 91.8885 83.1252C85.7708 83.5806 81.3773 89.9787 79.8843 95.7302C78.5615 100.827 79.3982 105.09 82.0691 106.854C82.0958 106.871 82.1165 106.883 82.1301 106.889C82.4244 106.705 82.9213 105.557 83.3226 104.63C84.8948 100.997 87.8207 94.2343 97.1024 93.2008C103.307 92.164 110.874 90.3544 111.47 87.6502C111.752 86.3698 110.16 84.9705 108.775 84.022C106.84 82.6979 104.714 81.8194 102.454 81.4104L102.344 81.3808C102.228 81.3395 99.5104 80.3206 99.5104 75.8293C99.5104 75.4405 99.8254 75.125 100.214 75.125C100.602 75.125 100.917 75.4405 100.917 75.8293C100.917 79.0176 102.52 79.9144 102.78 80.0384C105.208 80.4882 107.491 81.4372 109.569 82.8594C112.104 84.5949 113.206 86.3092 112.843 87.954C112.013 91.7203 103.573 93.5483 97.2955 94.5963C88.7863 95.5448 86.1735 101.583 84.6126 105.19C83.8841 106.873 83.4037 107.984 82.5107 108.251C82.4085 108.281 82.2829 108.305 82.1404 108.305Z" fill="#364153"/>
<path d="M24.1582 72.2459C24.1582 74.3894 26.1776 76.1427 28.6451 76.1427H53.8976C56.3655 76.1427 58.3849 74.3904 58.3849 72.2459C58.3849 70.1029 56.3655 68.3496 53.8976 68.3496H28.6451C26.1776 68.3496 24.1582 70.1034 24.1582 72.2459Z" fill="#E0F2F1"/>
<path d="M53.8976 76.8473H28.6451C25.7834 76.8473 23.4551 74.7831 23.4551 72.2462C23.4551 69.7097 25.7834 67.6455 28.6451 67.6455H53.8976C56.7598 67.6455 59.088 69.7097 59.088 72.2462C59.088 74.7831 56.7598 76.8473 53.8976 76.8473ZM28.6451 69.0542C26.5587 69.0542 24.8613 70.4863 24.8613 72.2462C24.8613 74.0065 26.5587 75.4386 28.6451 75.4386H53.8976C55.9845 75.4386 57.6818 74.0065 57.6818 72.2462C57.6818 70.4863 55.984 69.0542 53.8976 69.0542H28.6451Z" fill="#364153"/>
<path d="M24.1582 72.2459C24.1582 74.3894 26.1776 76.1427 28.6451 76.1427H53.8976C56.3655 76.1427 58.3849 74.3904 58.3849 72.2459C58.3849 70.1029 56.3655 68.3496 53.8976 68.3496H28.6451C26.1776 68.3496 24.1582 70.1034 24.1582 72.2459Z" fill="#E0F2F1"/>
<path d="M53.8976 76.8473H28.6451C25.7834 76.8473 23.4551 74.7831 23.4551 72.2462C23.4551 69.7097 25.7834 67.6455 28.6451 67.6455H53.8976C56.7598 67.6455 59.088 69.7097 59.088 72.2462C59.088 74.7831 56.7598 76.8473 53.8976 76.8473ZM28.6451 69.0542C26.5587 69.0542 24.8613 70.4863 24.8613 72.2462C24.8613 74.0065 26.5587 75.4386 28.6451 75.4386H53.8976C55.9845 75.4386 57.6818 74.0065 57.6818 72.2462C57.6818 70.4863 55.984 69.0542 53.8976 69.0542H28.6451Z" fill="#364153"/>
<path d="M53.9901 61.4138H60.4715C61.8918 61.4138 63.1321 62.436 63.479 63.8944L71.2157 90.8846H70.342C70.762 92.6416 69.7551 94.4273 68.0934 94.8697C66.4326 95.312 64.746 94.247 64.327 92.49L58.4798 67.9799H43.6696C42.7134 67.9799 41.8106 67.5132 41.2232 66.7145C40.6354 65.9172 40.4292 64.8762 40.6621 63.8949L47.7843 35.7092L48.644 34.4179C49.0631 32.6604 49.89 32.8858 51.5498 33.3295C53.211 33.7718 54.2184 33.8348 53.8003 35.5918" fill="#76A7B5"/>
<path d="M67.3302 95.6747C66.6759 95.6747 66.0299 95.4972 65.4482 95.1498C64.5379 94.6055 63.8962 93.719 63.6421 92.6541L57.9243 68.6845H43.6692C42.4973 68.6845 41.3713 68.1046 40.6565 67.1322C39.9426 66.1635 39.6946 64.9234 39.9777 63.7322L47.1023 35.5362C47.122 35.4587 47.1543 35.385 47.1988 35.3183L47.9906 34.1285C48.1279 33.5984 48.3848 32.9152 48.9848 32.5564C49.7268 32.1132 50.6057 32.3479 51.7181 32.6447C51.8835 32.6888 52.0312 32.7264 52.1727 32.7621C53.5087 33.102 55.0232 33.4871 54.4837 35.7541C54.3937 36.1325 54.014 36.3664 53.6367 36.2757C53.2588 36.1856 53.0254 35.8057 53.1159 35.4273C53.3277 34.536 53.2917 34.4994 51.8268 34.1271C51.6806 34.09 51.5273 34.051 51.3688 34.0087C50.6263 33.8101 49.9373 33.627 49.7057 33.765C49.6256 33.8129 49.4704 33.9825 49.3274 34.5802C49.3082 34.6609 49.2745 34.738 49.2285 34.807L48.4359 35.9978L41.3432 64.0674C41.1613 64.8333 41.3268 65.67 41.7881 66.2959C42.246 66.9185 42.9313 67.2754 43.6692 67.2754H58.4793C58.8046 67.2754 59.0873 67.4994 59.1632 67.8159L65.0104 92.3259C65.1759 93.0185 65.587 93.5913 66.1696 93.9397C66.7021 94.2576 67.3209 94.3468 67.9124 94.1891C69.2066 93.8444 69.9895 92.4358 69.6581 91.0482C69.6084 90.8388 69.6567 90.6177 69.7898 90.4486C69.9112 90.2946 70.0902 90.1993 70.2829 90.1829L62.8026 64.0886C62.5223 62.9152 61.567 62.1179 60.4706 62.1179H53.9892C53.6006 62.1179 53.286 61.8023 53.286 61.4135C53.286 61.0248 53.6006 60.7092 53.9892 60.7092H60.4706C62.2204 60.7092 63.7392 61.9517 64.162 63.7312L71.8902 90.6904C71.9512 90.9031 71.909 91.1318 71.7763 91.3084C71.6437 91.4849 71.4351 91.5892 71.2148 91.5892H71.1374C71.1806 93.4063 70.0213 95.085 68.2734 95.5507C67.9612 95.6339 67.6452 95.6747 67.3302 95.6747Z" fill="#364153"/>
<path d="M63.375 95.1987C63.729 97.0661 65.0288 97.507 68.9251 96.7675C72.8218 96.0275 76.9261 94.9973 76.5727 93.1322C76.2202 91.2648 71.8969 90.0792 68.0016 90.8183C64.1063 91.5583 63.0225 93.3313 63.375 95.1987Z" fill="#A5A5C2"/>
<path d="M66.0488 97.812C64.0749 97.812 63.0061 97.0231 62.685 95.3299C62.3981 93.8091 62.6902 91.111 67.8713 90.1264C68.693 89.9705 69.5508 89.8916 70.4213 89.8916C73.53 89.8916 76.8783 90.9594 77.2641 93.0014C77.4942 94.2162 76.5989 95.2341 74.602 96.0263C72.9769 96.6714 70.7845 97.1311 69.0563 97.4593C67.807 97.6969 66.8231 97.812 66.0488 97.812ZM70.4217 91.3003C69.6389 91.3003 68.8692 91.3707 68.1333 91.5101C66.0469 91.9069 63.6474 92.846 64.0664 95.0679C64.2342 95.9535 64.5867 96.4033 66.0488 96.4033C66.7341 96.4033 67.6322 96.2958 68.7947 96.0756C70.462 95.7586 72.5695 95.3187 74.0841 94.7167C74.6639 94.4866 76.0003 93.8842 75.8827 93.263C75.7078 92.3347 73.4217 91.3003 70.4217 91.3003Z" fill="#364153"/>
<path d="M81.4961 54.4471C81.4961 59.3487 87.8664 62.4384 93.655 62.4384C99.4431 62.4384 99.9794 58.465 99.9794 53.5629C99.9794 48.6613 98.8684 44.6875 93.0798 44.6875C87.2936 44.687 81.4961 49.5455 81.4961 54.4471Z" fill="#BEBED6"/>
<path d="M93.655 63.1424C87.4694 63.1424 80.793 59.818 80.793 54.4468C80.793 49.1658 86.8792 43.9824 93.0803 43.9824C99.8186 43.9824 100.683 49.1019 100.683 53.5622C100.683 58.4098 100.14 63.1424 93.655 63.1424ZM93.0798 45.3915C87.6902 45.3915 82.1987 49.9617 82.1987 54.4473C82.1987 58.8061 88.1223 61.7342 93.6545 61.7342C98.4344 61.7342 99.2758 59.0996 99.2758 53.5631C99.2762 48.6582 98.2225 45.3915 93.0798 45.3915Z" fill="#364153"/>
<path d="M73.1291 61.6311C73.7774 62.9313 75.7011 63.1759 77.4046 62.1767L83.795 58.4269C85.498 57.4263 86.5152 55.9336 86.053 55.109C85.5908 54.284 83.7275 54.2437 81.9116 55.0189L75.2525 57.8597C73.4366 58.634 72.4803 60.3309 73.1291 61.6311Z" fill="#9797B5"/>
<path d="M75.2775 63.4958C74.0212 63.4953 72.9825 62.9164 72.4987 61.9454C72.1631 61.273 72.1326 60.4836 72.412 59.7216C72.8039 58.6543 73.7381 57.7391 74.9756 57.2109L81.6347 54.3701C82.56 53.9752 83.5401 53.7578 84.3961 53.7578C85.4958 53.7578 86.3011 54.1151 86.6648 54.7636C87.3361 55.9614 86.2542 57.7973 84.1495 59.0341L77.7586 62.784C76.965 63.2498 76.1072 63.4958 75.2775 63.4958ZM84.3961 55.1669C83.7253 55.1669 82.9411 55.344 82.1859 55.6661L75.5269 58.5068C74.6578 58.8778 73.987 59.5136 73.732 60.2075C73.6298 60.486 73.5511 60.9039 73.7569 61.3157C74.0011 61.8059 74.5551 62.0867 75.2775 62.0872C75.8498 62.0872 76.4784 61.9026 77.048 61.5688L83.4384 57.8185C85.0636 56.8639 85.5839 55.713 85.4386 55.4529C85.3744 55.3383 85.0434 55.1669 84.3961 55.1669Z" fill="#364153"/>
<path d="M73.1291 61.6311C73.7774 62.9313 75.7011 63.1759 77.4046 62.1767L83.795 58.4269C85.498 57.4263 86.5152 55.9336 86.053 55.109C85.5908 54.284 83.7275 54.2437 81.9116 55.0189L75.2525 57.8597C73.4366 58.634 72.4803 60.3309 73.1291 61.6311Z" fill="#9797B5"/>
<path d="M75.2775 63.4958C74.0212 63.4953 72.9825 62.9164 72.4987 61.9454C72.1631 61.273 72.1326 60.4836 72.412 59.7216C72.8039 58.6543 73.7381 57.7391 74.9756 57.2109L81.6347 54.3701C82.56 53.9752 83.5401 53.7578 84.3961 53.7578C85.4958 53.7578 86.3011 54.1151 86.6648 54.7636C87.3361 55.9614 86.2542 57.7973 84.1495 59.0341L77.7586 62.784C76.965 63.2498 76.1072 63.4958 75.2775 63.4958ZM84.3961 55.1669C83.7253 55.1669 82.9411 55.344 82.1859 55.6661L75.5269 58.5068C74.6578 58.8778 73.987 59.5136 73.732 60.2075C73.6298 60.486 73.5511 60.9039 73.7569 61.3157C74.0011 61.8059 74.5551 62.0867 75.2775 62.0872C75.8498 62.0872 76.4784 61.9026 77.048 61.5688L83.4384 57.8185C85.0636 56.8639 85.5839 55.713 85.4386 55.4529C85.3744 55.3383 85.0434 55.1669 84.3961 55.1669Z" fill="#364153"/>
<path d="M68.297 42.2962C65.5961 39.8728 64.524 36.8564 65.9012 35.56C67.2798 34.2617 70.5859 35.1769 73.2868 37.6011L76.6323 40.6044L72.3714 46.0774L68.297 42.2962Z" fill="white"/>
<path d="M72.3712 46.7824C72.1945 46.7824 72.0238 46.7157 71.8931 46.5946L67.8192 42.8128C65.856 41.052 64.6185 38.8775 64.5979 37.1473C64.5881 36.2889 64.8721 35.563 65.4196 35.047C65.9624 34.5361 66.7349 34.2656 67.6527 34.2656C69.4856 34.2656 71.8242 35.3428 73.7563 37.0763L77.1018 40.0796C77.3774 40.3266 77.4145 40.7454 77.1871 41.0375L72.9262 46.5105C72.8052 46.666 72.6243 46.7636 72.4284 46.7796C72.4087 46.7815 72.3899 46.7824 72.3712 46.7824ZM67.6523 35.6743C67.2665 35.6743 66.7326 35.7433 66.3824 36.0734C66.1256 36.3152 65.9985 36.6707 66.0037 37.1299C66.0196 38.4582 67.1038 40.2801 68.766 41.7714L72.2873 45.0394L75.674 40.6895L72.8174 38.1253C71.1585 36.6369 69.1307 35.6743 67.6523 35.6743Z" fill="#364153"/>
<path d="M95.1655 62.4051C99.6514 62.4051 103.288 58.4312 103.288 53.5292C103.288 48.6272 99.6514 44.6533 95.1655 44.6533C90.6795 44.6533 87.043 48.6272 87.043 53.5292C87.043 58.4312 90.6795 62.4051 95.1655 62.4051Z" fill="#9797B5"/>
<path d="M95.1655 63.1092C90.2989 63.1092 86.3398 58.8114 86.3398 53.529C86.3398 48.2465 90.2989 43.9492 95.1655 43.9492C100.032 43.9492 103.991 48.2465 103.991 53.529C103.991 58.8114 100.032 63.1092 95.1655 63.1092ZM95.1655 45.3574C91.0742 45.3574 87.7461 49.0232 87.7461 53.5285C87.7461 58.0343 91.0747 61.7001 95.1655 61.7001C99.2563 61.7001 102.585 58.0343 102.585 53.5285C102.585 49.0232 99.2563 45.3574 95.1655 45.3574Z" fill="#364153"/>
<path d="M45.8478 40.7248L41.8438 59.9017L62.6192 63.2824L68.8916 33.2416L56.6459 31.2488C56.6464 31.2497 48.1494 29.7012 45.8478 40.7248Z" fill="white"/>
<path d="M62.6201 63.9867C62.5826 63.9867 62.5446 63.9838 62.5066 63.9773L41.7312 60.5965C41.5418 60.566 41.373 60.4585 41.2643 60.3002C41.1555 60.1415 41.1162 59.9452 41.1555 59.757L45.1596 40.5801C47.0646 31.4548 53.0787 30.4697 55.5762 30.4697C56.2493 30.4697 56.6862 30.5402 56.7668 30.5542L69.0044 32.5461C69.1938 32.5766 69.363 32.6837 69.4713 32.8424C69.5801 33.0006 69.619 33.1969 69.5796 33.3852L63.3073 63.4255C63.2383 63.7575 62.9468 63.9867 62.6201 63.9867ZM42.6827 59.3245L62.0684 62.4789L68.0529 33.8186L56.5334 31.9436C56.5094 31.9394 56.1546 31.8784 55.5762 31.8784C49.1112 31.8784 47.1002 38.1652 46.5363 40.8684L42.6827 59.3245Z" fill="#364153"/>
<path d="M75.2637 57.8548C75.2637 57.8548 76.3685 57.7463 76.3685 58.9624C76.3685 60.1786 77.5891 61.3989 79.128 60.6106C80.6679 59.8213 81.9213 58.3872 79.4871 55.9475C77.0505 53.5077 75.2637 57.8548 75.2637 57.8548Z" fill="#666666"/>
<path d="M78.1648 61.0954C78.1643 61.0954 78.1643 61.0954 78.1648 61.0954C76.9493 61.095 76.1332 59.992 76.1332 58.9623C76.1332 58.2002 75.6307 58.0866 75.3312 58.0866L74.9004 58.1213L75.0462 57.7649C75.093 57.6508 76.2157 54.9688 77.9899 54.9688C78.5543 54.9688 79.113 55.242 79.6516 55.7811C80.7307 56.862 81.2056 57.8645 81.0654 58.7594C80.9384 59.5685 80.322 60.2615 79.234 60.8189C78.8768 61.0025 78.5168 61.0954 78.1648 61.0954ZM75.6185 57.6438C76.1341 57.7424 76.602 58.1251 76.602 58.9623C76.602 59.7657 77.2301 60.6254 78.1643 60.6259C78.4413 60.6259 78.7296 60.5503 79.0202 60.401C79.9671 59.9159 80.4991 59.3388 80.6018 58.6866C80.7181 57.948 80.2868 57.0822 79.3202 56.1135C78.873 55.6656 78.4259 55.4388 77.9899 55.4388C76.8387 55.4388 75.949 56.9789 75.6185 57.6438Z" fill="#364153"/>
<path d="M56.3883 39.5724C57.5902 39.0719 58.1157 36.2799 58.6857 37.3331L63.9385 48.3802L74.4863 54.312C74.4886 54.313 74.491 54.3139 74.4924 54.3149L74.6194 54.3862L74.6414 54.4003C75.6624 54.9102 77.8721 54.2731 77.8721 54.2731C79.2886 53.5429 80.2843 54.5877 80.2843 54.5877C80.2843 54.5877 83.4816 57.9994 81.2752 59.1108C80.9921 59.2536 80.7146 59.2198 80.6649 59.0127C80.5252 58.4112 80.1783 57.2937 79.3843 56.3292C79.3843 56.3292 80.37 57.6862 80.5004 59.1808C80.4516 59.4428 80.2922 59.7616 79.8254 59.9185C79.3543 60.0762 78.998 60.0175 78.9047 59.7926C78.8039 59.1277 78.5668 57.836 78.1707 57.2402C78.1707 57.2402 78.6422 58.0421 78.6844 59.7673C78.6844 60.0063 78.5602 60.2894 77.964 60.2688C77.109 60.2392 76.7822 58.6028 76.7822 58.6028C76.4986 57.4134 75.9568 57.8351 75.2654 57.851C75.1547 57.8632 75.2654 57.851 74.3799 57.72C74.3794 57.72 74.3752 57.7205 74.3752 57.7205C74.0138 57.7163 73.6482 57.643 73.306 57.4881L60.9502 51.6924C60.4805 51.4807 60.1027 51.1388 59.8758 50.7205L53.6063 39.1465C53.0354 38.0924 55.1864 40.0734 56.3883 39.5724Z" fill="#F7C8B6"/>
<path d="M78.0223 60.9754L77.9375 60.974C76.5945 60.9271 76.1632 59.1066 76.0906 58.7427C76.0573 58.6047 76.024 58.5211 76.0015 58.4741C75.9317 58.4788 75.8647 58.4915 75.7953 58.5023C75.6575 58.5239 75.4873 58.5507 75.3007 58.5563C75.1807 58.5648 75.1634 58.5666 74.9829 58.5338C74.8934 58.5169 74.7172 58.4845 74.3239 58.4258C73.8617 58.4145 73.4215 58.3159 73.0142 58.1314L60.65 52.3319C60.0528 52.0629 59.5545 51.6084 59.2559 51.0581L52.9882 39.4827C52.9025 39.3245 52.6751 38.9047 52.9161 38.499C53.0539 38.2671 53.3023 38.1285 53.5803 38.1285C53.8484 38.1285 54.1029 38.2539 54.4878 38.4441C54.897 38.646 55.5153 38.9512 55.9381 38.9512C56.0117 38.9512 56.0726 38.9413 56.1181 38.9225C56.4598 38.7798 56.8447 38.0914 57.0992 37.6355C57.4714 36.9692 57.7925 36.3936 58.4182 36.3936C58.6728 36.3936 59.0332 36.4983 59.3037 36.9979L64.4768 47.8759L74.8165 53.6904C74.8236 53.6941 74.8301 53.6979 74.8372 53.7016L74.9642 53.773C74.9679 53.7749 74.9736 53.7786 74.9796 53.7824C75.0847 53.8289 75.3073 53.8946 75.7287 53.8946C76.5115 53.8946 77.3881 53.6749 77.6187 53.6129C78.0312 53.4124 78.454 53.3105 78.8773 53.3105C80.0056 53.3105 80.7153 54.0214 80.7922 54.1022C81.0256 54.351 83.0286 56.548 82.7206 58.2882C82.6423 58.7305 82.3826 59.3419 81.5904 59.741C81.3851 59.8447 81.1676 59.9006 80.9609 59.903C80.7593 60.2176 80.4486 60.4533 80.0478 60.5876C79.6531 60.7205 79.2861 60.7472 78.9795 60.6688C78.7573 60.8557 78.4414 60.9754 78.0223 60.9754ZM76.0489 57.0631C76.7698 57.0631 77.2456 57.5266 77.464 58.4408C77.5714 58.9653 77.8212 59.4592 77.9717 59.556C77.9065 58.2361 77.562 57.5979 77.5582 57.5914C77.3759 57.2608 77.4837 56.8406 77.8057 56.6443C78.1273 56.4485 78.5445 56.5368 78.7536 56.8509C79.1337 57.4219 79.3793 58.4168 79.5298 59.2728C79.5518 59.2667 79.5753 59.2597 79.6001 59.2517C79.7145 59.2132 79.7628 59.1672 79.7853 59.1245C79.6339 57.8947 78.8215 56.7556 78.8131 56.7438C78.5909 56.4353 78.6528 56.0057 78.9532 55.7737C79.2542 55.5413 79.684 55.5892 79.925 55.8822C80.6056 56.7091 80.9904 57.6336 81.2014 58.3121C81.2904 58.2173 81.3204 58.1262 81.335 58.0431C81.4686 57.2918 80.5001 55.8526 79.7693 55.0708H79.7698C79.7689 55.0708 79.4047 54.7196 78.8764 54.7196C78.6556 54.7196 78.4254 54.7806 78.1925 54.9009C78.1517 54.9215 78.109 54.9389 78.0654 54.9511C78.0157 54.9657 76.8303 55.3033 75.7282 55.3033C75.1517 55.3033 74.6932 55.2145 74.3272 55.0314C74.3037 55.0196 74.2807 55.007 74.2587 54.9924L74.1636 54.9384C74.1561 54.9347 74.149 54.9309 74.1415 54.9267L63.5937 48.9949C63.4667 48.9235 63.3659 48.815 63.3031 48.6835L58.3536 38.2741C58.3442 38.291 58.3348 38.3074 58.3259 38.3234C57.9354 39.0226 57.4493 39.8931 56.6576 40.2227C56.1668 40.4275 55.5307 40.3702 54.9678 40.1847L60.4915 50.3861C60.6439 50.6679 60.9087 50.904 61.2364 51.052L73.6015 56.8518C73.8345 56.957 74.0993 57.0143 74.3811 57.0176H74.3815C74.4143 57.0176 74.4476 57.0204 74.4804 57.0251C74.9384 57.0932 75.1381 57.1303 75.2384 57.1486L75.2497 57.1505C75.3795 57.143 75.4812 57.1256 75.5773 57.1106C75.7273 57.0871 75.882 57.0631 76.0489 57.0631Z" fill="#364153"/>
<path d="M57.885 32.8301L62.1802 42.5761L55.9397 46.285L51.5391 38.8873" fill="white"/>
<path d="M55.9405 46.9892C55.7009 46.9892 55.4675 46.8666 55.3358 46.6455L50.9351 39.2477C50.7364 38.9139 50.8456 38.4814 51.1794 38.2823C51.5122 38.0832 51.9439 38.1931 52.1431 38.527L56.1842 45.3204L61.2851 42.2885L57.2417 33.114C57.0847 32.7581 57.2455 32.3421 57.6008 32.1852C57.9565 32.0279 58.3714 32.1895 58.528 32.5449L62.8236 42.2909C62.9675 42.6172 62.8451 42.9994 62.5395 43.1811L56.299 46.8901C56.1861 46.9577 56.0628 46.9892 55.9405 46.9892Z" fill="#364153"/>
<path d="M51.6798 19.8153C50.7127 27.1308 51.8762 34.8432 62.3415 37.345C73.8357 40.0923 75.2241 30.8342 75.7848 25.0141C76.4926 17.6708 75.0718 8.95222 62.2984 8.05914C56.3016 7.63936 52.7584 11.6526 51.6798 19.8153Z" fill="#F7C8B6"/>
<path d="M66.1794 38.5471C66.1789 38.5471 66.1789 38.5471 66.1779 38.5471C64.9578 38.5471 63.612 38.3734 62.1781 38.0302C53.2967 35.9073 49.6344 29.9187 50.9825 19.7229C52.1229 11.0907 55.9498 6.91124 62.3469 7.35637C67.4065 7.71041 71.1776 9.31627 73.5551 12.1298C76.0784 15.1162 77.0365 19.3524 76.4844 25.0819C76.0634 29.4524 75.1869 38.5471 66.1794 38.5471ZM61.4609 8.73356C56.412 8.73356 53.3558 12.4928 52.3761 19.9074C51.1236 29.3853 54.3415 34.7081 62.5044 36.6596C63.8319 36.977 65.0679 37.138 66.1784 37.138C72.9739 37.1385 74.4744 31.279 75.0842 24.9466C75.5984 19.6154 74.7467 15.7209 72.4812 13.0403C70.3583 10.5277 66.9153 9.08807 62.2484 8.7622C61.9812 8.74295 61.7183 8.73356 61.4609 8.73356Z" fill="#364153"/>
<path d="M52.2629 12.031C59.881 1.59388 77.1568 6.25557 77.4728 14.9709C77.7901 23.6871 67.502 18.7597 67.502 18.7597C67.502 18.7597 64.854 18.3573 61.1513 20.6365C60.5063 21.0342 60.2476 21.7291 58.8578 20.4867C57.4271 19.2105 56.184 19.4358 55.1856 20.7938C54.9709 20.6632 54.7388 20.5299 54.4848 20.389C53.2229 19.6875 51.872 20.8759 51.872 22.8682C51.872 24.2788 52.4607 26.0631 53.3162 26.9862C53.1713 29.7584 53.7681 31.9306 53.7681 31.9306C51.2884 33.3988 45.5879 21.176 52.2629 12.031Z" fill="#9595B8"/>
<path d="M53.3275 32.756C51.8899 32.756 50.748 30.9266 50.1953 29.8363C47.8661 25.2404 47.342 17.5787 51.6944 11.6155C54.6044 7.6285 59.2835 5.3418 64.5316 5.3418C71.8628 5.3418 77.9828 9.64992 78.1745 14.9455C78.2472 16.9462 77.793 18.4713 76.8236 19.4781C75.9466 20.3895 74.6838 20.8515 73.0703 20.8515C73.0699 20.8515 73.0694 20.8515 73.0694 20.8515C70.5424 20.8515 67.8944 19.7133 67.3117 19.448C67.2433 19.4424 67.1331 19.4367 66.9883 19.4367C66.2228 19.4367 64.158 19.6124 61.5189 21.2365C61.4294 21.2919 61.3492 21.3563 61.271 21.4168C61.0108 21.6197 60.655 21.8967 60.1324 21.8967C59.6111 21.8967 59.0735 21.6239 58.3891 21.0121C57.3489 20.0842 56.5558 20.1176 55.7514 21.2112L55.3699 21.73L54.82 21.3952C54.6128 21.2689 54.3883 21.1407 54.1431 21.0041C54.0067 20.928 53.8713 20.8895 53.7405 20.8895C53.1799 20.8895 52.5752 21.6455 52.5752 22.8673C52.5752 24.1477 53.1269 25.7456 53.8314 26.5058L54.0339 26.7242L54.0185 27.0218C53.8816 29.6363 54.4403 31.7225 54.4464 31.7432L54.5875 32.2616L54.1258 32.5358C53.8802 32.6823 53.612 32.756 53.3275 32.756ZM64.5316 6.75092C61.7139 6.75092 56.4475 7.49093 52.8297 12.447C48.2219 18.7597 49.9117 26.1649 51.4492 29.1987C51.9827 30.2514 52.5002 30.8562 52.8789 31.1421C52.7214 30.2631 52.5424 28.8625 52.601 27.2322C51.7595 26.1691 51.168 24.3942 51.168 22.8687C51.168 20.9379 52.2738 19.4823 53.7395 19.4823C54.1117 19.4823 54.4774 19.5804 54.8247 19.7739C54.8936 19.8124 54.9611 19.8499 55.0272 19.8875C56.246 18.615 57.8177 18.6169 59.3242 19.9617C59.898 20.4744 60.1094 20.4895 60.1314 20.4895C60.1713 20.4895 60.3189 20.3744 60.407 20.3059C60.5238 20.2148 60.6461 20.1213 60.7816 20.0378C63.6208 18.2896 65.8886 18.029 66.9874 18.029C67.3544 18.029 67.5667 18.0586 67.6056 18.0647L67.7088 18.0802L67.8035 18.1253C67.8311 18.1384 70.5935 19.4443 73.0685 19.4443H73.0689C74.2863 19.4443 75.2078 19.1268 75.8102 18.5014C76.5039 17.7802 76.8269 16.6016 76.7683 14.9976C76.6047 10.45 71.1147 6.75092 64.5316 6.75092Z" fill="#364153"/>
<path d="M76.7505 19.2411C75.6518 17.2399 72.1245 15.348 65.1007 15.1546C58.0755 14.9602 53.5488 16.3332 53.5488 16.3332C53.5488 16.3332 59.6941 24.0723 65.9421 23.5999C74.6998 22.9388 72.8852 23.7751 76.151 25.2185C76.1524 25.2175 80.097 28.1245 76.7505 19.2411Z" fill="#C6A24C"/>
<path d="M77.3075 26.3771C76.6756 26.3771 76.0531 26.0038 75.8047 25.8353C75.0013 25.4751 74.4875 25.1483 74.0731 24.884C73.2266 24.3449 72.8019 24.0745 70.603 24.0745C69.5159 24.0745 68.052 24.1468 65.9947 24.3022C65.7917 24.3177 65.5897 24.3252 65.3867 24.3252C59.0689 24.3252 53.2433 17.0805 52.9986 16.772C52.8533 16.5894 52.8083 16.3466 52.8777 16.124C52.947 15.901 53.1219 15.7273 53.3455 15.6597C53.5227 15.6057 58.0691 14.2552 65.1205 14.451C71.4458 14.6252 75.9097 16.248 77.367 18.9024C77.383 18.9315 77.3966 18.9615 77.4088 18.993C79.205 23.7613 78.9139 25.1277 78.4597 25.786C78.1953 26.1672 77.7866 26.3771 77.3075 26.3771ZM76.4347 24.5745C76.4792 24.5942 76.5214 24.6182 76.5613 24.6464C76.7834 24.8046 77.1233 24.9685 77.308 24.9685C77.3263 24.9685 77.3342 24.9666 77.3342 24.9666C77.3249 24.9586 77.8738 24.2336 76.1117 19.54C75.6177 18.6807 73.4328 16.0888 65.082 15.8592C60.2117 15.7249 56.5489 16.3583 54.8324 16.7391C56.5986 18.676 61.2828 23.2443 65.8892 22.8982C67.9827 22.74 69.4803 22.6663 70.6034 22.6663C73.0906 22.6663 73.7961 23.0382 74.8283 23.6955C75.2328 23.9533 75.6927 24.2463 76.4347 24.5745Z" fill="#364153"/>
<path d="M70.3581 16.7475C63.6508 15.0557 60.1829 16.27 54.2959 16.7344C53.1812 16.8485 50.5717 17.2743 50.4325 16.4353C49.457 13.0029 51.6358 9.10277 55.2006 6.52964C58.0342 4.48522 62.1958 3.0315 65.9678 3.53626C70.1383 4.09362 73.1692 5.91594 75.1989 8.36417C77.2295 10.8129 78.527 14.087 77.1208 19.9888C77.1208 19.9888 76.8883 18.821 75.1469 18.0115" fill="#C6A24C"/>
<path d="M77.1214 20.6926C77.1172 20.6926 77.1125 20.6926 77.1083 20.6926C76.7783 20.6865 76.4966 20.4508 76.4324 20.1263C76.4267 20.1071 76.2064 19.2797 74.8522 18.6501C74.4997 18.4862 74.3469 18.0673 74.5105 17.7147C74.6741 17.3626 75.0917 17.209 75.4438 17.3724C76.0039 17.633 76.4333 17.9288 76.7624 18.2232C77.5921 13.1821 76.1057 10.5578 74.6591 8.81393C72.5521 6.27179 69.5966 4.73119 65.8761 4.23394C62.6511 3.80242 58.6241 4.92793 55.6128 7.10054C52.1183 9.62249 50.3099 13.2549 51.0889 16.1666C51.5675 16.3427 53.1922 16.1521 53.7449 16.0873C53.923 16.0666 54.0857 16.0473 54.2253 16.0328C55.6419 15.921 56.9005 15.7684 58.1169 15.6205C61.9766 15.1514 65.3089 14.7472 70.5308 16.0638C70.9077 16.1586 71.136 16.5418 71.0413 16.9188C70.9466 17.2963 70.5646 17.5245 70.1877 17.4297C65.2194 16.1769 62.1599 16.5488 58.2866 17.0188C57.0557 17.1686 55.7825 17.3231 54.3524 17.4358C54.2352 17.448 54.0791 17.4663 53.9089 17.486C52.1746 17.6903 50.0202 17.9429 49.7488 16.5953C48.7621 13.0549 50.7378 8.88342 54.7911 5.95766C57.4072 4.07007 61.7418 2.25761 66.0622 2.8375C70.0869 3.37513 73.4342 5.13031 75.7414 7.9138C78.4171 11.1405 79.0536 14.9148 77.8058 20.1517C77.7299 20.4696 77.4467 20.6926 77.1214 20.6926Z" fill="#364153"/>
<path d="M18.8241 73.5183V73.5192C18.2701 68.0226 19.0824 50.87 25.2099 45.0039H19.5193C13.7494 54.6729 14.0279 72.6524 14.1183 73.545L18.8241 73.5183Z" fill="white"/>
<path d="M13.484 74.2538L13.4194 73.6171C13.402 73.4485 12.8109 54.8746 18.9164 44.6436L19.1212 44.3008H26.9639L25.6959 45.5141C21.6909 49.3484 19.9926 58.599 19.5239 65.7996C19.7231 65.924 19.8558 66.1452 19.8558 66.3978C19.8558 66.6786 19.6917 66.9209 19.4545 67.034C19.3294 69.6654 19.3725 71.9389 19.5244 73.4481L19.6022 74.2186L13.484 74.2538ZM19.9233 45.709C14.9433 54.4407 14.7726 69.5611 14.8059 72.8372L18.0605 72.8189C17.6273 66.5786 18.6328 52.1934 23.6409 45.709H19.9233Z" fill="#364153"/>
<path d="M17.0809 96.0881C17.1277 95.8688 17.154 95.6434 17.154 95.4115C17.154 93.4553 15.4098 91.8701 13.2582 91.8701C11.5679 91.8701 10.134 92.8501 9.59445 94.2179C8.77133 93.8197 7.83242 93.5929 6.83539 93.5929C3.57898 93.5929 0.939453 95.9923 0.939453 98.9523C0.939453 101.813 3.40742 104.145 6.51195 104.298C7.18414 105.118 8.2557 105.653 9.46789 105.653C10.6909 105.653 11.7723 105.11 12.4426 104.276C13.0571 104.515 13.7326 104.648 14.4432 104.648C17.2487 104.648 19.5235 102.581 19.5235 100.03C19.523 98.3588 18.5434 96.8999 17.0809 96.0881Z" fill="white"/>
<path d="M9.46789 106.358C8.19336 106.358 7.0107 105.859 6.17633 104.98C2.82195 104.675 0.236328 102.079 0.236328 98.9526C0.236328 95.6089 3.19648 92.8888 6.83539 92.8888C7.66555 92.8888 8.49336 93.0353 9.26352 93.3151C10.0707 92.0065 11.5941 91.166 13.2582 91.166C15.7941 91.166 17.8571 93.071 17.8571 95.4117C17.8571 95.5173 17.8524 95.623 17.8435 95.7296C19.344 96.7311 20.2262 98.3065 20.2262 100.031C20.2262 102.965 17.6316 105.353 14.4427 105.353C13.8287 105.353 13.2277 105.265 12.6493 105.091C11.8266 105.891 10.6716 106.358 9.46789 106.358ZM6.83539 94.2974C3.97227 94.2974 1.64258 96.3855 1.64258 98.9526C1.64258 101.42 3.79648 103.459 6.54664 103.595L6.85789 103.61L7.0557 103.851C7.62711 104.549 8.50648 104.949 9.46789 104.949C10.4265 104.949 11.334 104.532 11.8946 103.834L12.2171 103.433L12.6966 103.619C13.2507 103.835 13.8385 103.944 14.4432 103.944C16.8568 103.944 18.8204 102.189 18.8204 100.031C18.8199 98.6708 18.0423 97.4275 16.7401 96.7048L16.284 96.4517L16.3932 95.9409C16.4316 95.762 16.4509 95.584 16.4509 95.4117C16.4509 93.8471 15.0188 92.5747 13.2582 92.5747C11.9068 92.5747 10.697 93.3391 10.2484 94.4773L9.97039 95.1821L9.28883 94.8524C8.53789 94.4895 7.68945 94.2974 6.83539 94.2974Z" fill="#364153"/>
<path d="M32.7258 50.3771C32.3522 50.3771 32.041 50.0827 32.0236 49.7047L31.8113 45.0369C31.7935 44.6481 32.094 44.3189 32.4816 44.3011C32.8782 44.2898 33.1988 44.5842 33.2161 44.9726L33.4285 49.6403C33.4463 50.0291 33.1458 50.3583 32.7582 50.3761C32.7474 50.3766 32.7366 50.3771 32.7258 50.3771Z" fill="#364153"/>
<path d="M99.9147 54.0605C99.5266 54.0605 99.2116 53.7455 99.2116 53.3562C99.2116 50.4821 97.2176 49.705 97.1327 49.6731C96.7708 49.5378 96.5824 49.135 96.7137 48.772C96.8454 48.4086 97.2438 48.2179 97.6057 48.3471C97.729 48.3907 100.617 49.4571 100.617 53.3562C100.618 53.745 100.303 54.0605 99.9147 54.0605Z" fill="#364153"/>
<path d="M34.0181 91.8169H25.875C25.4864 91.8169 25.1719 91.5013 25.1719 91.1125C25.1719 90.7237 25.4864 90.4082 25.875 90.4082H34.0181C34.4067 90.4082 34.7212 90.7237 34.7212 91.1125C34.7212 91.5013 34.4067 91.8169 34.0181 91.8169Z" fill="#364153"/>
<path d="M12.8756 98.2964C12.8132 98.2964 12.7495 98.2879 12.6867 98.2705C12.3126 98.1663 12.0937 97.778 12.1978 97.4028C12.4378 96.5384 12.9281 95.9059 13.6546 95.5218C15.1889 94.7113 17.2228 95.3917 17.3086 95.4208C17.6761 95.5471 17.8725 95.9472 17.7468 96.3153C17.6212 96.683 17.2228 96.8783 16.8557 96.7548C16.4268 96.6102 15.1331 96.3313 14.3071 96.7699C13.9331 96.9685 13.6865 97.299 13.5529 97.7803C13.4662 98.0921 13.1836 98.2964 12.8756 98.2964Z" fill="#364153"/>
<g opacity="0.24">
<path d="M94.2513 116.116H81.3672C80.9791 116.116 80.6641 115.8 80.6641 115.411C80.6641 115.023 80.9791 114.707 81.3672 114.707H94.2513C94.6394 114.707 94.9544 115.023 94.9544 115.411C94.9544 115.8 94.6394 116.116 94.2513 116.116Z" fill="#364153"/>
</g>
<g opacity="0.24">
<path d="M78.5255 116.117H76.4316C76.0435 116.117 75.7285 115.801 75.7285 115.412C75.7285 115.024 76.0435 114.708 76.4316 114.708H78.5255C78.9137 114.708 79.2287 115.024 79.2287 115.412C79.2287 115.801 78.9141 116.117 78.5255 116.117Z" fill="#364153"/>
</g>
<g opacity="0.24">
<path d="M38.2834 116.178H29.6152C29.2266 116.178 28.9121 115.863 28.9121 115.474C28.9121 115.085 29.2266 114.77 29.6152 114.77H38.2834C38.672 114.77 38.9865 115.085 38.9865 115.474C38.9865 115.863 38.672 116.178 38.2834 116.178Z" fill="#364153"/>
</g>
<g opacity="0.24">
<path d="M26.4748 116.178H23.6328C23.2442 116.178 22.9297 115.863 22.9297 115.474C22.9297 115.085 23.2442 114.77 23.6328 114.77H26.4748C26.8634 114.77 27.178 115.085 27.178 115.474C27.178 115.863 26.8634 116.178 26.4748 116.178Z" fill="#364153"/>
</g>
<g opacity="0.3">
<path d="M27.0727 30.8374H10.0215C9.63289 30.8374 9.31836 30.5223 9.31836 30.133C9.31836 29.7438 9.63289 29.4287 10.0215 29.4287H27.0727C27.4613 29.4287 27.7759 29.7438 27.7759 30.133C27.7759 30.5223 27.4609 30.8374 27.0727 30.8374Z" fill="#364153"/>
</g>
<g opacity="0.3">
<path d="M98.2694 12.8579H88.9961C88.608 12.8579 88.293 12.5428 88.293 12.1535C88.293 11.7643 88.608 11.4492 88.9961 11.4492H98.2694C98.6575 11.4492 98.9725 11.7643 98.9725 12.1535C98.9725 12.5428 98.6575 12.8579 98.2694 12.8579Z" fill="#364153"/>
</g>
<g opacity="0.1">
<path d="M100.948 62.3542C100.948 62.3542 94.4689 67.4943 90.4151 65.8152C90.4151 65.8152 92.435 73.9055 90.4151 79.2997C90.4151 79.2997 95.1275 79.9745 93.8933 82.7833C92.659 85.5922 83.3483 87.3906 83.3483 94.9198C83.3483 102.449 83.9089 89.8623 99.8389 89.8623C115.768 89.8623 109.36 83.3444 107.732 82.5551C107.732 82.5551 121.686 88.7762 102.975 92.7627C84.2642 96.7487 85.145 100.749 82.6194 107.443C82.6194 107.443 72.6514 101.901 85.6845 84.9818C85.6845 84.9818 89.9267 77.3891 85.8059 60.5098C85.8059 60.5098 93.7892 64.8677 100.18 60.5098L100.948 62.3542Z" fill="#364153"/>
</g>
<g opacity="0.15">
<path d="M28.7173 78.4002C28.7173 78.4002 22.8842 88.9632 31.4098 88.9632H34.9995C34.9995 88.9632 37.3728 88.8721 37.3728 91.3405C37.3728 93.8099 35.5175 93.8099 35.5175 93.8099H28.2687C28.2687 93.8099 26.0248 98.6274 27.1466 98.6274H59.1772C59.1772 98.6274 59.0384 84.3574 45.3359 80.2502C45.3359 80.2502 63.3734 81.1052 63.3734 101.553H23.5508L25.0733 90.137C25.0733 90.137 21.0889 79.5238 26.9225 76.3774L56.5231 76.1426V78.4002H28.7173Z" fill="#364153"/>
</g>
<g opacity="0.15">
<path d="M26.9638 68.6387C26.9638 68.6387 24.231 73.6807 29.84 73.6807H52.2758C52.2758 73.6807 54.7438 73.3332 54.7438 69.574H57.1513L58.386 72.2457L56.046 75.6636H26.9239C26.9239 75.6645 20.8503 72.3824 26.9638 68.6387Z" fill="#364153"/>
</g>
<g opacity="0.15">
<path d="M3.23023 73.7383C3.23023 73.7383 1.82632 76.8115 6.29773 76.8115C10.7691 76.8115 26.9227 76.8115 26.9227 76.8115L24.7838 78.954L5.1432 79.5846C5.1432 79.5846 -0.792117 77.768 3.23023 73.7383Z" fill="#364153"/>
</g>
<g opacity="0.63">
<path d="M97.8555 65.7732C97.8555 65.7732 103.657 71.4064 105.127 80.1625C105.127 80.1625 105.908 74.3448 100.609 63.9434L97.8555 65.7732Z" fill="white"/>
</g>
<g opacity="0.15">
<path d="M27.7589 108.524C27.7589 108.524 42.1495 95.8984 55.177 110.972C55.177 110.972 59.1797 106.052 59.1797 101.553H25.9392C25.9392 101.553 25.23 105.61 27.7589 108.524Z" fill="#364153"/>
</g>
<g opacity="0.15">
<path d="M85.7026 112.279C85.7026 112.279 88.1513 91.6668 107.233 97.2826C107.233 97.2826 108.388 90.0924 113.148 94.8611L110.384 89.8623C110.384 89.8623 103.066 93.9075 96.4745 93.9075C89.8829 93.9075 82.6191 102.604 82.6191 107.442L85.7026 112.279Z" fill="#364153"/>
</g>
<g opacity="0.15">
<path d="M105.835 108.702C105.835 108.702 113.076 105.737 113.974 99.7725C113.974 99.7725 114.672 114.898 98.6172 115.154L105.835 108.702Z" fill="#364153"/>
</g>
<g opacity="0.63">
<path d="M43.1379 82.4736C43.1379 82.4736 40.661 83.4465 42.1291 85.0707C43.5977 86.6944 45.297 86.2887 50.5648 91.5651C54.4141 95.4215 54.7221 83.3512 43.1379 82.4736Z" fill="white"/>
</g>
<g opacity="0.63">
<path d="M103.429 83.7942C103.429 83.7942 110.384 85.3682 106.458 86.8285C102.532 88.2888 98.4936 86.9407 100.512 84.9188C102.081 83.3468 103.429 83.7942 103.429 83.7942Z" fill="white"/>
</g>
<g opacity="0.15">
<path d="M45.0975 60.4307C45.0975 60.4307 42.179 66.7137 47.115 66.7137H59.6793L66.7669 91.1148L64.2801 92.4037L58.8337 69.5742H44.0236C44.0236 69.5742 39.0754 68.8581 42.3098 60.3691L45.0975 60.4307Z" fill="#364153"/>
</g>
<g opacity="0.15">
<path d="M61.6309 63.1211L68.2046 63.2817L76.089 86.8296L73.0505 87.7898L67.082 65.5895L63.8326 65.4876L61.6309 63.1211Z" fill="#364153"/>
</g>
<g opacity="0.1">
<path d="M49.8078 39.5211L56.9872 52.3314L60.8188 54.5007L59.2423 58.9948L43.077 57.7246L41.8438 59.9019L62.6478 63.147L64.6728 53.4428L59.8728 50.7232L57.0978 45.5966L54.1545 37.1861C54.1545 37.1861 52.3873 35.1384 51.3781 36.1498C50.3694 37.1612 49.2472 38.5201 49.8078 39.5211Z" fill="#364153"/>
</g>
<g opacity="0.1">
<path d="M58.855 44.5508C58.855 44.5508 61.36 50.3079 62.4827 50.3079C63.6044 50.3079 71.9261 56.0388 75.0466 56.0388C78.1675 56.0388 78.9025 59.7942 78.9025 59.7942C78.9025 59.7942 75.813 57.5916 74.3767 57.7226C72.9405 57.8536 59.8727 50.723 59.8727 50.723L57.0977 45.5965L58.855 44.5508Z" fill="#364153"/>
</g>
<g opacity="0.1">
<path d="M67.6669 39.0947C67.6669 39.0947 76.1681 46.038 77.8509 46.038C79.5338 46.038 86.4933 46.038 86.4933 46.038L84.9122 47.9101L76.0425 46.8752L73.2609 44.934L72.3703 46.0783L67.3359 41.3345L67.6669 39.0947Z" fill="#364153"/>
</g>
<g opacity="0.15">
<path d="M61.4924 3.75781C61.4924 3.75781 52.7404 8.82801 53.7496 12.0867C54.7588 15.3454 63.6571 14.125 68.8776 14.125C74.099 14.125 74.4871 19.5187 68.8776 18.8444C63.269 18.1702 57.2108 18.6195 60.2404 19.7436C63.269 20.8677 71.5701 19.9685 74.2621 21.6538C76.9541 23.339 76.5055 18.62 76.5055 18.62C76.5055 18.62 78.8001 26.3263 77.2912 25.6708C75.7827 25.0153 73.1437 23.1995 69.7729 23.3826C66.4026 23.5667 59.3451 23.1634 54.2957 16.7343L50.4322 16.4352C50.4322 16.4352 48.3862 7.88609 61.4924 3.75781Z" fill="#C6EB0C" fill-opacity="0.5"/>
</g>
<g opacity="0.1">
<path d="M63.0761 23.2881C63.0761 23.2881 65.5244 25.0592 69.2477 25.0592C72.9705 25.0592 72.8575 29.8942 71.4035 32.3218C69.0517 36.2462 56.0988 36.3228 53.7677 29.3777C53.7677 29.3777 53.5764 38.5738 69.4464 37.3121C69.4464 37.3121 75.5182 33.4116 75.7183 25.648C75.7183 25.648 76.5621 23.9882 73.1674 23.6844C69.7727 23.3815 63.0761 23.2881 63.0761 23.2881Z" fill="#364153"/>
</g>
<g opacity="0.25">
<path d="M72.409 10.7313C71.9276 11.7018 70.5448 10.9271 68.8001 10.0589C67.0554 9.19164 65.6079 8.56103 66.0898 7.58953C66.5708 6.61897 68.3754 6.53446 70.1206 7.40218C71.8648 8.26944 72.8895 9.76026 72.409 10.7313Z" fill="white"/>
</g>
<path d="M69.248 32.809H66.2129C65.8248 32.809 65.5098 32.494 65.5098 32.1047C65.5098 31.7155 65.8248 31.4004 66.2129 31.4004H69.248C69.6362 31.4004 69.9512 31.7155 69.9512 32.1047C69.9512 32.494 69.6366 32.809 69.248 32.809Z" fill="#364153"/>
<g opacity="0.15">
<path d="M6.01667 73.7385C6.01667 73.7385 2.83573 52.5552 18.1728 52.5552C33.5098 52.5552 32.2118 68.3504 32.2118 68.3504C32.2118 68.3504 37.3948 49.7412 30.7001 49.7412H8.1012C8.1012 49.7407 0.815885 60.0868 6.01667 73.7385Z" fill="#364153"/>
</g>
<g opacity="0.15">
<path d="M32.2383 67.3878C32.2383 67.3878 33.4298 51.7015 42.8508 55.0734L43.4348 52.2767L33.2855 49.7402C33.2855 49.7402 35.5514 63.1346 32.2383 67.3878Z" fill="#364153"/>
</g>
<path d="M95.5622 59.3705C98.7182 59.3705 101.277 56.5617 101.277 53.0969C101.277 49.6321 98.7182 46.8232 95.5622 46.8232C92.4061 46.8232 89.8477 49.6321 89.8477 53.0969C89.8477 56.5617 92.4061 59.3705 95.5622 59.3705Z" fill="#E3F8FF"/>
<path d="M95.5627 60.0751C92.0236 60.0751 89.1445 56.9446 89.1445 53.0971C89.1445 49.2496 92.0241 46.1191 95.5627 46.1191C99.1013 46.1191 101.98 49.2496 101.98 53.0971C101.98 56.9446 99.1017 60.0751 95.5627 60.0751ZM95.5627 47.5273C92.7989 47.5273 90.5508 50.0258 90.5508 53.0966C90.5508 56.1675 92.7994 58.666 95.5627 58.666C98.3259 58.666 100.574 56.1675 100.574 53.0966C100.574 50.0258 98.3264 47.5273 95.5627 47.5273Z" fill="#364153"/>
<path d="M97.1473 55.3273C98.0559 55.3273 98.7926 54.2541 98.7926 52.9303C98.7926 51.6064 98.0559 50.5332 97.1473 50.5332C96.2386 50.5332 95.502 51.6064 95.502 52.9303C95.502 54.2541 96.2386 55.3273 97.1473 55.3273Z" fill="white"/>
</g>
<defs>
<clipPath id="clip0_176_9280">
<rect width="120" height="120" fill="white"/>
</clipPath>
</defs>
</svg>
