<svg width="123" height="112" viewBox="0 0 123 112" fill="none" xmlns="http://www.w3.org/2000/svg">
<g clip-path="url(#clip0_284_961)">
<path d="M62.8553 1.80371L112.902 28.2862V78.1463L81.7775 69.4022L87.9771 96.6117L63.639 108.854L12.6816 82.7118L13.4653 28.9498L62.8553 1.80371Z" fill="#C6A24C"/>
<path d="M81.2344 70.3594L91.5726 108.204L98.7193 96.0215L111.322 107.433C112.379 108.392 113.768 108.9 115.194 108.85C116.62 108.8 117.971 108.196 118.959 107.167C119.937 106.145 120.483 104.786 120.483 103.372C120.483 101.957 119.937 100.598 118.959 99.5765L107.063 87.1506L120.113 79.8405L81.2344 70.3594Z" fill="#0F4B46"/>
<path d="M78.3656 9.72168L31.7337 37.0779L30.8633 59.6585L38.3101 53.6991L46.3539 68.9462V45.9154L95.2403 18.7693L78.3656 9.72168Z" fill="#0F4B46"/>
<path d="M109.851 87.7113L121.057 81.2016C121.332 81.0441 121.554 80.8069 121.692 80.5212C121.83 80.2354 121.878 79.9146 121.83 79.6008C121.788 79.2875 121.654 78.9938 121.445 78.7564C121.236 78.5191 120.962 78.3488 120.657 78.2668L114.921 76.7461V28.4567C114.9 28.1704 114.812 27.8931 114.663 27.6474C114.515 27.4016 114.31 27.1944 114.067 27.0427L64.1499 0.16674C63.9134 0.0499875 63.6533 -0.0107422 63.3896 -0.0107422C63.1259 -0.0107422 62.8657 0.0499875 62.6292 0.16674L12.5256 27.1394C12.2791 27.288 12.0725 27.4944 11.9238 27.7408C11.775 27.9872 11.6886 28.2661 11.6719 28.5534V82.4722C11.6711 82.7599 11.7506 83.0422 11.9014 83.2872C12.0523 83.5323 12.2684 83.7305 12.5256 83.8595L62.6026 110.832C62.8385 110.951 63.0988 111.012 63.3629 111.012C63.6269 111.012 63.8873 110.951 64.1232 110.832L87.2008 98.3997L90.0555 109.071C90.1393 109.376 90.3102 109.649 90.5472 109.857C90.7842 110.066 91.0769 110.201 91.3894 110.245C91.7047 110.278 92.0228 110.22 92.3063 110.078C92.5898 109.936 92.827 109.717 92.9902 109.445L99.4999 98.2396L110.172 108.911C110.873 109.607 111.706 110.157 112.622 110.528C113.538 110.899 114.519 111.084 115.507 111.072C117.474 111.093 119.368 110.331 120.773 108.955C122.179 107.58 122.98 105.702 123.001 103.735C123.011 102.752 122.825 101.776 122.455 100.864C122.084 99.953 121.537 99.1243 120.843 98.4263L109.851 87.7113ZM63.3496 53.6953L49.8232 46.4118L94.8844 20.453L110.065 28.4567L63.3496 53.6953ZM33.1487 41.076L44.2472 47.1322V62.2593L40.352 52.7348C40.2783 52.538 40.1665 52.3575 40.023 52.2039C39.8794 52.0503 39.7071 51.9264 39.5157 51.8394C39.3243 51.7524 39.1176 51.7039 38.9075 51.6967C38.6974 51.6896 38.488 51.7239 38.2911 51.7977C38.0607 51.8843 37.8531 52.0223 37.6841 52.2012L33.112 56.7634L33.1487 41.076ZM34.1491 37.9812L79.2371 11.9423L91.5762 18.5854L46.5149 44.6243L34.1491 37.9812ZM63.4963 3.29822L76.0622 10.0747L30.8276 36.1837L16.6609 28.4467L63.4963 3.29822ZM14.8867 31.1246L29.9605 39.1284V60.4718C29.956 60.7896 30.0496 61.1011 30.2287 61.3637C30.4077 61.6263 30.6635 61.8273 30.961 61.9392C31.2509 62.0598 31.5699 62.0925 31.8782 62.0332C32.1866 61.9739 32.4706 61.8252 32.6951 61.6057L38.3244 56.0297L44.4073 70.7033C44.4907 70.8966 44.6115 71.0715 44.7627 71.2179C44.9139 71.3644 45.0926 71.4795 45.2885 71.5567C45.4844 71.6339 45.6935 71.6716 45.904 71.6676C46.1145 71.6637 46.3221 71.6181 46.5149 71.5337C46.7928 71.4126 47.0306 71.2151 47.2006 70.9642C47.3706 70.7133 47.4659 70.4193 47.4754 70.1163V48.773L61.7755 56.4833V106.774L14.8734 81.5384L14.8867 31.1246ZM64.9636 106.76V56.4699L111.866 31.1246V75.9724L81.5181 67.9687C81.2479 67.8915 80.962 67.8879 80.69 67.9583C80.4179 68.0286 80.1696 68.1704 79.9707 68.3689C79.7751 68.57 79.6334 68.8173 79.5588 69.0878C79.4842 69.3583 79.479 69.6432 79.5438 69.9162L86.3737 95.1548L64.9636 106.76ZM118.322 106.6C117.531 107.39 116.459 107.834 115.341 107.834C114.223 107.834 113.15 107.39 112.359 106.6L100.354 94.5679C100.043 94.2689 99.6261 94.1052 99.1949 94.1127C98.7636 94.1202 98.3528 94.2982 98.0526 94.6079C97.9636 94.7011 97.8853 94.8041 97.8191 94.9147L92.2165 104.586L83.359 71.6904L116.281 80.4946L106.61 86.1239C106.245 86.3405 105.98 86.6932 105.874 87.1046C105.769 87.5159 105.831 87.9524 106.046 88.3182C106.114 88.4325 106.196 88.5379 106.29 88.6317L118.322 100.664C119.103 101.457 119.54 102.526 119.54 103.639C119.54 104.752 119.103 105.82 118.322 106.614V106.6Z" fill="#202020"/>
</g>
<path d="M13.7195 94.3521C20.4952 94.3521 25.9879 88.8594 25.9879 82.0838C25.9879 75.3082 20.4952 69.8154 13.7195 69.8154C6.9439 69.8154 1.45117 75.3082 1.45117 82.0838C1.45117 88.8594 6.9439 94.3521 13.7195 94.3521Z" fill="#00B157"/>
<path d="M13.7183 95.8024C6.15414 95.8024 0 89.6485 0 82.0838C0 74.5191 6.15414 68.3652 13.7183 68.3652C21.2825 68.3652 27.4366 74.5191 27.4366 82.0839C27.4366 89.6488 21.2825 95.8024 13.7183 95.8024ZM13.7183 71.2653C7.75303 71.2653 2.89989 76.1187 2.89989 82.0839C2.89989 88.0492 7.75303 92.9026 13.7183 92.9026C19.6836 92.9026 24.5367 88.0492 24.5367 82.0839C24.5367 76.1187 19.6836 71.2653 13.7183 71.2653Z" fill="#202020"/>
<path d="M10.6519 86.8725C10.5605 86.8725 10.4684 86.8641 10.3772 86.8464C9.98806 86.7712 9.64661 86.5401 9.4322 86.2064L6.18359 81.1531L8.62307 79.5854L11.0498 83.3599L19.1959 77.5635L20.8769 79.9265L11.4923 86.6042C11.2451 86.7802 10.9508 86.8725 10.6519 86.8725Z" fill="#FFEFCD"/>
<defs>
<clipPath id="clip0_284_961">
<rect width="111.329" height="111.086" fill="white" transform="translate(11.6719)"/>
</clipPath>
</defs>
</svg>
