<svg width="60" height="57" viewBox="0 0 60 57" fill="none" xmlns="http://www.w3.org/2000/svg">
<path d="M57.22 39.495C57.06 35.835 56.2 32.305 54.64 29.005V23.475C55.18 22.925 55.6 22.255 55.85 21.475C56.05 20.845 56.44 20.315 56.97 19.925C58.76 18.625 59.51 16.335 58.82 14.235C58.62 13.605 58.62 12.945 58.82 12.325C59.51 10.225 58.76 7.935 56.97 6.635C56.44 6.245 56.05 5.715 55.85 5.085C55.17 2.985 53.22 1.565 51.01 1.565C50.35 1.565 49.73 1.365 49.2 0.975C47.41 -0.325 45 -0.325 43.22 0.975C42.69 1.365 42.06 1.565 41.4 1.565C39.19 1.565 37.24 2.975 36.56 5.085C36.36 5.715 35.97 6.245 35.44 6.635C35.18 6.825 34.95 7.035 34.74 7.265C34.67 7.185 34.61 7.095 34.53 7.015C33.32 5.805 31.71 5.135 30 5.135C26.47 5.135 23.6 8.005 23.6 11.535V14.145C11.73 16.985 3.3 27.215 2.77 39.485C2.48 39.635 2.21 39.805 1.95 40.005C0.71 40.995 0 42.465 0 44.045C0 45.235 0.42 46.405 1.18 47.325C1.61 47.845 2.13 48.265 2.7 48.575L3.81 51.015C5.24 54.145 8.4 56.165 11.85 56.165H48.12C51.57 56.165 54.73 54.145 56.16 51.015L57.28 48.565C58.28 48.015 59.11 47.155 59.57 46.055C59.84 45.415 59.98 44.745 59.98 44.045C59.98 43.175 59.76 42.305 59.34 41.545C58.84 40.645 58.1 39.945 57.22 39.485V39.495ZM36.6 8.255C37.48 7.615 38.12 6.735 38.45 5.705C38.86 4.425 40.04 3.565 41.39 3.565C42.47 3.565 43.51 3.225 44.38 2.595C45.47 1.805 46.93 1.805 48.01 2.595C48.89 3.235 49.92 3.565 51 3.565C52.34 3.565 53.52 4.425 53.94 5.705C54.27 6.735 54.92 7.615 55.79 8.255C56.88 9.045 57.33 10.435 56.91 11.705C56.57 12.735 56.57 13.825 56.91 14.855C57.33 16.135 56.88 17.525 55.79 18.305C54.91 18.945 54.27 19.825 53.94 20.855C53.53 22.135 52.35 22.995 51 22.995C49.92 22.995 48.88 23.335 48.01 23.965C46.92 24.755 45.46 24.755 44.38 23.965C43.5 23.325 42.47 22.995 41.39 22.995C40.05 22.995 38.87 22.135 38.45 20.855C38.12 19.825 37.47 18.945 36.6 18.305C35.51 17.515 35.06 16.125 35.48 14.855C35.81 13.825 35.81 12.735 35.48 11.705C35.06 10.425 35.51 9.035 36.6 8.255ZM52.65 33.525C52.65 33.525 52.55 33.605 52.41 33.625C52.35 33.625 52.21 33.625 52.11 33.535L48.51 29.895C48.14 29.535 47.69 29.285 47.2 29.145V26.465C47.9 26.325 48.58 26.045 49.19 25.605C49.72 25.215 50.35 25.015 51.01 25.015C51.58 25.015 52.12 24.915 52.64 24.745V29.245C52.64 29.245 52.64 29.285 52.64 29.305V33.535L52.65 33.525ZM45.2 26.455V29.125C44.73 29.265 44.29 29.485 43.93 29.825L39.77 33.725C39.66 33.825 39.52 33.815 39.46 33.815C39.33 33.795 39.25 33.745 39.24 33.745V24.535C39.9 24.835 40.62 25.015 41.38 25.015C42.04 25.015 42.66 25.215 43.19 25.605C43.8 26.045 44.48 26.325 45.18 26.465L45.2 26.455ZM25.58 11.535C25.58 9.105 27.55 7.135 29.98 7.135C31.15 7.135 32.26 7.595 33.08 8.425C33.28 8.635 33.45 8.855 33.61 9.075C33.25 10.105 33.22 11.235 33.57 12.325C33.71 12.745 33.74 13.185 33.7 13.625C31.06 13.255 28.25 13.285 25.58 13.715V11.525V11.535ZM24.79 15.905C27.56 15.315 30.55 15.235 33.34 15.625C33.27 17.295 34.02 18.925 35.43 19.945C35.96 20.335 36.35 20.865 36.55 21.495C36.72 22.025 36.98 22.515 37.3 22.955C37.28 23.035 37.25 23.105 37.25 23.195V33.745C37.25 34.555 37.74 35.275 38.53 35.615C38.85 35.755 39.19 35.825 39.52 35.825C40.11 35.825 40.69 35.605 41.14 35.195L45.3 31.295C45.53 31.085 45.86 30.985 46.19 30.985H46.2C46.53 30.985 46.87 31.105 47.09 31.325L50.68 34.955C51.34 35.625 52.39 35.835 53.3 35.465C53.84 35.245 54.23 34.845 54.45 34.365C54.83 35.855 55.08 37.385 55.19 38.945C55.07 38.945 54.94 38.915 54.82 38.915H5.14C5.02 38.915 4.91 38.935 4.79 38.945C5.55 27.625 13.61 18.255 24.79 15.925V15.905ZM54.35 50.185C53.24 52.605 50.8 54.165 48.13 54.165H11.84C9.17 54.165 6.72 52.605 5.62 50.185L5.17 49.205H54.79L54.34 50.185H54.35ZM57.74 45.275C57.43 46.005 56.87 46.575 56.18 46.895H56.16C55.75 47.095 55.3 47.205 54.83 47.205H5.14C4.67 47.205 4.22 47.105 3.81 46.905H3.79C3.38 46.695 3.01 46.415 2.71 46.055C2.25 45.495 1.99 44.775 1.99 44.045C1.99 43.075 2.43 42.175 3.19 41.565C3.46 41.345 3.76 41.185 4.08 41.065C4.1 41.065 4.11 41.055 4.13 41.045C4.46 40.935 4.8 40.875 5.16 40.875H54.82C55.97 40.875 57.03 41.495 57.59 42.505C57.85 42.965 57.98 43.495 57.98 44.035C57.98 44.465 57.9 44.875 57.73 45.265L57.74 45.275ZM40.73 14.525C40.93 14.725 41.03 15.005 40.98 15.285L40.82 16.215C40.64 17.295 41.07 18.365 41.96 19.015C42.46 19.375 43.05 19.565 43.64 19.565C44.1 19.565 44.56 19.455 44.98 19.235L45.81 18.795C46.06 18.665 46.36 18.665 46.61 18.795L47.45 19.235C48.42 19.745 49.58 19.655 50.46 19.015C51.35 18.365 51.78 17.295 51.59 16.215L51.43 15.285C51.38 15.005 51.47 14.715 51.68 14.525L52.36 13.865C53.14 13.095 53.42 11.975 53.08 10.925C52.74 9.875 51.85 9.135 50.77 8.985L49.83 8.855C49.55 8.815 49.31 8.635 49.18 8.385L48.76 7.535C48.27 6.555 47.29 5.945 46.2 5.945C45.1 5.945 44.12 6.565 43.64 7.545L43.22 8.395C43.1 8.645 42.85 8.825 42.57 8.865L41.64 9.005C40.55 9.165 39.67 9.915 39.33 10.955C38.99 11.995 39.27 13.125 40.06 13.885L40.74 14.545L40.73 14.525ZM41.23 11.545C41.28 11.395 41.45 11.025 41.92 10.955L42.86 10.815C43.79 10.675 44.6 10.095 45.01 9.245L45.43 8.395C45.64 7.965 46.04 7.915 46.2 7.915C46.36 7.915 46.76 7.965 46.97 8.395L47.39 9.245C47.81 10.085 48.62 10.675 49.55 10.805L50.49 10.935C50.97 11.005 51.14 11.365 51.19 11.515C51.24 11.665 51.32 12.065 50.97 12.395L50.29 13.055C49.62 13.715 49.31 14.665 49.47 15.595L49.63 16.525C49.71 17.005 49.42 17.275 49.29 17.365C49.16 17.465 48.81 17.655 48.38 17.435L47.54 16.995C46.71 16.555 45.71 16.555 44.88 16.995L44.04 17.435C43.61 17.655 43.26 17.465 43.13 17.375C43 17.285 42.7 17.005 42.79 16.535L42.95 15.605C43.11 14.675 42.8 13.725 42.12 13.075L41.44 12.415C41.09 12.075 41.17 11.685 41.22 11.535L41.23 11.545Z" fill="#0F4B46"/>
</svg>
