<svg width="49" height="64" viewBox="0 0 49 64" fill="none" xmlns="http://www.w3.org/2000/svg">
<path fill-rule="evenodd" clip-rule="evenodd" d="M18.9898 44.7574C18.7918 44.7574 18.6028 44.6854 18.4588 44.5414L13.1397 39.2223C12.8427 38.9253 12.8427 38.4483 13.1397 38.1603C13.4278 37.8632 13.9048 37.8632 14.2018 38.1603L19.5208 43.4793C19.9889 43.9473 19.6468 44.7574 18.9898 44.7574Z" fill="#0F4B46"/>
<path fill-rule="evenodd" clip-rule="evenodd" d="M18.9899 44.7574C18.3239 44.7574 17.9819 43.9473 18.4589 43.4793L23.778 38.1603C24.066 37.8632 24.543 37.8632 24.84 38.1603C25.128 38.4483 25.128 38.9253 24.84 39.2223L19.5209 44.5414C19.3679 44.6854 19.1789 44.7574 18.9899 44.7574Z" fill="#0F4B46"/>
<path fill-rule="evenodd" clip-rule="evenodd" d="M29.9345 59.7067H0.756012C0.342005 59.7067 0 59.3647 0 58.9507V48.6095C0 42.7234 4.78807 37.9443 10.6652 37.9443H13.6712C14.0852 37.9443 14.4182 38.2773 14.4182 38.6913C14.4182 39.1054 14.0852 39.4384 13.6712 39.4384H10.6652C5.61609 39.4384 1.50302 43.5514 1.50302 48.6095V58.2037H29.9435C30.3575 58.2037 30.6905 58.5367 30.6905 58.9507C30.6905 59.3647 30.3575 59.7067 29.9345 59.7067ZM36.5316 45.2255C36.2526 45.2255 35.9826 45.0634 35.8566 44.7844C34.3535 41.5354 31.0775 39.4384 27.5224 39.4384H24.3004C23.8954 39.4384 23.5534 39.1054 23.5534 38.6913C23.5534 38.2773 23.8954 37.9443 24.3004 37.9443H27.5224C31.6625 37.9443 35.4696 40.3834 37.2156 44.1544C37.4496 44.6584 37.0716 45.2255 36.5316 45.2255Z" fill="#0F4B46"/>
<path fill-rule="evenodd" clip-rule="evenodd" d="M24.3002 39.4387C23.8952 39.4387 23.5532 39.1057 23.5532 38.6917V34.4706C23.5532 34.0566 23.8952 33.7236 24.3002 33.7236C24.7142 33.7236 25.0562 34.0566 25.0562 34.4706V38.6917C25.0562 39.1057 24.7142 39.4387 24.3002 39.4387ZM13.6711 39.4387C13.257 39.4387 12.915 39.1057 12.915 38.6917V34.4706C12.915 34.0566 13.257 33.7236 13.6711 33.7236C14.0851 33.7236 14.4181 34.0566 14.4181 34.4706V38.6917C14.4181 39.1057 14.0851 39.4387 13.6711 39.4387Z" fill="#0F4B46"/>
<path fill-rule="evenodd" clip-rule="evenodd" d="M18.9899 36.5773C12.4558 36.5773 7.13672 31.2312 7.13672 24.6611V19.756C7.13672 19.342 7.47872 19 7.89273 19C8.30674 19 8.63974 19.342 8.63974 19.756V24.6611C8.63974 30.4032 13.2838 35.0743 18.9899 35.0743C24.687 35.0743 29.3311 30.4032 29.3311 24.6611V19.756C29.3311 19.342 29.6641 19 30.0781 19C30.4921 19 30.8341 19.342 30.8341 19.756V24.6611C30.8341 31.2312 25.515 36.5773 18.9899 36.5773Z" fill="#0F4B46"/>
<path fill-rule="evenodd" clip-rule="evenodd" d="M30.0785 20.5023C29.9615 20.5023 29.8445 20.4753 29.7365 20.4213C22.5904 16.7313 15.3633 16.7313 8.2352 20.4213C7.74019 20.6733 7.13719 20.3133 7.13719 19.7553V16.7583C4.52714 15.8042 2.74512 13.2932 2.74512 10.4762C2.74512 6.6061 6.03017 3.53706 9.88223 3.79806C11.5383 1.47602 15.0393 0 18.9904 0C22.9324 0 26.4335 1.47602 28.0895 3.79806C31.9416 3.53706 35.2266 6.6061 35.2266 10.4762C35.2266 13.2932 33.4446 15.8042 30.8346 16.7583V19.7553C30.8346 20.1693 30.4925 20.5023 30.0785 20.5023ZM18.9814 16.1463C22.4374 16.1463 25.8935 16.9473 29.3315 18.5493V16.2093C29.3315 15.8672 29.5565 15.5702 29.8895 15.4802C32.1486 14.8772 33.7236 12.8162 33.7236 10.4672C33.7236 7.31711 30.9336 4.89608 27.8105 5.32808C27.5135 5.37308 27.2255 5.22908 27.0635 4.96808C25.8305 2.89805 22.5814 1.50302 18.9904 1.50302C15.3903 1.50302 12.1413 2.89805 10.9082 4.96808C10.7552 5.22908 10.4582 5.37308 10.1612 5.32808C7.03818 4.89608 4.24814 7.32612 4.24814 10.4672C4.24814 12.8162 5.82317 14.8772 8.0822 15.4802C8.41521 15.5702 8.64021 15.8672 8.64021 16.2093V18.5493C12.0693 16.9473 15.5253 16.1463 18.9814 16.1463Z" fill="#0F4B46"/>
<path fill-rule="evenodd" clip-rule="evenodd" d="M18.9365 15.453C18.5225 15.453 18.1895 15.12 18.1895 14.706V5.46283C18.1895 5.05783 18.5225 4.71582 18.9365 4.71582C19.3505 4.71582 19.6925 5.05783 19.6925 5.46283V14.706C19.6925 15.12 19.3595 15.453 18.9365 15.453Z" fill="#0F4B46"/>
<path fill-rule="evenodd" clip-rule="evenodd" d="M22.9409 15.4538C22.4369 15.4538 22.0589 14.9498 22.2389 14.4548C24.678 7.61468 28.269 7.72269 28.413 7.73169L28.332 9.23471H28.35C28.314 9.23471 25.677 9.28871 23.6519 14.9588C23.5439 15.2648 23.2559 15.4538 22.9409 15.4538Z" fill="#0F4B46"/>
<path fill-rule="evenodd" clip-rule="evenodd" d="M15.0307 15.4538C14.7247 15.4538 14.4277 15.2648 14.3197 14.9588C12.2946 9.28871 9.6576 9.23471 9.62159 9.23471H9.6396L9.55859 7.73169C9.7116 7.72269 13.2937 7.61468 15.7327 14.4548C15.9127 14.9498 15.5347 15.4538 15.0307 15.4538Z" fill="#0F4B46"/>
<path fill-rule="evenodd" clip-rule="evenodd" d="M18.9904 59.7071C18.5764 59.7071 18.2344 59.3651 18.2344 58.9511V44.0109C18.2344 43.5969 18.5764 43.2549 18.9904 43.2549C19.4044 43.2549 19.7374 43.5969 19.7374 44.0109V58.9601C19.7374 59.3651 19.4044 59.7071 18.9904 59.7071Z" fill="#0F4B46"/>
<path fill-rule="evenodd" clip-rule="evenodd" d="M18.9901 31.6358C17.8021 31.6358 16.6231 31.1858 15.7141 30.2767C15.426 29.9887 15.426 29.5117 15.7141 29.2237C16.0111 28.9267 16.4881 28.9267 16.7761 29.2237C18.0001 30.4387 19.9801 30.4387 21.1951 29.2237C21.4831 28.9267 21.9601 28.9267 22.2572 29.2237C22.5452 29.5117 22.5452 29.9887 22.2572 30.2767C21.3571 31.1858 20.1691 31.6358 18.9901 31.6358Z" fill="#0F4B46"/>
<path fill-rule="evenodd" clip-rule="evenodd" d="M15.5881 22.9865C15.5071 22.9865 15.4171 22.9685 15.3271 22.9325C14.3821 22.5905 13.5361 22.5905 12.726 22.9235C12.339 23.0855 11.907 22.9055 11.745 22.5185C11.583 22.1405 11.763 21.6995 12.15 21.5375C13.3021 21.0515 14.5531 21.0515 15.8491 21.5285C16.6321 21.8165 16.4161 22.9865 15.5881 22.9865Z" fill="#0F4B46"/>
<path fill-rule="evenodd" clip-rule="evenodd" d="M25.5334 22.9865C25.4524 22.9865 25.3624 22.9685 25.2814 22.9325C24.3364 22.5905 23.4814 22.5815 22.6714 22.9235C22.2934 23.0855 21.8523 22.9055 21.6903 22.5185C21.5283 22.1405 21.7083 21.6995 22.0954 21.5375C23.2564 21.0515 24.4984 21.0515 25.7944 21.5285C26.5774 21.8165 26.3704 22.9865 25.5334 22.9865Z" fill="#0F4B46"/>
<path fill-rule="evenodd" clip-rule="evenodd" d="M14.9764 48.3485H12.1503C11.7363 48.3485 11.4033 48.0155 11.4033 47.6015C11.4033 47.1875 11.7363 46.8545 12.1503 46.8545H14.9764C15.3904 46.8545 15.7324 47.1875 15.7324 47.6015C15.7324 48.0155 15.3904 48.3485 14.9764 48.3485Z" fill="#0F4B46"/>
<path fill-rule="evenodd" clip-rule="evenodd" d="M14.9764 52.2274H12.1503C11.7363 52.2274 11.4033 51.8944 11.4033 51.4804C11.4033 51.0664 11.7363 50.7334 12.1503 50.7334H14.9764C15.3904 50.7334 15.7324 51.0664 15.7324 51.4804C15.7324 51.8944 15.3904 52.2274 14.9764 52.2274Z" fill="#0F4B46"/>
<path fill-rule="evenodd" clip-rule="evenodd" d="M14.9764 56.1163H12.1503C11.7363 56.1163 11.4033 55.7743 11.4033 55.3603C11.4033 54.9463 11.7363 54.6133 12.1503 54.6133H14.9764C15.3904 54.6133 15.7324 54.9463 15.7324 55.3603C15.7324 55.7743 15.3904 56.1163 14.9764 56.1163Z" fill="#0F4B46"/>
<path fill-rule="evenodd" clip-rule="evenodd" d="M43.0026 55.9804C42.5976 55.9804 42.2556 55.6474 42.2556 55.2334C42.2556 52.8034 40.2755 50.8233 37.8455 50.8233C35.4155 50.8233 33.4444 52.8034 33.4444 55.2334C33.4444 55.6474 33.1024 55.9804 32.6884 55.9804C32.2744 55.9804 31.9414 55.6474 31.9414 55.2334C31.9414 51.9754 34.5964 49.3203 37.8455 49.3203C41.1035 49.3203 43.7586 51.9754 43.7586 55.2334C43.7586 55.6474 43.4166 55.9804 43.0026 55.9804Z" fill="#0F4B46"/>
<path fill-rule="evenodd" clip-rule="evenodd" d="M43.5701 58.3036H32.1309C31.0779 58.3036 30.2139 57.4486 30.2139 56.3955C30.2139 55.3425 31.0779 54.4785 32.1309 54.4785H43.5701C44.6231 54.4785 45.4871 55.3425 45.4871 56.3955C45.4871 57.4486 44.6231 58.3036 43.5701 58.3036ZM32.1309 55.9815C31.5909 55.9815 31.5909 56.8096 32.1309 56.8096H43.5701C44.1101 56.8096 44.1101 55.9815 43.5701 55.9815H32.1309Z" fill="#0F4B46"/>
<path fill-rule="evenodd" clip-rule="evenodd" d="M37.8452 64.0001C32.2381 64.0001 27.666 59.4281 27.666 53.812C27.666 48.1959 32.2381 43.6328 37.8452 43.6328C43.4613 43.6328 48.0333 48.1959 48.0333 53.812C48.0333 59.4281 43.4613 64.0001 37.8452 64.0001ZM37.8452 45.1358C33.0571 45.1358 29.169 49.0239 29.169 53.812C29.169 58.6 33.0571 62.4971 37.8452 62.4971C42.6423 62.4971 46.5303 58.6 46.5303 53.812C46.5303 49.0239 42.6423 45.1358 37.8452 45.1358Z" fill="#0F4B46"/>
<path fill-rule="evenodd" clip-rule="evenodd" d="M37.8456 50.8236C37.4316 50.8236 37.0986 50.4906 37.0986 50.0766V48.2226C37.0986 47.8086 37.4316 47.4756 37.8456 47.4756C38.2597 47.4756 38.6017 47.8086 38.6017 48.2226V50.0766C38.6017 50.4906 38.2687 50.8236 37.8456 50.8236Z" fill="#0F4B46"/>
</svg>
