<svg id="Layer_1" data-name="Layer 1" xmlns="http://www.w3.org/2000/svg" viewBox="0 0 300 300"><defs><style>.cls-1{fill:#c5a24b;}</style></defs><path class="cls-1" d="M264,171.12V27.38A20.35,20.35,0,0,0,243.67,7.05H46.55A20.34,20.34,0,0,0,26.23,27.38V226a20.34,20.34,0,0,0,20.32,20.32H154.3A68.86,68.86,0,1,0,264,171.12ZM179.45,21.24v91.34l-30.64-11.73a7.07,7.07,0,0,0-5.07,0L113.1,112.58V21.24ZM40.42,226V27.38a6.14,6.14,0,0,1,6.13-6.14H98.91V122.89a7.1,7.1,0,0,0,9.63,6.62l37.73-14.44L184,129.51a7,7,0,0,0,2.53.47,7.1,7.1,0,0,0,7.1-7.09V21.24h50a6.14,6.14,0,0,1,6.14,6.14V161.64a68.23,68.23,0,0,0-30.56-7.17,68.86,68.86,0,0,0-68.31,77.62H46.55A6.14,6.14,0,0,1,40.42,226ZM219.25,278a54.69,54.69,0,0,1,0-109.38A54.14,54.14,0,0,1,252.56,180h0a54.68,54.68,0,0,1-33.32,98Z"/><path class="cls-1" d="M247.83,220.58H226.14l.11-23a7.09,7.09,0,0,0-7.06-7.13h0a7.09,7.09,0,0,0-7.09,7.06l-.14,30.14a7.08,7.08,0,0,0,7.09,7.12h28.82a7.09,7.09,0,0,0,0-14.18Z"/><path class="cls-1" d="M70.56,199H64a7.09,7.09,0,1,0,0,14.18h6.54a7.09,7.09,0,1,0,0-14.18Z"/><path class="cls-1" d="M98.88,199H92.34a7.09,7.09,0,0,0,0,14.18h6.54a7.09,7.09,0,1,0,0-14.18Z"/></svg>