<svg id="Layer_1" data-name="Layer 1" xmlns="http://www.w3.org/2000/svg" viewBox="0 0 300 300"><defs><style>.cls-1{fill:#c5a24b;}</style></defs><path class="cls-1" d="M81.81,56.86h71a5.65,5.65,0,1,0,0-11.3h-71a5.65,5.65,0,0,0,0,11.3Z"/><path class="cls-1" d="M121.47,90.77a5.65,5.65,0,0,0,5.65,5.65h65.33a5.65,5.65,0,1,0,0-11.3H127.12A5.64,5.64,0,0,0,121.47,90.77Z"/><path class="cls-1" d="M119.77,130.33a5.65,5.65,0,0,0,5.65,5.65h79.86a5.65,5.65,0,1,0,0-11.3H125.42A5.64,5.64,0,0,0,119.77,130.33Z"/><path class="cls-1" d="M116.49,72.44a5.65,5.65,0,0,0-8-.06L93.1,87.58,86,80.06a5.65,5.65,0,1,0-8.2,7.78l11.1,11.7a5.63,5.63,0,0,0,4,1.76H93a5.67,5.67,0,0,0,4-1.62l19.49-19.25A5.64,5.64,0,0,0,116.49,72.44Z"/><path class="cls-1" d="M108.5,113.85l-15.4,15.2L86,121.53a5.65,5.65,0,1,0-8.2,7.78L88.87,141a5.63,5.63,0,0,0,4,1.76H93a5.64,5.64,0,0,0,4-1.63l19.49-19.24a5.65,5.65,0,0,0-7.93-8.05Z"/><path class="cls-1" d="M258.27,232.69V166a11.9,11.9,0,0,0-11.89-11.88h-7.44V61.22a5.57,5.57,0,0,0-.49-2.27c-.07-.16-.21-.29-.3-.45a5.64,5.64,0,0,0-1-1.39S237.07,57,237,57L182,8.34a5.6,5.6,0,0,0-3.74-1.42H73A26.69,26.69,0,0,0,46.3,33.58V227.35A26.69,26.69,0,0,0,73,254h68.7v5.55a11.9,11.9,0,0,0,11.88,11.89h49.24a34.7,34.7,0,1,0,55.49-38.76ZM183.65,24.87l34.72,30.7H191.62a8,8,0,0,1-8-8ZM73,242.71A15.38,15.38,0,0,1,57.6,227.35V33.58A15.38,15.38,0,0,1,73,18.22h99.39V47.6a19.3,19.3,0,0,0,19.27,19.27h36v87.29h-74.1A11.89,11.89,0,0,0,141.66,166v76.67ZM187.2,165.47h26.62v37.34l-11.29-4.32a5.7,5.7,0,0,0-4,0l-11.29,4.32ZM153,259.56V166a.58.58,0,0,1,.58-.57H175.9V211a5.65,5.65,0,0,0,7.67,5.27l16.94-6.48,16.94,6.48a5.44,5.44,0,0,0,2,.38,5.66,5.66,0,0,0,5.65-5.65V165.47h21.26a.58.58,0,0,1,.58.57V225.8a34.63,34.63,0,0,0-46.83,32.53c0,.61.08,1.21.12,1.81H153.54A.58.58,0,0,1,153,259.56Zm81.92,22.22a23.47,23.47,0,0,1-22.67-17.43h0a23.45,23.45,0,0,1,37-24.61h0a23.45,23.45,0,0,1-14.29,42Z"/><path class="cls-1" d="M248.34,254.72h-7.9l0-8.52a5.66,5.66,0,0,0-5.63-5.68h0a5.65,5.65,0,0,0-5.65,5.63l-.06,14.2a5.63,5.63,0,0,0,5.65,5.67h13.57a5.65,5.65,0,0,0,0-11.3Z"/><path class="cls-1" d="M166.18,244.53H163.1a5.65,5.65,0,1,0,0,11.3h3.08a5.65,5.65,0,0,0,0-11.3Z"/><path class="cls-1" d="M185.1,244.53H182a5.65,5.65,0,1,0,0,11.3h3.08a5.65,5.65,0,1,0,0-11.3Z"/><path class="cls-1" d="M125.42,176.09H74.19a5.65,5.65,0,0,0,0,11.3h51.23a5.65,5.65,0,0,0,0-11.3Z"/><path class="cls-1" d="M125.42,207.15H74.19a5.65,5.65,0,0,0,0,11.3h51.23a5.65,5.65,0,0,0,0-11.3Z"/></svg>