<svg width="96" height="96" viewBox="0 0 96 96" fill="none" xmlns="http://www.w3.org/2000/svg">
<path d="M57 15L60 51V54H78V51L81 15H57Z" fill="#E74444"/>
<path d="M81 15L80.4994 21H57.5006L57 15H81Z" fill="#FAE8D8"/>
<path d="M16.5 63H91.5V75H16.5V63Z" fill="#93573D"/>
<path d="M16.5 51H91.5V63H16.5V51Z" fill="#AB6647"/>
<path d="M48 63H63L61.5 69H49.5L48 63Z" fill="#794832"/>
<path d="M22.5 71.3944V71.1044C22.5 69.3526 23.1959 67.6727 24.4345 66.434C25.6732 65.1953 27.3532 64.4995 29.1049 64.4995H32.7924C32.927 64.4995 33.0577 64.4546 33.1639 64.372L42.525 57.091C43.5842 56.2672 44.9251 55.8935 46.2576 56.0508C47.5902 56.2082 48.8073 56.8838 49.6455 57.9315C50.4302 58.9126 50.8257 60.1485 50.7563 61.4029C50.6868 62.6572 50.1573 63.8419 49.269 64.7303L40.0326 73.9667C39.9479 74.0513 39.8902 74.1591 39.8669 74.2765C39.8435 74.3939 39.8555 74.5156 39.9013 74.6261C39.9471 74.7367 40.0247 74.8312 40.1242 74.8976C40.2237 74.9641 40.3408 74.9995 40.4604 74.9995H65.1276C65.2619 74.9996 65.3925 75.0444 65.4986 75.1269C65.6047 75.2094 65.6803 75.3248 65.7135 75.455C65.7467 75.5853 65.7356 75.7228 65.682 75.846C65.6283 75.9693 65.5352 76.0711 65.4173 76.1355L52.4786 83.1932C51.5084 83.7223 50.4208 83.9995 49.3157 83.9995H11.1049C10.9445 83.9994 10.7906 83.9357 10.6772 83.8223C10.5638 83.7088 10.5 83.555 10.5 83.3946V72.6044C10.5 72.444 10.5638 72.2901 10.6772 72.1767C10.7906 72.0633 10.9445 71.9995 11.1049 71.9995H21.8951C22.0556 71.9994 22.2094 71.9357 22.3228 71.8222C22.4363 71.7087 22.5 71.5549 22.5 71.3944Z" fill="#F5CBAA"/>
<path d="M16.5 87H4.5V67.5H16.5V87Z" fill="#E74444"/>
<path d="M48 51H63L61.5 57H49.5L48 51Z" fill="#93573D"/>
<path d="M57 9H81C81.7956 9 82.5587 9.31607 83.1213 9.87868C83.6839 10.4413 84 11.2044 84 12V15H54V12C54 11.2044 54.3161 10.4413 54.8787 9.87868C55.4413 9.31607 56.2044 9 57 9Z" fill="#E74444"/>
<path d="M63 51H30L27 39L30 27H63L66 39L63 51Z" fill="#FAE8D8"/>
<path d="M66 39L63 51H30L27 39H66Z" fill="#E2D2C2"/>
<path d="M42 39H51L49.5 45H43.5L42 39Z" fill="#EFDECE"/>
<path d="M91.5 49.5H79.6313L82.3802 16.5H84C84.3978 16.5 84.7794 16.342 85.0607 16.0607C85.342 15.7794 85.5 15.3978 85.5 15V12C85.4986 10.807 85.0241 9.66317 84.1804 8.81955C83.3368 7.97594 82.193 7.50139 81 7.5H57C55.807 7.50139 54.6632 7.97594 53.8196 8.81955C52.9759 9.66317 52.5014 10.807 52.5 12V15C52.5 15.3978 52.658 15.7794 52.9393 16.0607C53.2206 16.342 53.6022 16.5 54 16.5H55.6198L56.3698 25.5H30C29.6655 25.5 29.3406 25.6118 29.0769 25.8177C28.8132 26.0236 28.6259 26.3117 28.5448 26.6362L25.5448 38.6362C25.485 38.8751 25.485 39.1249 25.5448 39.3638L28.0789 49.5H16.5C16.1022 49.5 15.7206 49.658 15.4393 49.9393C15.158 50.2206 15 50.6022 15 51V66H4.5C4.10218 66 3.72064 66.158 3.43934 66.4393C3.15804 66.7206 3 67.1022 3 67.5V87C3 87.3978 3.15804 87.7794 3.43934 88.0607C3.72064 88.342 4.10218 88.5 4.5 88.5H16.5C16.8978 88.5 17.2794 88.342 17.5607 88.0607C17.842 87.7794 18 87.3978 18 87V85.5H49.3159C50.6719 85.499 52.0062 85.1588 53.1971 84.5104L67.8825 76.5H91.5C91.8978 76.5 92.2794 76.342 92.5607 76.0607C92.842 75.7794 93 75.3978 93 75V51C93 50.6022 92.842 50.2206 92.5607 49.9393C92.2794 49.658 91.8978 49.5 91.5 49.5ZM90 61.5H52.2563C52.3153 60.4721 52.1327 59.4446 51.7232 58.5H61.5C61.8345 58.5 62.1594 58.3882 62.4231 58.1823C62.6868 57.9764 62.8741 57.6883 62.9552 57.3638L64.1711 52.5H90V61.5ZM50.6711 55.5L49.9211 52.5H61.0789L60.3289 55.5H50.6711ZM50.3297 65.7915C50.7169 65.4043 51.0546 64.9705 51.3349 64.5H61.0789L60.3289 67.5H50.6711L50.2612 65.8601L50.3297 65.7915ZM55.5 12C55.5004 11.6023 55.6586 11.221 55.9398 10.9398C56.221 10.6586 56.6023 10.5004 57 10.5H81C81.3977 10.5004 81.779 10.6586 82.0602 10.9398C82.3414 11.221 82.4995 11.6023 82.5 12V13.5H55.5V12ZM79.3697 16.5L79.1198 19.5H58.8803L58.6313 16.5H79.3697ZM59.1302 22.5H78.8698L76.6198 49.5H64.9211L67.4552 39.3638C67.515 39.1249 67.515 38.8751 67.4552 38.6362L64.4552 26.6362C64.3741 26.3117 64.1868 26.0236 63.9231 25.8177C63.6594 25.6118 63.3345 25.5 63 25.5H59.3801L59.1302 22.5ZM31.1711 28.5H61.8289L64.0789 37.5H28.9211L31.1711 28.5ZM49.0789 40.5L48.3289 43.5H44.6711L43.9211 40.5H49.0789ZM28.9211 40.5H40.8289L42.0448 45.3638C42.1259 45.6883 42.3132 45.9764 42.5769 46.1823C42.8406 46.3882 43.1655 46.5 43.5 46.5H49.5C49.8345 46.5 50.1594 46.3882 50.4231 46.1823C50.6868 45.9764 50.8741 45.6883 50.9552 45.3638L52.1711 40.5H64.0789L61.8289 49.5H31.1711L28.9211 40.5ZM46.8289 52.5L47.3934 54.7584C46.4054 54.4884 45.3682 54.4516 44.3635 54.651C43.3589 54.8504 42.4143 55.2805 41.6044 55.9074L34.4139 61.5H18V52.5H46.8289ZM18 67.5V64.5H24.4138C23.4424 65.1895 22.6348 66.0846 22.0486 67.1216C21.4624 68.1586 21.112 69.3121 21.0223 70.5H18V67.5ZM15 85.5H6V69H15V85.5ZM51.7605 81.8766C51.0104 82.2851 50.17 82.4994 49.3159 82.5H18V73.5H21.6051C22.24 73.4993 22.8487 73.2467 23.2977 72.7977C23.7467 72.3487 23.9993 71.74 24 71.1051C24.0015 69.7516 24.5399 68.454 25.4969 67.4969C26.454 66.5399 27.7516 66.0015 29.1051 66H32.7924C33.2604 65.9992 33.7149 65.8432 34.0849 65.5566L43.4462 58.275C44.1703 57.7119 45.0818 57.446 45.9951 57.5314C46.9085 57.6169 47.7548 58.0473 48.3619 58.7349C48.969 59.4226 49.2911 60.3158 49.2626 61.2327C49.2342 62.1495 48.8573 63.0211 48.2087 63.6697L38.9723 72.906C38.6776 73.2003 38.4769 73.5754 38.3956 73.9839C38.3142 74.3923 38.3558 74.8157 38.5152 75.2005C38.6745 75.5853 38.9444 75.9141 39.2907 76.1454C39.637 76.3768 40.0442 76.5002 40.4606 76.5H61.6176L51.7605 81.8766ZM42.6214 73.5L47.7874 68.334L48.0448 69.3638C48.1259 69.6883 48.3132 69.9764 48.5769 70.1823C48.8406 70.3882 49.1655 70.5 49.5 70.5H61.5C61.8345 70.5 62.1594 70.3882 62.4231 70.1823C62.6868 69.9764 62.8741 69.6883 62.9552 69.3638L64.1711 64.5H90V73.5H42.6214Z" fill="black"/>
</svg>
