<svg width="63" height="64" viewBox="0 0 63 64" fill="none" xmlns="http://www.w3.org/2000/svg">
<path d="M10.1487 11.3623C8.83624 13.3848 7.93249 15.7173 7.56999 18.2598C7.19999 20.8536 7.43124 23.3948 8.15749 25.7411C8.42999 26.6211 8.80499 27.3786 9.25749 28.0223" stroke="#0F4B46" stroke-width="1.875" stroke-miterlimit="10" stroke-linecap="round" stroke-linejoin="round"/>
<path d="M12.9712 8.03156C14.2249 6.88656 15.6437 5.92906 17.1812 5.19656C19.3137 4.18031 21.5512 6.47781 20.4449 8.56531C19.3249 10.6778 19.0374 13.6241 20.8837 17.6678C21.5149 19.0516 22.0024 20.4228 22.3424 21.7478C22.9974 24.3066 22.4112 26.4528 21.1624 28.0228" stroke="#0F4B46" stroke-width="1.875" stroke-miterlimit="10" stroke-linecap="round" stroke-linejoin="round"/>
<path d="M15.5486 28.0223C11.3336 19.8636 14.0186 13.4248 14.0186 13.4248" stroke="#0F4B46" stroke-width="1.875" stroke-miterlimit="10" stroke-linecap="round" stroke-linejoin="round"/>
<path d="M26.9332 28.0226C26.7994 27.4564 26.6957 26.8776 26.6232 26.2864C26.3294 23.8839 26.5894 21.5414 27.3044 19.3864C30.0694 11.0489 42.6844 14.8751 40.3344 23.3389C39.9957 24.5576 39.5194 25.8139 38.9107 27.0814C38.7557 27.4026 38.6169 27.7164 38.4907 28.0226" stroke="#0F4B46" stroke-width="1.875" stroke-miterlimit="10" stroke-linecap="round" stroke-linejoin="round"/>
<path d="M31.8884 28.0232C31.4947 24.1732 32.1947 16.9632 40.5222 9.77441" stroke="#0F4B46" stroke-width="1.875" stroke-miterlimit="10" stroke-linecap="round" stroke-linejoin="round"/>
<path d="M56.2799 13.6615C58.5915 13.3212 60.6334 11.722 61.4223 9.35229C62.5373 6.00267 60.725 2.38154 57.3754 1.26654C54.0245 0.151041 50.4047 1.96379 49.2897 5.31342C48.5008 7.68329 49.1755 10.1867 50.8232 11.845" stroke="#0F4B46" stroke-width="1.875" stroke-miterlimit="10" stroke-linecap="round" stroke-linejoin="round"/>
<path d="M57.7173 14.1391L49.3852 11.3654C47.9321 10.8816 46.3618 11.6675 45.8781 13.1206C45.3943 14.5737 46.1802 16.144 47.6333 16.6277L55.9654 19.4015C57.4186 19.8852 58.9888 19.0994 59.4726 17.6462C59.9564 16.193 59.1706 14.6229 57.7173 14.1391Z" stroke="#0F4B46" stroke-width="1.875" stroke-miterlimit="10" stroke-linecap="round" stroke-linejoin="round"/>
<path d="M44.0337 28.0228L47.8074 16.6865L55.7912 19.344L52.9024 28.0228" stroke="#0F4B46" stroke-width="1.875" stroke-miterlimit="10" stroke-linecap="round" stroke-linejoin="round"/>
<path d="M18.6366 56.5671C17.5478 55.9446 16.5091 55.2459 15.5278 54.4746" stroke="#0F4B46" stroke-width="1.875" stroke-miterlimit="10" stroke-linecap="round" stroke-linejoin="round"/>
<path d="M5.78271 36.4473C6.26521 42.2198 8.66021 47.4498 12.3315 51.4998" stroke="#0F4B46" stroke-width="1.875" stroke-miterlimit="10" stroke-linecap="round" stroke-linejoin="round"/>
<path d="M52.4038 48.931C54.9113 45.3335 56.5201 41.0648 56.9063 36.4473" stroke="#0F4B46" stroke-width="1.875" stroke-miterlimit="10" stroke-linecap="round" stroke-linejoin="round"/>
<path d="M52.3288 36.4475H57.5387C58.7012 36.4475 59.755 35.9762 60.5175 35.2137C61.28 34.4512 61.7513 33.3975 61.7513 32.235C61.7513 29.9087 59.865 28.0225 57.5387 28.0225H5.15C3.98625 28.0225 2.93375 28.4937 2.17125 29.2562C1.40875 30.0187 0.9375 31.0725 0.9375 32.235C0.9375 34.5612 2.82375 36.4475 5.15 36.4475H47.9637" stroke="#0F4B46" stroke-width="1.875" stroke-miterlimit="10" stroke-linecap="round" stroke-linejoin="round"/>
<path d="M33.4336 56.5195H19.1961C17.3898 56.5195 15.9248 57.9833 15.9248 59.7908C15.9248 60.6945 16.2911 61.512 16.8836 62.1033C17.4748 62.6958 18.2936 63.062 19.1961 63.062H43.4923C43.8286 63.062 44.1536 63.0108 44.4586 62.917" stroke="#0F4B46" stroke-width="1.875" stroke-miterlimit="10" stroke-linecap="round" stroke-linejoin="round"/>
<path d="M30.1941 4.36047C28.8755 5.66472 28.2614 7.41109 28.3526 9.12797C28.3941 9.90859 29.0144 10.5357 29.7945 10.5858C31.5102 10.696 33.2634 10.1011 34.582 8.79684C35.9006 7.49272 36.5147 5.74634 36.4235 4.02934C36.382 3.24872 35.7617 2.62159 34.9816 2.57147C33.2657 2.46147 31.5127 3.05634 30.1941 4.36047Z" stroke="#0F4B46" stroke-width="1.875" stroke-miterlimit="10" stroke-linecap="round" stroke-linejoin="round"/>
<path d="M43.7129 50.0182C45.0519 49.4069 46.3773 48.9355 47.6596 48.607C56.567 46.325 60.3061 59.6078 51.5221 62.3263C49.2521 63.0288 46.7946 63.2522 44.286 62.8942C38.574 62.0789 33.9599 58.4442 31.6509 53.5989C30.6678 51.536 32.8903 49.3722 34.9094 50.4422C36.9524 51.5248 39.8014 51.8039 43.7129 50.0182Z" stroke="#0F4B46" stroke-width="1.875" stroke-miterlimit="10" stroke-linecap="round" stroke-linejoin="round"/>
<path d="M39.6104 56.6573C39.6104 56.6573 50.587 61.2343 61.8595 48.6943" stroke="#0F4B46" stroke-width="1.875" stroke-miterlimit="10" stroke-linecap="round" stroke-linejoin="round"/>
</svg>
