<svg width="24" height="24" viewBox="0 0 24 24" fill="none" xmlns="http://www.w3.org/2000/svg">
<g clip-path="url(#clip0_135_9497)">
<path fill-rule="evenodd" clip-rule="evenodd" d="M10.949 1.1924C11.0434 0.993823 11.1921 0.82607 11.378 0.708612C11.5638 0.591155 11.7792 0.528809 11.999 0.528809C12.2189 0.528809 12.4343 0.591155 12.6201 0.708612C12.806 0.82607 12.9547 0.993823 13.049 1.1924L16.049 7.4999L22.979 8.4149C23.1963 8.44423 23.4008 8.53438 23.569 8.67494C23.7372 8.81551 23.8622 9.00076 23.9296 9.20933C23.9971 9.4179 24.0042 9.64129 23.9501 9.85372C23.896 10.0661 23.783 10.259 23.624 10.4099L18.569 15.2249L19.844 22.0949C19.8829 22.3102 19.8602 22.532 19.7786 22.7349C19.697 22.9379 19.5598 23.1137 19.3828 23.2421C19.2057 23.3706 18.9961 23.4465 18.7778 23.4612C18.5596 23.4758 18.3416 23.4286 18.149 23.3249L11.999 19.9949L5.85655 23.3249C5.66394 23.4286 5.446 23.4758 5.22777 23.4612C5.00953 23.4465 4.79985 23.3706 4.62282 23.2421C4.4458 23.1137 4.3086 22.9379 4.22701 22.7349C4.14541 22.532 4.12272 22.3102 4.16155 22.0949L5.43655 15.2249L0.359045 10.4099C0.200098 10.259 0.0870676 10.0661 0.0329951 9.85372C-0.0210774 9.64129 -0.0139883 9.4179 0.0534445 9.20933C0.120877 9.00076 0.245906 8.81551 0.414104 8.67494C0.582302 8.53438 0.786815 8.44423 1.00405 8.4149L7.94155 7.4999L10.9415 1.1924H10.949Z" fill="url(#paint0_linear_135_9497)"/>
</g>
<defs>
<linearGradient id="paint0_linear_135_9497" x1="12.4004" y1="11.9963" x2="15.1494" y2="11.9963" gradientUnits="userSpaceOnUse">
<stop stop-color="#FFCF38"/>
<stop offset="1" stop-color="white"/>
</linearGradient>
<clipPath id="clip0_135_9497">
<rect width="24" height="24" fill="white"/>
</clipPath>
</defs>
</svg>
