<svg width="24" height="24" viewBox="0 0 24 24" fill="none" xmlns="http://www.w3.org/2000/svg">
<g clip-path="url(#clip0_135_9493)">
<path fill-rule="evenodd" clip-rule="evenodd" d="M10.95 1.1924C11.0444 0.993823 11.1931 0.82607 11.379 0.708612C11.5648 0.591155 11.7802 0.528809 12 0.528809C12.2199 0.528809 12.4352 0.591155 12.6211 0.708612C12.8069 0.82607 12.9557 0.993823 13.05 1.1924L16.05 7.4999L22.98 8.4149C23.1973 8.44423 23.4018 8.53438 23.57 8.67494C23.7382 8.81551 23.8632 9.00076 23.9306 9.20933C23.9981 9.4179 24.0051 9.64129 23.9511 9.85372C23.897 10.0661 23.784 10.259 23.625 10.4099L18.57 15.2249L19.845 22.0949C19.8838 22.3102 19.8612 22.532 19.7796 22.7349C19.698 22.9379 19.5608 23.1137 19.3837 23.2421C19.2067 23.3706 18.997 23.4465 18.7788 23.4612C18.5606 23.4758 18.3426 23.4286 18.15 23.3249L12 19.9949L5.85752 23.3249C5.66492 23.4286 5.44698 23.4758 5.22874 23.4612C5.01051 23.4465 4.80083 23.3706 4.6238 23.2421C4.44677 23.1137 4.30958 22.9379 4.22798 22.7349C4.14638 22.532 4.1237 22.3102 4.16252 22.0949L5.43752 15.2249L0.360022 10.4099C0.201075 10.259 0.0880442 10.0661 0.0339717 9.85372C-0.0201009 9.64129 -0.0130117 9.4179 0.0544211 9.20933C0.121854 9.00076 0.246882 8.81551 0.41508 8.67494C0.583278 8.53438 0.787791 8.44423 1.00502 8.4149L7.94252 7.4999L10.9425 1.1924H10.95Z" fill="#FFCF38"/>
</g>
<defs>
<clipPath id="clip0_135_9493">
<rect width="24" height="24" fill="white"/>
</clipPath>
</defs>
</svg>
