<svg width="48" height="20" viewBox="0 0 48 20" fill="none" xmlns="http://www.w3.org/2000/svg">
<path fill-rule="evenodd" clip-rule="evenodd" d="M48.0004 10.3195C48.0004 6.90622 46.3471 4.21289 43.1871 4.21289C40.0138 4.21289 38.0938 6.90622 38.0938 10.2929C38.0938 14.3063 40.3604 16.3329 43.6137 16.3329C45.2004 16.3329 46.4004 15.9729 47.307 15.4662V12.7995C46.4003 13.2528 45.3604 13.5329 44.0404 13.5329C42.747 13.5329 41.6003 13.0795 41.4537 11.5062H47.9737C47.9738 11.3328 48.0004 10.6395 48.0004 10.3195ZM41.4138 9.05283C41.4138 7.54614 42.3338 6.91944 43.1738 6.91944C43.9871 6.91944 44.8538 7.54614 44.8538 9.05283H41.4138Z" fill="#635BFF"/>
<path fill-rule="evenodd" clip-rule="evenodd" d="M32.9466 4.21289C31.64 4.21289 30.7999 4.82618 30.3332 5.25291L30.1599 4.42626H27.2266V19.973L30.5599 19.2663L30.5732 15.493C31.0532 15.8397 31.7599 16.333 32.9332 16.333C35.3199 16.333 37.4932 14.413 37.4932 10.1863C37.48 6.31956 35.2799 4.21289 32.9466 4.21289ZM32.1466 13.3996C31.3598 13.3996 30.8933 13.1195 30.5732 12.7729L30.5599 7.82616C30.9066 7.43945 31.3866 7.17284 32.1466 7.17284C33.3599 7.17284 34.1999 8.53282 34.1999 10.2795C34.2 12.0662 33.3732 13.3996 32.1466 13.3996Z" fill="#635BFF"/>
<path fill-rule="evenodd" clip-rule="evenodd" d="M22.6396 3.42662L25.9863 2.70665V0L22.6396 0.706661V3.42662Z" fill="#635BFF"/>
<path d="M25.9863 4.43945H22.6396V16.1061H25.9863V4.43945Z" fill="#635BFF"/>
<path fill-rule="evenodd" clip-rule="evenodd" d="M19.0533 5.42621L18.8399 4.43953H15.96V16.1062H19.2933V8.19951C20.0799 7.1728 21.4133 7.35954 21.8266 7.50616V4.43953C21.4 4.2796 19.8399 3.98627 19.0533 5.42621Z" fill="#635BFF"/>
<path fill-rule="evenodd" clip-rule="evenodd" d="M12.3868 1.54688L9.13343 2.24022L9.12012 12.9202C9.12012 14.8935 10.6001 16.3469 12.5735 16.3469C13.6668 16.3469 14.4668 16.1468 14.9068 15.9068V13.2002C14.4802 13.3735 12.3735 13.9868 12.3735 12.0136V7.28021H14.9068V4.44026H12.3735L12.3868 1.54688Z" fill="#635BFF"/>
<path fill-rule="evenodd" clip-rule="evenodd" d="M3.37337 7.82616C3.37337 7.30615 3.80001 7.10618 4.50667 7.10618C5.51997 7.10618 6.79998 7.41283 7.81338 7.95956V4.82618C6.70671 4.38623 5.61334 4.21289 4.50667 4.21289C1.80002 4.21289 0 5.62621 0 7.98618C0 11.6662 5.06671 11.0795 5.06671 12.6662C5.06671 13.2796 4.53339 13.4795 3.7867 13.4795C2.68002 13.4795 1.2667 13.0262 0.146713 12.4129V15.5862C1.3867 16.1195 2.64008 16.3462 3.7867 16.3462C6.55999 16.3462 8.4667 14.9728 8.4667 12.5862C8.45339 8.61288 3.37337 9.31954 3.37337 7.82616Z" fill="#635BFF"/>
</svg>
