<svg width="48" height="48" viewBox="0 0 48 48" fill="none" xmlns="http://www.w3.org/2000/svg">
<g clip-path="url(#clip0_176_7721)">
<path d="M29.9999 24H13C12.4697 24.0006 11.9614 24.2115 11.5864 24.5864C11.2115 24.9613 11.0006 25.4697 11 26V40C11 40.2652 11.1054 40.5195 11.2929 40.7071C11.4804 40.8946 11.7347 40.9999 11.9999 41H31C31.2652 41 31.5196 40.8946 31.7071 40.7071C31.8946 40.5195 32 40.2652 32 39.9999V26C31.9994 25.4697 31.7885 24.9613 31.4136 24.5864C31.0386 24.2114 30.5302 24.0005 29.9999 24Z" fill="#FAC100"/>
<path d="M19 24V29.4992C19 29.5877 19.0235 29.6746 19.068 29.751C19.1126 29.8274 19.1766 29.8907 19.2536 29.9343C19.3306 29.9779 19.4178 30.0002 19.5063 29.9991C19.5948 29.998 19.6814 29.9734 19.7572 29.9279L21.4999 28.8822L23.2427 29.9279C23.3185 29.9735 23.4051 29.9981 23.4936 29.9992C23.5821 30.0003 23.6693 29.9779 23.7463 29.9343C23.8233 29.8907 23.8874 29.8275 23.9319 29.751C23.9765 29.6746 24 29.5877 24 29.4992V24H19Z" fill="#F87600"/>
<path d="M29.2074 41.0003L31.9928 40.0721C31.9945 40.048 32 40.0253 32 40.0006V34.3503C31.9471 34.355 31.8948 34.3519 31.8418 34.3597L24.5963 35.4337C24.5899 34.8783 24.413 34.3383 24.0895 33.8868C23.7659 33.4353 23.3115 33.0942 22.7877 32.9095L16.5611 30.8695C15.4291 30.5012 14.209 30.5045 13.0791 30.8789L11 31.5727V40.0008C11.0001 40.2659 11.1056 40.5201 11.2931 40.7075C11.4806 40.8949 11.7348 41.0002 11.9999 41.0003H29.2074Z" fill="#FF9500"/>
<path d="M34.8242 38.117C34.6011 37.5285 34.1841 37.0336 33.6419 36.714C33.0997 36.3945 32.4647 36.2693 31.8418 36.3592L24.5962 37.4332C24.5899 36.8778 24.4129 36.3378 24.0894 35.8863C23.7659 35.4348 23.3115 35.0937 22.7876 34.909L16.561 32.8686C15.4291 32.5003 14.209 32.5036 13.0791 32.8779L6.68362 35.0123C6.48457 35.0786 6.31144 35.2059 6.18875 35.3762C6.06606 35.5464 6.00003 35.7509 6 35.9607V43.3746C6.00005 43.5198 6.03173 43.6634 6.09286 43.7952C6.15399 43.9269 6.24308 44.0438 6.35396 44.1377C6.46483 44.2316 6.59482 44.3002 6.73489 44.3387C6.87496 44.3773 7.02174 44.3848 7.16503 44.3609L11.8609 43.5743C12.2054 43.5166 12.5593 43.5699 12.8716 43.7263L15.9404 45.2607C16.7619 45.6742 17.6573 45.9207 18.5747 45.9859C19.4921 46.0511 20.4133 45.9337 21.2851 45.6406L33.1163 41.6967C33.4676 41.5796 33.7916 41.3929 34.0691 41.1477C34.3465 40.9025 34.5717 40.6039 34.7311 40.2698C34.8905 39.9356 34.981 39.5727 34.997 39.2028C35.013 38.8329 34.9543 38.4636 34.8244 38.1169L34.8242 38.117Z" fill="#FFD188"/>
<path d="M23 37.8603C21.6158 37.7617 14 36.5 14 36.5L22.6419 38.6929C23.0666 38.7701 23.5049 38.6829 23.8676 38.4488C24.2304 38.2148 24.4905 37.8515 24.5953 37.4326C24.13 37.7576 23.5654 37.9089 23 37.8603Z" fill="#F9A06F"/>
<path d="M34.8025 38.0723C34.777 38.1379 34.7617 38.2061 34.731 38.2706C34.5727 38.6056 34.3479 38.9048 34.0703 39.1501C33.7927 39.3954 33.4681 39.5817 33.1162 39.6976L21.2852 43.641C20.4134 43.9342 19.4922 44.0515 18.5748 43.9863C17.6574 43.9211 16.762 43.6746 15.9405 43.2611L12.8719 41.7269C12.5596 41.5705 12.2057 41.5172 11.8612 41.5749L7.16531 42.3615C7.022 42.3855 6.87519 42.3779 6.73509 42.3394C6.59498 42.3009 6.46496 42.2323 6.35405 42.1384C6.24314 42.0446 6.15402 41.9276 6.09287 41.7958C6.03173 41.664 6.00004 41.5205 6 41.3752V43.3751C6.00005 43.5204 6.03173 43.6639 6.09286 43.7957C6.15399 43.9275 6.24308 44.0444 6.35396 44.1383C6.46483 44.2321 6.59482 44.3007 6.73489 44.3393C6.87496 44.3778 7.02174 44.3854 7.16503 44.3615L11.8609 43.5748C12.2054 43.5172 12.5593 43.5704 12.8716 43.7269L15.9404 45.2613C16.7619 45.6748 17.6573 45.9213 18.5747 45.9865C19.4921 46.0517 20.4133 45.9343 21.2851 45.6412L33.1163 41.6973C33.4676 41.5802 33.7916 41.3935 34.0691 41.1483C34.3465 40.9031 34.5717 40.6045 34.7311 40.2703C34.8905 39.9362 34.981 39.5733 34.997 39.2034C35.013 38.8335 34.9543 38.4642 34.8244 38.1175C34.8183 38.1016 34.8087 38.0879 34.8025 38.0723Z" fill="#F9A06F"/>
<path d="M6.00003 32.5H3.99997C2.89542 32.5 2 33.3954 2 34.5V43.5001C2 44.6046 2.89542 45.5 3.99997 45.5H6.00003C7.10458 45.5 8 44.6046 8 43.5001V34.5C8 33.3954 7.10458 32.5 6.00003 32.5Z" fill="#00CF66"/>
<path d="M6.00003 42.5H4.00006C3.4698 42.4994 2.9614 42.2885 2.58644 41.9136C2.21148 41.5386 2.00057 41.0303 2 40.5V43.5C2.00057 44.0302 2.21146 44.5386 2.58641 44.9136C2.96135 45.2885 3.46972 45.4994 3.99997 45.5H6.00003C6.53028 45.4994 7.03865 45.2885 7.41359 44.9136C7.78854 44.5386 7.99943 44.0302 8 43.5V40.5C7.99943 41.0302 7.78854 41.5386 7.41359 41.9136C7.03865 42.2885 6.53028 42.4994 6.00003 42.5Z" fill="#00B157"/>
<path d="M41.2172 5.04992L28.3461 2.18764C26.7623 1.81303 25.0973 2.00299 23.6385 2.72473L19.7421 4.51114C18.8289 4.96935 18.0263 5.62072 17.39 6.42007L15.0399 9.37835C14.923 9.52566 14.8501 9.70292 14.8293 9.8898C14.8086 10.0767 14.841 10.2656 14.9228 10.435C15.0045 10.6043 15.1324 10.7471 15.2916 10.8471C15.4508 10.9471 15.635 11.0002 15.8231 11.0002H40.9999C41.2651 11.0002 41.5194 10.8949 41.707 10.7074C41.8945 10.5199 41.9999 10.2656 42 10.0004V6.02595C41.9999 5.7985 41.9224 5.57784 41.7801 5.4004C41.6378 5.22295 41.4393 5.09933 41.2172 5.04992Z" fill="#FFD188"/>
<path d="M32.0719 8.99996L29.2748 7.28255C28.4528 6.77787 27.476 6.58726 26.5245 6.74584L23.1214 7.31302C22.3885 7.43516 21.7041 7.75901 21.1449 8.24827L18 10.9999H32L32.0719 8.99996Z" fill="#F9A06F"/>
<path d="M34.0001 9H13C11.8954 9 11 9.89542 11 11V20.0001C11 21.1046 11.8954 22 13 22H34.0001C35.1046 22 36 21.1046 36 20.0001V11C36 9.89542 35.1046 9 34.0001 9Z" fill="#00CF66"/>
<path d="M11.7957 9.41406C11.5494 9.59894 11.3494 9.83841 11.2114 10.1137C11.0733 10.3889 11.0009 10.6924 11 11.0003V20.0003C11.0006 20.5306 11.2115 21.0389 11.5864 21.4139C11.9614 21.7888 12.4697 21.9997 13 22.0003H34C34.436 21.9987 34.8593 21.8533 35.2043 21.5866L11.7957 9.41406Z" fill="#00B157"/>
<path d="M17 19.5001H14.5C14.2348 19.5001 13.9804 19.3947 13.7929 19.2072C13.6054 19.0197 13.5 18.7653 13.5 18.5001V12.5001C13.5 12.2349 13.6054 11.9805 13.7929 11.7929C13.9804 11.6054 14.2348 11.5 14.5 11.5H17.0001C17.1322 11.4988 17.2633 11.5237 17.3857 11.5734C17.5082 11.623 17.6196 11.6965 17.7134 11.7895C17.8073 11.8825 17.8819 11.9931 17.9327 12.1151C17.9836 12.2371 18.0098 12.3679 18.0098 12.5C18.0098 12.6322 17.9836 12.763 17.9327 12.885C17.8819 13.0069 17.8073 13.1176 17.7134 13.2106C17.6196 13.3036 17.5082 13.377 17.3857 13.4267C17.2633 13.4764 17.1322 13.5013 17.0001 13.5H15.5001V17.5H17.0001C17.1322 17.4988 17.2633 17.5237 17.3857 17.5734C17.5082 17.623 17.6196 17.6965 17.7134 17.7895C17.8073 17.8825 17.8819 17.9931 17.9327 18.1151C17.9836 18.2371 18.0098 18.3679 18.0098 18.5C18.0098 18.6322 17.9836 18.763 17.9327 18.885C17.8819 19.0069 17.8073 19.1176 17.7134 19.2106C17.6196 19.3036 17.5082 19.377 17.3857 19.4267C17.2633 19.4764 17.1322 19.5013 17.0001 19.5L17 19.5001Z" fill="#00B157"/>
<path d="M17 13.5001C17.2415 13.4996 17.4747 13.4114 17.6562 13.252C17.8376 13.0925 17.955 12.8726 17.9865 12.6331L15.8077 11.5H14.5C14.2348 11.5 13.9804 11.6054 13.7929 11.7929C13.6054 11.9804 13.5 12.2348 13.5 12.5V18.5C13.5 18.7653 13.6054 19.0196 13.7929 19.2072C13.9804 19.3947 14.2348 19.5001 14.5 19.5001H17.0001C17.1322 19.5013 17.2633 19.4764 17.3857 19.4267C17.5082 19.3771 17.6196 19.3036 17.7134 19.2106C17.8073 19.1176 17.8819 19.007 17.9327 18.885C17.9836 18.763 18.0098 18.6322 18.0098 18.5001C18.0098 18.3679 17.9836 18.2371 17.9327 18.1151C17.8819 17.9932 17.8073 17.8825 17.7134 17.7895C17.6196 17.6965 17.5082 17.6231 17.3857 17.5734C17.2633 17.5237 17.1322 17.4988 17.0001 17.5001H15.5001V13.5001H17Z" fill="#009148"/>
<path d="M29.9999 19.5001H32.5C32.7652 19.5001 33.0196 19.3947 33.2071 19.2072C33.3947 19.0196 33.5 18.7653 33.5 18.5V12.5C33.5 12.2348 33.3947 11.9804 33.2071 11.7929C33.0196 11.6054 32.7652 11.5 32.5 11.5H29.9999C29.7347 11.5 29.4804 11.6054 29.2928 11.7929C29.1053 11.9804 28.9999 12.2348 28.9999 12.5C28.9999 12.7653 29.1053 13.0196 29.2928 13.2072C29.4804 13.3947 29.7347 13.5001 29.9999 13.5001H31.4999V17.5001H29.9999C29.8678 17.4988 29.7367 17.5237 29.6143 17.5734C29.4918 17.6231 29.3805 17.6965 29.2866 17.7895C29.1927 17.8825 29.1182 17.9932 29.0673 18.1151C29.0164 18.2371 28.9902 18.3679 28.9902 18.5001C28.9902 18.6322 29.0164 18.763 29.0673 18.885C29.1182 19.007 29.1927 19.1176 29.2866 19.2106C29.3805 19.3036 29.4918 19.3771 29.6143 19.4267C29.7367 19.4764 29.8678 19.5013 29.9999 19.5001Z" fill="#00B157"/>
<path d="M29.0139 18.3672C28.9896 18.5089 28.9972 18.6543 29.036 18.7927C29.0748 18.9312 29.144 19.0593 29.2384 19.1677C29.3328 19.2762 29.4502 19.3623 29.582 19.4198C29.7138 19.4773 29.8567 19.5048 30.0004 19.5002H31.1927L29.0139 18.3672Z" fill="#009148"/>
<path d="M23.5 19.5001C25.7092 19.5001 27.5001 17.7092 27.5001 15.5C27.5001 13.2909 25.7092 11.5 23.5 11.5C21.2909 11.5 19.5 13.2909 19.5 15.5C19.5 17.7092 21.2909 19.5001 23.5 19.5001Z" fill="#FAC100"/>
<path d="M19.9529 13.6553C19.709 14.1212 19.5595 14.6307 19.5128 15.1546C19.4662 15.6784 19.5233 16.2064 19.681 16.7081C19.8388 17.2098 20.0939 17.6755 20.4319 18.0784C20.7698 18.4814 21.184 18.8137 21.6506 19.0564C22.1172 19.299 22.6271 19.4472 23.1511 19.4924C23.675 19.5377 24.2028 19.4791 24.7041 19.3201C25.2054 19.1611 25.6704 18.9047 26.0725 18.5657C26.4745 18.2266 26.8057 17.8116 27.0471 17.3443L19.9529 13.6553Z" fill="#FF9500"/>
<path d="M40.9997 7H33.4997C33.2945 7.00008 33.0942 7.06327 32.926 7.18102C32.7579 7.29876 32.63 7.46535 32.5598 7.65822L31.8396 9.63916C31.6604 10.1283 31.3575 10.5627 30.9603 10.8998C30.5631 11.2369 30.0853 11.4653 29.5735 11.5625L22.9828 12.7982C22.4631 12.8947 21.9982 13.182 21.6795 13.6037C21.3607 14.0254 21.2111 14.5511 21.2601 15.0774C21.309 15.6038 21.5529 16.0928 21.944 16.4486C22.335 16.8043 22.8449 17.001 23.3735 17H33.719C34.7041 17.0014 35.6782 16.7935 36.5769 16.3899L41.4074 14.2341C41.5838 14.1554 41.7336 14.0273 41.8388 13.8652C41.9439 13.7032 41.9998 13.5142 41.9998 13.321V7.99994C41.9997 7.73473 41.8944 7.48039 41.7068 7.29287C41.5193 7.10535 41.2649 7 40.9997 7Z" fill="#FFD188"/>
<path d="M41.4079 12.2346L36.5773 14.3904C35.6787 14.7939 34.7045 15.0017 33.7195 15.0002H23.3738C22.9922 14.9998 22.6179 14.8958 22.2906 14.6995C21.9634 14.5031 21.6956 14.2217 21.5157 13.8852C21.34 14.2066 21.2513 14.5683 21.2582 14.9345C21.2651 15.3007 21.3674 15.6588 21.5551 15.9734C21.7427 16.288 22.0092 16.5482 22.3281 16.7282C22.6471 16.9083 23.0075 17.0021 23.3738 17.0003H33.7195C34.7046 17.0017 35.6787 16.7937 36.5773 16.3902L41.4079 14.2344C41.5843 14.1557 41.7341 14.0275 41.8392 13.8655C41.9443 13.7034 42.0003 13.5144 42.0002 13.3213V11.3213C42.0003 11.5145 41.9444 11.7036 41.8393 11.8656C41.7342 12.0277 41.5843 12.1559 41.4079 12.2346Z" fill="#F9A06F"/>
<path d="M44 3H42C40.8954 3 40 3.89542 40 4.99997V14.0001C40 15.1046 40.8954 16 42 16H44C45.1046 16 46 15.1046 46 14.0001V4.99997C46 3.89542 45.1046 3 44 3Z" fill="#00CF66"/>
<path d="M43.9999 13H42C41.4697 12.9994 40.9614 12.7885 40.5864 12.4136C40.2115 12.0386 40.0006 11.5302 40 11V14C40.0006 14.5302 40.2115 15.0386 40.5864 15.4136C40.9614 15.7885 41.4697 15.9994 42 16H43.9999C44.5302 15.9994 45.0386 15.7885 45.4135 15.4136C45.7884 15.0386 45.9993 14.5302 45.9999 14V11C45.9993 11.5302 45.7884 12.0386 45.4135 12.4136C45.0386 12.7885 44.5302 12.9994 43.9999 13Z" fill="#00B157"/>
</g>
<defs>
<clipPath id="clip0_176_7721">
<rect width="48" height="48" fill="white"/>
</clipPath>
</defs>
</svg>
