<svg id="Layer_1" data-name="Layer 1" xmlns="http://www.w3.org/2000/svg" viewBox="0 0 300 300"><defs><style>.cls-1{fill:#c5a24b;}</style></defs><path class="cls-1" d="M255.5,272.9a6.71,6.71,0,0,1-4.69-1.91l-13.15-12.92L224.52,271a6.69,6.69,0,0,1-9.37,0L202,258.06,188.85,271a6.71,6.71,0,0,1-9.38,0l-13.14-12.92L153.19,271a6.69,6.69,0,0,1-9.37,0l-13.16-12.93L117.52,271a6.69,6.69,0,0,1-9.37,0L95,258.06,81.82,271a6.68,6.68,0,0,1-11.36-4.77V93.35l-44.24.45a6.75,6.75,0,0,1-4.77-1.94,6.66,6.66,0,0,1-2-4.75v-29c0-17.09,14.43-31,32.18-31H230c17.74,0,32.18,13.91,32.18,31V266.22a6.68,6.68,0,0,1-6.68,6.68ZM95,242a6.68,6.68,0,0,1,4.68,1.91l13.17,12.93L126,243.94a6.69,6.69,0,0,1,9.37,0l13.16,12.93,13.14-12.92a6.69,6.69,0,0,1,9.38,0l13.14,12.91,13.15-12.91a6.68,6.68,0,0,1,9.37,0l13.15,12.91L233,243.94a6.69,6.69,0,0,1,9.38,0l6.46,6.35V58.09c0-9.72-8.43-17.63-18.81-17.63H78.1a30,30,0,0,1,5.72,17.63v192.2l6.47-6.36A6.72,6.72,0,0,1,95,242ZM51.65,40.46c-10.38,0-18.82,7.91-18.82,17.63V80.36L70.46,80V58.09C70.46,48.37,62,40.46,51.65,40.46Z"/><path class="cls-1" d="M224.87,189.23H104.59a6.68,6.68,0,0,1,0-13.36H224.87a6.68,6.68,0,0,1,0,13.36Z"/><path class="cls-1" d="M224.87,220.32H104.59a6.69,6.69,0,0,1,0-13.37H224.87a6.69,6.69,0,0,1,0,13.37Z"/><path class="cls-1" d="M224.87,87.79H189a6.69,6.69,0,1,1,0-13.37h35.91a6.69,6.69,0,0,1,0,13.37Z"/><path class="cls-1" d="M224.87,111.49H189a6.69,6.69,0,1,1,0-13.37h35.91a6.69,6.69,0,0,1,0,13.37Z"/><path class="cls-1" d="M224.87,135.2H189a6.69,6.69,0,1,1,0-13.37h35.91a6.69,6.69,0,0,1,0,13.37Z"/><path class="cls-1" d="M138,99.53c-11.62-3.28-14.2-5.4-14.2-10.16,0-3.35,2-7.46,9-7.46,8.31,0,9.72,4.88,10.5,7.9h15.42C157.87,81.35,153.06,73,139.57,71V64H126.65v7.13c-10.3,2-18.37,8.75-18.37,19.75,0,10.21,5.36,17,23.7,22.26,10.07,2.88,12.9,5.48,12.9,10.81,0,4.35-2.57,8.2-10.6,8.2-6.49,0-10.82-3.53-12.07-9.14h-15.4c.84,10.5,8.07,18.14,20.61,20v8.75h13V143c11.89-1.78,19.89-8.59,19.89-20.84C160.32,110.6,154.22,104.05,138,99.53Z"/></svg>