<svg id="Layer_1" data-name="Layer 1" xmlns="http://www.w3.org/2000/svg" viewBox="0 0 300 300"><defs><style>.cls-1{fill:#c5a24b;}</style></defs><path class="cls-1" d="M81,66.36h74.78a5.95,5.95,0,1,0,0-11.89H81a5.95,5.95,0,0,0,0,11.89Z"/><path class="cls-1" d="M122.78,102.06a5.94,5.94,0,0,0,5.95,5.94h68.76a5.95,5.95,0,1,0,0-11.89H128.73A6,6,0,0,0,122.78,102.06Z"/><path class="cls-1" d="M121,143.7a5.94,5.94,0,0,0,5.94,5.94H211a5.95,5.95,0,1,0,0-11.89H126.94A5.94,5.94,0,0,0,121,143.7Z"/><path class="cls-1" d="M257.07,168.2H246.43V71a6,6,0,0,0-.51-2.39,5.25,5.25,0,0,0-.33-.49,5.87,5.87,0,0,0-1.07-1.44s-.05-.1-.1-.14l-57.9-51.21a6,6,0,0,0-3.94-1.49H71.72A28.09,28.09,0,0,0,43.66,41.86v204a28.1,28.1,0,0,0,28.06,28.07h85.33a13.4,13.4,0,0,0,13.31,12.31h86.71a13.43,13.43,0,0,0,13.41-13.41V181.62A13.43,13.43,0,0,0,257.07,168.2ZM201.3,180.1h22.56v18.56H201.3ZM188.24,32.69,224.78,65H196.63a8.4,8.4,0,0,1-8.39-8.39ZM55.56,245.82v-204A16.18,16.18,0,0,1,71.72,25.69H176.34V56.62A20.31,20.31,0,0,0,196.63,76.9h37.91v91.3H170.36a13.43,13.43,0,0,0-13.42,13.42V262H71.72A16.18,16.18,0,0,1,55.56,245.82Zm203,27a1.53,1.53,0,0,1-1.52,1.52H170.36a1.53,1.53,0,0,1-1.52-1.52V181.62a1.53,1.53,0,0,1,1.52-1.52h19v20.45a10,10,0,0,0,10,10h26.35a10,10,0,0,0,10-10V180.1h21.31a1.52,1.52,0,0,1,1.52,1.52Z"/><path class="cls-1" d="M205.64,243.73H183.82a6,6,0,1,0,0,11.9h21.82a5.95,5.95,0,0,0,0-11.9Z"/><path class="cls-1" d="M109.13,82.71l-16.2,16-7.51-7.92A5.95,5.95,0,0,0,76.79,99l11.67,12.32a6,6,0,0,0,4.22,1.86h.1A6,6,0,0,0,97,111.43l20.53-20.25a6,6,0,1,0-8.36-8.47Z"/><path class="cls-1" d="M109.13,126.36l-16.2,16-7.51-7.91a5.95,5.95,0,1,0-8.63,8.18l11.67,12.32a6,6,0,0,0,4.22,1.86h.1A6,6,0,0,0,97,155.08l20.53-20.25a6,6,0,1,0-8.36-8.47Z"/><path class="cls-1" d="M109.13,166.79l-16.2,16-7.51-7.92a5.95,5.95,0,1,0-8.63,8.19l11.67,12.32a6,6,0,0,0,4.22,1.85h.1A6,6,0,0,0,97,195.52l20.53-20.26a6,6,0,1,0-8.36-8.47Z"/><path class="cls-1" d="M109.13,207.64l-16.2,16-7.51-7.91a5.95,5.95,0,1,0-8.63,8.18l11.67,12.32a6,6,0,0,0,4.22,1.86h.1A6,6,0,0,0,97,236.37l20.53-20.26a6,6,0,1,0-8.36-8.47Z"/><path class="cls-1" d="M126.94,179.39a5.95,5.95,0,0,0,0,11.89h17.23a5.95,5.95,0,1,0,0-11.89Z"/><path class="cls-1" d="M144.79,221H126.94a5.95,5.95,0,0,0,0,11.89h17.85a5.95,5.95,0,1,0,0-11.89Z"/></svg>