<svg id="Layer_1" data-name="Layer 1" xmlns="http://www.w3.org/2000/svg" viewBox="0 0 300 300"><defs><style>.cls-1{fill:#c5a24b;}</style></defs><path class="cls-1" d="M258.83,202.62A149.63,149.63,0,0,0,241,160.28c-11.22-18.32-28.17-42-48.73-58.22a5.21,5.21,0,0,0-1.76-10l23.07-28.41a5.4,5.4,0,0,0,1.19-3.12c.75-16.33-14.9-25.1-23.62-28.72l1.21-2.91A5.32,5.32,0,0,0,190,22.19c-.62-.35-15.68-8.46-37.81-8.46h-.49c-22.15,0-37.21,8.11-37.84,8.46a5.32,5.32,0,0,0-2.37,6.71l1.21,2.92C104,35.43,88.31,44.2,89.06,60.53a5.33,5.33,0,0,0,1.18,3.11L113.3,92.11A5.3,5.3,0,0,0,111,102.47C90.71,118.72,74,142.12,62.82,160.28A149.5,149.5,0,0,0,45,202.48c-.58,1.78-14,44,16.91,68.53a54.77,54.77,0,0,0,21.63,10.32c6.25,1.49,37,4.22,68.34,4.22s62.08-2.73,68.33-4.22A54.75,54.75,0,0,0,241.87,271C272.77,246.43,259.37,204.26,258.83,202.62ZM116.19,41.89l7.62,26.42a5.32,5.32,0,1,0,10.23-3l-9.19-31.89c0-.1-.1-.17-.14-.27s0-.2-.06-.3l-1.36-3.3a79.18,79.18,0,0,1,28.41-5.21h.43a79.35,79.35,0,0,1,28.38,5.23l-1.36,3.28c0,.1,0,.2-.06.3s-.11.17-.13.27l-9.2,31.89a5.33,5.33,0,1,0,10.24,3l7.62-26.42c6.1,2.59,15.72,8,16.45,16.54l-29.23,36a193.48,193.48,0,0,1-45.62.39L99.74,58.43C100.47,49.89,110.09,44.48,116.19,41.89ZM235.24,262.67a45,45,0,0,1-17.47,8.3c-5.05,1.2-35.17,3.93-65.87,3.93S91.07,272.17,86,271a44.93,44.93,0,0,1-17.47-8.3c-25-19.92-13.53-56.51-13.42-56.88,0-.12.14-.48.17-.6A139.53,139.53,0,0,1,71.9,165.85c9.93-16.21,29.82-45.06,53.65-60.78,2.38.32,4.74.63,7.08.84l-17.69,20.72a5.33,5.33,0,0,0,8.11,6.92l23-26.92.43,0V144a5.33,5.33,0,0,0,10.66,0V106.59l2.55-.11L178,133.11a5.33,5.33,0,0,0,8.77-6.05L172,105.54c2.12-.23,4.1-.47,5.92-.71,24,15.67,44,44.73,54,61a139,139,0,0,1,16.59,39.34c0,.12.13.48.17.6C248.78,206.16,260.28,242.75,235.24,262.67Z"/><path class="cls-1" d="M156.75,201.16c-13-3.67-15.88-6-15.88-11.36,0-3.75,2.22-8.35,10-8.35,9.3,0,10.87,5.46,11.74,8.84h17.25c-.9-9.47-6.29-18.79-21.38-21.07v-7.81H144.05v8c-11.52,2.18-20.55,9.79-20.55,22.09,0,11.42,6,19,26.52,24.91,11.27,3.21,14.43,6.12,14.43,12.09,0,4.86-2.88,9.17-11.86,9.17-7.26,0-12.1-4-13.5-10.22H121.86c1,11.73,9,20.28,23,22.42v9.79h14.56v-9.83c13.31-2,22.25-9.61,22.25-23.32C181.72,213.54,174.9,206.22,156.75,201.16Z"/></svg>